<svg xmlns="http://www.w3.org/2000/svg" version="1.0" viewBox="0 0 1134 1134"><path d="M397.5 130.2c-5.7 9.4-14.2 19.4-31.2 37-8.4 8.7-17.1 18.6-19.3 21.9-2.2 3.4-4 5.5-4 4.6 0-2.9-9.4-20-15.4-28.2-5.5-7.3-26.1-29.5-27.5-29.5-.3 0-.4 2.3-.2 5.1.7 10.1-7.2 24.4-24.2 43.6-5 5.7-9.2 10.3-9.5 10.3-.2 0-5.6-2.1-11.9-4.6-21.2-8.5-46.9-13.3-62.8-11.9-15.5 1.4-30.1 7.1-39.6 15.5l-5.4 4.7 6.7 7.2c7 7.5 13.7 19.3 15.7 27.3.6 2.5 1.5 11 2.1 18.9 1.5 20.5 4.3 37.7 8.1 48.6 1 3.1 1.9 6.1 1.9 6.7 0 .7-4.3 1.1-12.8 1.2-25.5.3-48.2 6.8-70.7 20.2-28.7 17-52.8 47.5-68.8 86.7C22 431.9 10.2 471 11.9 471c.4 0 3.4-3.6 6.5-8 6.6-9.2 10.7-13 17.6-16.5 14.5-7.3 37.1-5.9 59.5 3.8 4.4 1.9 15.4 6.7 24.5 10.7 9.1 3.9 19.2 8 22.5 9 3.3 1 9.8 3 14.6 4.4l8.5 2.6-5 5.2c-15 15.9-25.8 39.7-31.2 69-3.5 18.6-2.9 56.9 1.2 83.8 1.5 10 8.2 41.9 9.1 43.3.3.5 1.8-1.3 3.4-4 3.6-6.1 4.4-7.1 10-11.6 11.3-9.1 28.8-14.5 58.3-17.6 19.8-2.2 36.5-5.5 48.7-9.6 4-1.4 7.4-2.5 7.6-2.5.2 0 .3 2.6.3 5.8v5.9l-6.7-1.3c-3.8-.7-9.5-1.3-12.8-1.4h-6l-.1 10.3c0 8.9-.5 11.3-3.1 18.4-1.7 4.5-5.4 12.3-8.2 17.3-2.8 4.9-5.1 9.3-5.1 9.7 0 .5-.4 1.4-.9 2.1-.7 1.1-2.2.9-8.1-1.2-14.4-5.2-30-4.4-46.2 2.4-11.5 4.7-11.6 4.8-8.4 9.8 1.4 2.3 3.7 6.7 5.1 9.8 5.3 11.9 5.7 14.8 6.5 39.4.5 12.9 1.1 24.5 1.5 25.7.6 1.9.2 2.2-5.1 3.3-3.5.7-12.1 4.4-21.2 9.1-8.4 4.3-17 8.1-19 8.5-5.5 1.1-13.9-1.1-20-5.2-3-1.9-5.6-3.3-5.9-3.1-1 1.1 4 16.5 7.4 22.7 5 9.2 12 18.2 27.8 35.9 24.3 26.9 45.8 42.8 68 50.1 5.5 1.8 10.3 3.5 10.7 3.9.4.3-.6 2.7-2.2 5.2-9.5 14.6-12 40.6-5.9 63 1.2 4.4 2.5 8.1 2.9 8.4.4.2 3.2-3.3 6.3-7.9 8.8-12.9 15-16.1 37.4-19.1 29.6-4.1 36.2-5.4 43.1-8.9 7.3-3.7 15.9-10.8 18.1-15 .8-1.4 1.7-2.6 2-2.6.3 0 1.6 1.7 2.8 3.8 3.6 6.2 11.8 14.6 18.5 19 8 5.2 19.4 9.7 41.1 16.2 24 7.2 27.3 8.6 31.8 13.3 2.2 2.2 4.3 3.7 4.6 3.3 1.4-1.3 1.6-22 .3-29-2-11.3-6.9-22.9-13.5-32.1-3.8-5.3-3.8-5.4.5-4.8 2.2.3 9 0 15.2-.6 23-2.5 43.4-11.6 61.9-27.7 15.4-13.3 27-27.6 38-47.1 8.2-14.5 5.4-13.4 34-13.1l24.4.3-4.2 2.2c-7.9 4.3-22.7 15.2-31.4 23.2-25 23.1-43.3 57-51.3 95.3-2.5 12.1-6.4 48.3-5.3 49.4.4.4 2.1-.4 3.9-1.8 12.8-9.7 30.9-11.3 56.8-5 20.3 4.9 27.5 5.7 52.5 5.7 25.4-.1 37.2-1.4 57.2-6.6 35-9 64.6-26.1 84.6-48.9l5.2-5.9 1.9 2.7c1.1 1.5 10.3 11 20.6 21.2 21.8 21.5 23.5 24.2 23.4 35.8 0 6.1.2 7.2 1.5 6.7 3.7-1.4 17.8-12.5 25.3-19.9 19.4-19.2 30.4-39.6 32.7-61 .6-4.9 1.2-9 1.3-9.1.2-.2 4.8 1.7 10.3 4.2 50.7 22.5 116.5 23.5 158.4 2.3 15.4-7.7 23.1-14.4 37.5-32.4 22.1-27.6 44.7-45.5 64.3-51.2 3.2-.9 6-1.8 6.2-2 .6-.6-14-20.6-20.8-28.4-18.3-21.1-39.7-35.7-59.9-40.8-4-1-7.4-2-7.6-2.3-.3-.3 2-3.6 5-7.4 11.5-14.6 18.3-31.8 27.8-70 7.7-31.3 14.8-47.5 27.1-62l5.3-6.2-5.1-1.1c-50.7-10.8-91.4-7.8-124.8 9.4-4.8 2.5-10.8 6-13.5 7.9-2.6 1.9-4.9 3.3-5.1 3.1-.2-.1-1.2-5.3-2.3-11.5-2.5-13.6-7-28.2-11.8-37.6-2.8-5.7-42.9-71.1-45.2-73.8-.4-.4-4.6 4.1-9.4 10.2-9.3 11.8-20.3 23.4-33.2 34.8l-8.1 7.1-2.3-6.6c-4.8-13.8-19.2-31.3-33.7-41l-5.3-3.5V488h3.4c5.9 0 19.3-3 25.2-5.6 3.5-1.6 7.7-4.6 11.2-8.2 3.5-3.5 5.7-5.2 6-4.3.2.7 2.7 4 5.4 7.3 8.3 9.9 15.9 13.8 43.8 22.3 17.6 5.3 22.3 7.4 24.7 11.1 2 3.2 2.8 2 3.7-5.7 1.4-11.3-2.7-27.5-9.8-38.2l-4.3-6.6 7.1.1c19.6 0 37.1-6.4 53.6-19.8 13-10.5 22.5-21.9 32.7-39.3 10.1-17.2 27.8-32.2 40.9-34.7 1.9-.3 3.4-1 3.4-1.4 0-.4-1.9-3.5-4.2-6.9-10.8-16.1-27.5-23.3-54.1-23.4l-12.9-.1.6-2.5c3.7-15.6 4.6-32 3.6-61.1-.4-13.1-.3-13.7 2.3-19.4 3.3-7.1 2.9-7.6-6-7.6-17.1 0-40.8 9.8-59 24.7l-4.2 3.4-2.7-4.3c-1.5-2.3-5.7-7.4-9.5-11.4-8-8.5-14.6-18.3-15.5-23-.3-1.9-.9-3.4-1.3-3.4-.3 0-4.8 1.1-9.9 2.4-12.5 3.2-22.6 9.1-30.8 18-3.5 3.8-6.4 7.3-6.4 7.8s-2.3-1.1-5.1-3.6c-8.8-7.9-24.7-13.9-40.6-15.3l-7.3-.6v7c0 9-1.9 15.3-8.7 28.8l-5.6 11.1-6.6-2.3c-11.4-3.9-26.6-2.6-38.4 3.3-2.8 1.5-5.3 2.8-5.5 2.9-.2.2.4 1.5 1.3 2.9l1.7 2.6h-24l-3.5-4.8c-6.5-8.6-19.9-20.8-29.4-26.7-25.4-15.5-54.9-15.8-83.2-.9-4.6 2.4-8.5 4.4-8.7 4.4-.2 0-.4-1.1-.4-2.5 0-3-.1-3-9.2-.6-4 1.1-9.3 2.3-11.7 2.6-3.7.6-4.3.5-3.8-.8 3.5-9.3 4.2-28.6 1.3-39.7-.9-3.6-4.5-12.4-8-19.5-3.5-7.2-6.9-14.4-7.5-16-1.9-5.5-4.1-19.6-4.1-26.7v-7l-3.7.6c-2.1.3-7.6 1-12.3 1.6-23.7 3.1-45 11.4-60.3 23.8l-7.8 6.3-5.7-5c-17.7-15.4-34.1-36.2-41.8-52.9-1.8-3.9-3.7-7.2-4.2-7.2s-2.6 2.8-4.7 6.2zm0 34.5c-.3 9.3-.7 18.9-1 21.5-.2 2.7-.1 4.8.4 4.8.4 0 1.3-6.3 2-14.1 1.9-21 2.1-21.2 5.9-7.8 3.3 11.6 5.5 21.7 6.6 30l.7 4.6-4.8 2.3c-4.6 2.1-5.6 2.2-20.3 1.6-22.2-.8-39-1.8-39-2.3 0-1.5 5.6-10.9 9.1-15.3 5.5-6.9 19.1-21.2 19.6-20.6.3.3-2 5-5.1 10.5-5.4 9.5-10.7 21.8-10.5 24.4 0 .6 1.7-2.4 3.8-6.8 2.1-4.4 6.1-11.8 9-16.4 5.4-8.5 22.9-33.1 23.7-33.1.2 0 .2 7.5-.1 16.7zm11.6-5.5c11.2 22.3 20.9 49.5 24.9 70.3 2.4 12.3 3 14.8 3.6 14.3.2-.2-.8-6.9-2.1-14.9-2.8-16.5-8.4-36.7-14.4-51.8-2.3-5.8-4.1-10.6-4.1-10.7 0-.1 4.9 4.6 10.8 10.5 5.9 5.8 14.8 14.5 19.8 19.2 7.7 7.3 9.7 9.9 13.7 18 5.9 11.7 8.6 22.3 9.4 36 .5 9.9-1 28.2-2.6 30.6-.3.6-2.2 1.8-4.1 2.8-1.9 1-6.5 3.9-10.1 6.6l-6.6 4.9h-24.1l-.7-5.3c-.3-2.8-2.8-11.7-5.5-19.7-3.5-10.2-5.1-16.9-5.6-22.6-.8-9.2.8-25 3.7-37.2 2.3-10.1 2.3-9.5 0-8.7-1.7.5-2-.1-2.5-5.2-1.2-11.7-5.6-34.7-8.2-43.6-1.2-4 .9-1.2 4.7 6.5zm-88.8 9c7.3 11.2 13.2 23.2 15.6 31.7l1.9 6.9-5.1.7c-7.5.9-19.5 5.1-24.7 8.5-2.4 1.6-4.5 2.8-4.7 2.6-.2-.1.6-2.9 1.7-6.2 3.1-8.9 5-22.5 5.1-36.4.1-11.9.1-12.3 1.5-9.1 2.4 5.3 4.4 14.2 5.8 25.3.7 5.7 1.4 8.9 1.5 7.3.2-6.1-2-27.2-3.4-32.2-2.8-9.7-2.1-9.6 4.8.9zm-17.9 7.5c-1.3 22.4-5.5 49.2-8.3 53.2-3.1 4.4-6.8 12.4-8.6 18.6-3 10.3-2.9 10.1-8 10.8-7.6 1.1-21.6 5.6-28.3 9.3l-6.3 3.4.6-3.7c2.7-15.6 8.4-32.7 14.8-44.3 6.1-11 15.7-24.2 15.7-21.6 0 1.1-6.2 12-10.8 18.8-2.5 3.8-4.3 7-4 7.3 1.3 1.3 13.9-17.2 21.8-32 4.4-8.1 15-22.7 15-20.5 0 4.1-8 31.2-12.1 41.2-1.6 3.9-2.7 7.3-2.4 7.6 1.5 1.6 14.1-31.5 19-50.1 1-3.7 1.9-6.7 2.1-6.7.2 0 .1 3.9-.2 8.7zm205.7-.1c-11 10.2-21.3 26.9-27.6 44.9-2.9 8.3-4.5 11.2-4.5 8.2 0-5.2-7.4-21.2-13.6-29.3l-2.3-3.2 5.2-4.9c8.7-8.2 21-14.7 36.2-19.3 14.3-4.4 14.9-4 6.6 3.6zm23.4 4.4c1.9 12.7 2 12.9 10.6 31 3.8 8 7.3 16.9 7.9 19.9 2.5 13.5.2 32.7-4.4 35.6-1.2.7-7 1.5-13.6 1.9-15.1.9-39.7 4.7-51.5 8.1-2 .6-2 .1-1.9-23.2v-23.8l3.6-8.6c7.5-17.8 17.3-32.3 28.1-41.7 8.1-6.9 9.6-7.1 5.1-.5-10.1 14.9-18.6 42.2-20.8 66.6-.7 8.3 1 3.7 2.3-6.3 2.4-17.5 10.9-41.1 19.6-54.5 2.5-3.9 2.6-3.9 2.1-1-.3 1.6-.8 6.1-1.2 10-.5 6.3-4.7 30.1-6.1 35-.3 1.3-.2 1.7.5 1 1.4-1.5 7.8-29.2 9.8-42.5 1.5-10.3 2-11.8 4.7-14.7 1.7-1.8 3.2-3.2 3.3-3 .2.1 1 5 1.9 10.7zm-310 9.5c8.2 1.7 27.6 7.8 35.2 11.2l4.3 1.8-4.1 6c-11.2 16.7-19.2 38.7-22 60.5-1.2 9.4-1.3 9.6-6.3 15.2-6.4 7-11 14.7-15.1 24.7l-3.1 7.8-4.2-10.1c-2.4-5.6-5.8-16.8-7.8-25.1-1.9-8.2-3.7-15.1-3.9-15.4-.9-.8-.5 2.5 2 16.9 2.5 14.4 5.7 25.8 10.1 35.7 1.6 3.5 2.1 6 1.6 7.3-.8 2-.9 2-4.7-.8-13.6-9.8-21.4-34.3-24.5-76.9-.7-9.5-1.8-17.3-3-21-1-3.2-1.8-5.9-1.7-6 .2-.1 3.4 3.6 7.2 8.3 9.3 11.6 19.4 27.6 24.5 39 2.4 5.2 4.7 9.4 5.2 9.4.9 0 .5-1.1-5.6-14.7-7.3-16.4-21-37.5-34.1-52.4-3.5-4-6.3-7.5-6.1-7.7.9-.9 10 4 20.2 10.8 12.1 8.1 24.8 19.2 36.9 32 4.4 4.7 8.1 8.2 8.3 7.8.5-1.2-17-20.7-26-28.9-11-9.9-25-20.1-32.9-23.9-4.7-2.2-5.8-3-3.9-3 1.4-.1 5.8-.5 9.8-.9 9.7-1.2 20.7.3 29.9 3.8 8.6 3.4 9.8 2.5 1.6-1.2-9.7-4.3-17.8-5.9-29.8-5.9h-11l4.5-2c2.5-1.2 7.2-2.7 10.5-3.4 7.8-1.7 27.6-1.1 38 1.1zM374 215.6c3.3.5 3 .7-6 4.5-10.6 4.4-44.7 23.2-43.2 23.7.6.2 8.8-3.6 18.3-8.3 19.3-9.7 28.8-13.6 40.1-16.5 12.1-3.1 12.8-2.9 7.1 2.7-11.8 11.7-25.4 34.8-32.4 55.3-2.6 7.7-2.9 8.1-2.9 4.5 0-7.2 3.3-16.8 9-25.9 2.5-4.1 2.7-4.1-6.5-2.1-5 1-13.7 1.4-30 1.4-12.7 0-25.9.3-29.4.7l-6.3.7.7-3.4c1.3-6.5 7.4-17.9 12.4-23.3 8.7-9.1 18.5-13.1 35.8-14.5 9.6-.8 26.4-.5 33.3.5zm27 6c-3.4 8.9-6.1 27.3-6.5 44.4-.3 14.7-.2 16 .5 8.5 1.7-17.1 3.2-27 5.3-35.5l2.2-8.5.7 13.8c.6 13.1.9 14.5 5.6 28 2.7 7.8 5.2 16.1 5.5 18.4l.5 4.3h-29.9c-28.7 0-29.9-.1-29.9-1.9 0-1 1.6-6.6 3.6-12.3 7.4-21.1 22.6-45.1 36.4-57.1 3.5-3.1 6.6-5.5 6.7-5.3.2.2-.1 1.6-.7 3.2zm485.7 23.7c-.7 7.2 1.4 25.1 3.9 33.6 1.9 6.7 8.4 20.1 9.7 20.1.5 0 .7-.3.5-.8-7.5-14.5-9.8-23.7-10.4-40.2l-.4-13.5 2.8 7c1.6 3.8 4.5 10.1 6.4 14 1.9 3.8 6.4 13.5 9.9 21.4 3.5 7.9 6.5 13.9 6.7 13.3.3-1.1-11.7-32.1-15-38.5-1.1-2.2-1.7-4.1-1.5-4.3 1.3-1.3 13 13.4 16.6 20.8 8.8 17.8 8 34.5-2.6 55.3-2 3.8-4.3 9.2-5.2 11.9l-1.7 4.8-5.6-7.4c-3.1-4.1-8.1-9.6-11.1-12.2-5.4-4.6-5.5-4.7-5.9-10.9-.5-9-3.8-14.8-13.2-24.2-5.7-5.6-10.5-9.2-16.1-12.2-13-6.8-12.4-5.8-7.9-14.3 4.6-8.9 12.8-18 20.8-23.2 3.3-2.1 6.1-3.6 6.3-3.4.2.2-1 2.3-2.6 4.7-3.5 5-8.5 15.9-7.3 15.9.4 0 2-2.4 3.4-5.4 2.4-4.8 13.5-18.2 14.5-17.3.2.2-1 5.9-2.7 12.7-2.9 12.1-5.7 32.5-4.7 35.2.2.7.7-1 1.1-3.7 1.5-11.4 2.9-17.7 6.8-31.3 2.3-7.8 4.3-14.2 4.6-14.2.3 0 .2 2.9-.1 6.3zm-72.9 12.3c2.8 3.1 6.4 8.1 8.1 11.2 1.7 3.2 3.1 5 3.1 4.2 0-2.8-4.6-11.4-9.8-18.3-4.9-6.4-5-6.7-2.4-6.1 9.2 2.3 20.6 8.7 24.6 13.8 2.5 3.3 2.5 3.6 1.1 7-.9 2-1.8 3.6-2.1 3.6-.4 0-2.4-1-4.5-2.2-2.1-1.2-4-2-4.2-1.7-.1.2-1.4 2.9-2.9 5.9-2.8 5.9-15.9 24.2-16.8 23.4-.2-.3-.8-9.4-1.1-20.2-.5-13.6-1.2-21.3-2.3-24.7-.9-2.8-1.6-5.1-1.6-5.3 0-1.1 6.7 4.7 10.8 9.4zm-10.3 5.4c.7 3.6 1.5 12.2 1.8 19.2l.6 12.8h-12c-14.2 0-13.8 1.9-4.2-17.5l6.4-13-.6 9.5c-.3 5.2-.8 10.8-1.1 12.5-.2 1.7-.1 2.5.5 2 1.1-1.3 3.1-17.4 3.1-25.7 0-3.6.3-8.1.7-9.9l.7-3.4 1.4 3.5c.8 1.9 2 6.4 2.7 10zm162.1-5.4c-4.9 4.9-6.5 8.5-1.8 4.2 3.8-3.4 8.2-6.4 11.1-7.3 2.3-.7 2.2-.4-1.1 3.6-6.2 7.7-14.1 21.9-12.1 21.9.5 0 2.5-2.9 4.6-6.4 3.2-5.4 8.7-12 8.7-10.4 0 .2-1.2 3.3-2.6 6.8-3.6 8.8-7.1 23.9-7.9 34l-.7 8.4-3.1-3.9c-4.2-5.3-21.9-23.5-22.9-23.5-.4 0-.8 1.4-.8 3.2 0 4.7-2.9 15.6-5.6 21-1.4 2.7-2.5 4.8-2.7 4.8-.1 0-.2-5.3-.3-11.8-.1-8.7-.6-13.2-2.1-17.8l-2-6.1 7.5-5.5c9.1-6.8 19.9-13.1 29-16.8 9.3-3.9 10-3.7 4.8 1.6zm-317.1 4.3c11.4 3 27.8 12.1 33.9 19 2.4 2.6 1.8 2.6-6.9.1-10.4-3.1-27.3-5-41.4-4.9l-12.6.2 11.2.7c22.1 1.5 39.3 5.4 54.5 12.2 13 5.9 13.8 5.8-51.3 5.8h-59l.7-6.3c.4-3.4 1.1-7 1.6-8 1.4-2.7 14-10.6 23-14.3 15.2-6.4 32.6-8.1 46.3-4.5zM310 264.6c-17.1 4.6-28.8 9.5-39 16.4-5.8 4-16.1 14-14.4 14 .6 0 2.6-1.6 4.5-3.6 1.8-2 6.4-5.6 10.1-8 12-7.9 23.3-12 45.3-16.4 17.7-3.6 21.3-3.6 14.5-.1-7.5 3.9-19.1 12.5-27.5 20.5l-8 7.6H268v71c0 39-.4 71-.8 71-1.6 0-10.7-6.6-14.6-10.5-2.1-2.2-5.5-7.4-7.5-11.5-3.5-7.3-3.6-7.8-3.6-19.5 0-6.6.4-14 .8-16.5.5-2.9.5-4.2-.2-3.5-1.4 1.5-4.1 16.9-4.1 23.8v6.2l-3.9-5.5c-6-8.3-13.3-20.8-15.9-27.3-8.6-21.4-2.8-56.1 12.9-77.7 12.4-17.1 31.4-26.7 58.9-29.9 5.8-.7 11.4-1.4 12.5-1.5 1.1-.2 4.5-.3 7.5-.4h5.5l-5.5 1.4zm26.3 10.6c-3.8 4.6-8.9 10.9-11.2 14l-4.3 5.8h-20.2l3.5-3.6c6.1-6.4 17.8-14.7 28.2-20 5.6-2.9 10.4-5.1 10.6-4.9.2.3-2.8 4.2-6.6 8.7zm11.5-1.7c-.5 2.8-.9 8.7-.9 13.2l.2 8.3H342c-3 0-5-.4-5-1.1 0-.6 2.1-6.1 4.7-12.3 6.2-14.9 8-17.2 6.1-8.1zM981.9 292c0 6.3-.4 15.5-.9 20.5-1.1 9.3-4.7 23.5-6.1 23.5-.4 0-1.7-2.8-2.8-6.3-1.9-5.7-2-7.2-1.1-19.7 1-13.8 3.2-24.8 7.2-35.5l2.3-6 .6 6c.4 3.3.7 11.2.8 17.5zm-420.4-16.2c-.6.4-4.1 3.3-8 6.4-3.8 3.1-8.6 7.3-10.4 9.2l-3.5 3.6h-34.1l4.5-2.7c9.5-5.7 33.3-14.9 43-16.6 4.5-.8 9.4-.7 8.5.1zm-27.6 1.6c-.3.3-4.3 2.1-8.9 4.1-4.7 2-12.2 5.9-16.7 8.6l-8.2 4.9h-38.6l5-3c9.9-5.9 30.4-11.4 53-14.3 4.5-.6 14.9-.8 14.4-.3zm27.2 9.8l-4 7.3-5.8.3-5.8.3 2.5-2.6c2.9-3.2 15.1-12.5 16.3-12.5.5 0-1 3.3-3.2 7.2zm-225.8 1.7c-1.8 6.1-1.8 6.1-5.5 6.1-2.1 0-3.8-.3-3.8-.6 0-1 10.2-12.5 10.7-12.1.2.3-.4 3.2-1.4 6.6zm234-.1l-.6 6.2h-7.9l1.8-2.8c5.3-8.2 6.7-10.2 7-10 .1.2 0 3.1-.3 6.6zm277.2 12.1c3.8 6 4.2 7.1 2.6 7.1-1.5 0-2 1-2.6 4.7-.7 5.1-5.6 18.8-7.8 21.6-1.1 1.6-1.5 1.6-4.7-.8-6-4.5-15.3-9.7-20.5-11.5-4.5-1.5-5-2-5.3-4.9-.2-2.1.6-4.8 2.4-7.9 4.1-7.1 8.5-13.4 9.1-12.9.2.3-.3 4-1.2 8.2-.9 4.3-1.4 8-1.1 8.2.2.3 1.6-3.3 3-7.9 1.5-4.6 3.9-11 5.5-14.3l2.7-6 1.3 18.3c1.8 25.8 3 27.4 2.4 3.1-.4-11.4-.3-21.5.1-22.4.5-1.5 1.5-.7 5.1 4.3 2.4 3.3 6.5 9.3 9 13.1zm2.2-12.7c11.1 6.1 21.2 14.9 25.4 22.2 2.6 4.7 4 10.3 2.2 9.4-12.6-6.3-22.1-10.8-23-10.8-.7 0-1.3-.5-1.3-1.1 0-.9-5.5-10.8-12.2-21.7-1.1-1.7-1.7-3.2-1.3-3.2.3 0 4.9 2.4 10.2 5.2zm-77.9 2.3c2.3.9 4.2 2.3 4.2 3.1 0 1.1-2.6 1.4-13.3 1.4-11.2 0-13.9-.3-17.1-2-3.8-1.9-3.9-2-1.5-2.8 4.8-1.9 6.5-2.1 14.9-1.8 5.2.2 10.1 1 12.8 2.1zm174.9 47.3c.3 14.4.9 25 1.4 24.5 1.1-1.1 1.5-47 .4-53.8l-.7-5 3.2 3.1c3.9 3.8 7.4 13.9 9.7 27.9.9 5.5 2 10.4 2.6 11 .6.7.8.1.4-1.5-.3-1.4-.8-6.8-1.2-12l-.6-9.5 2.2 4c5.5 10 6.8 26 2.8 34.9l-1.7 3.9-.8-4.9c-1-7-3.8-16.3-6.2-20.9-2.7-5.2-2.8-3.4-.1 4.1 2.7 7.5 3.7 24.2 1.9 32.3-1.6 7.3-6.1 15.7-11.9 22.2-4 4.5-5.6 5.5-11.1 7-3.6 1-6.6 1.6-6.8 1.5-.1-.2 2.3-4.7 5.3-10.1 3.1-5.4 5.4-10.2 5.3-10.7-.4-1-7.9 9.2-13 17.8-2.1 3.3-4.6 6.8-5.7 7.8-2 1.8-2 1.8-1.5-5.5.3-4.1 1.4-9.9 2.4-13 1.1-3.1 2.1-8 2.4-11l.6-5.4-1.8 5.5c-3.3 9.8-3.7 9.9-5 1.3-.7-4.3-2.4-11.4-3.9-15.8-2.4-7.4-2.5-8.3-1.4-14 2-9.3 5-15.3 11.4-22.4 3.3-3.6 7.2-8.6 8.8-11 3.7-5.7 3.7-4.3.4 11.9-1.4 6.8-2.5 12.7-2.5 13.3 0 5.1 6.1-17.5 8.5-31.8 2.1-12.3 2.6-12.9 4.2-6.5 1 3.7 1.6 13.8 2 30.8zM797 565.5V824H279V307h518v258.5zM178.8 316.6c6.2.7 6.2.7 10.7 6.8 4.5 6.1 10 10.7 14.3 12 2.1.7 2.2 1.3 2.2 10.2 0 5.2-.4 9.4-.8 9.4-.5 0-3.3-.8-6.3-1.9-14.3-4.9-40.9-7-57.8-4.7-13 1.9-16.5 3.2-5.1 2 20.9-2.2 45.7.7 62.9 7.4l7.5 2.9 1.2 6.3c.7 3.4 2.7 9.1 4.3 12.6l3 6.4H210c-2.7 0-7.9-.6-11.7-1.4-10-2.1-21.6-2.9-27-2-4.6.8-4.3.8 4.7 1.4 5.2.4 14.2 1.8 20 3.3 5.8 1.4 13 2.9 16.2 3.2l5.6.6 5 7.6c2.8 4.2 4.9 8 4.6 8.5-.3.4-9.4.8-20.2.8-24.5 0-76.5 3.1-75.1 4.5.2.2 11.4-.1 24.9-.6 13.5-.4 35.9-.6 49.8-.2l25.4.6 5.4 4.6c3 2.5 6.8 6.7 8.5 9.2 3.3 5.2 13.8 14.5 18.7 16.6 2.8 1.2 3.2 1.8 3.2 5.3 0 3.6-.2 3.9-3.2 4.4-11.3 1.9-20.9 2.6-35.6 2.7-9.2.1-19.6.5-23.2.9-5.3.6-3.4.8 10.5 1.1 24.8.6 33 .5 42.8-.4l8.7-.7v12.8l-6.2 1.6c-10.1 2.5-28.3 4.6-41 4.6H209l-6.8-4.4c-8.4-5.3-14.8-10.5-32.7-26.5-28.9-25.6-45.9-36.2-65.5-40.7-20-4.5-41.9 2-59.4 17.7-7.5 6.8-7 5 1-3.3 15.3-15.8 35.1-29.1 60.7-40.4 5.9-2.6 10.5-4.9 10.2-5.2-.7-.7-16 5.6-28.9 12-18.8 9.3-32.2 18.5-44.8 30.7-3.8 3.6-6.8 6.3-6.8 6 0-1.6 6.6-16.2 10.7-23.8 15-27.8 35.2-49.9 57.8-63.3 21.3-12.7 51.2-19.6 74.3-17.2zm679.1 9.1c5.3 10.6 9.3 25.2 14 51.3 1 5.1 1 4.9.5-3-.8-15.3-4-29.3-11.9-52.5-.4-1.1 1.6.4 4.4 3.3 11.4 12 23.6 37 26.1 53.8 1.6 10.9 2 12.7 2.5 12.2 1.3-1.2-2.8-23.4-6-32.7-3.2-9.5-13.2-29.2-15.5-30.6-.6-.3-1-1.1-1-1.6 0-2 12.4 7.8 19.1 15 14.6 15.8 21.4 32.5 22.6 55.6.5 9.7.3 13.1-1.1 17.9-1.9 6.6-5 11.8-9.2 15.7-3.1 2.9-10.1 6.9-12 6.9-.6 0 .2-2.7 1.8-6.2 3.7-7.8 6.7-19.2 7.3-28.3l.5-7-1.4 6.5c-3.2 15-7.7 26.3-13.4 33.7-2.3 3.1-2.9 3.3-8.3 3.3h-5.8l1.9-4.3c2-4.2 2.8-15.7 1.2-15.7-.4 0-1.4 1.7-2.2 3.7-3.9 11.1-13.4 18.5-20.7 16.3-1.5-.5-2-.9-1.1-.9 2.5-.1 8.6-5.8 10.7-10 2.3-4.6 4.9-16.7 5.3-25.3.5-9.2-.6-7.3-2 3.2-1.4 11.7-4.5 19.5-9.7 24.7-2.4 2.4-5.2 4.3-6.4 4.3-2.5 0-2.5 0-.6-7 .9-3.5 1.4-9.7 1.4-17l-.1-11.5-1.4 12.3c-1 8.9-2 13.9-3.8 17.8-1.4 3-2.8 5.4-3.1 5.4-1.5 0-7.5-5.4-9.7-8.8-11-16.6-6.7-43.3 14-88.5 2.8-6 5.3-11.1 5.7-11.5.9-.8-.1 36.2-1.1 42.3-.4 2.2-.3 3.7.1 3.2 1.4-1.2 4.4-29.3 4.5-41 0-5.9.2-10.7.5-10.7s1.8 2.6 3.4 5.7zm-40.7 5.6c7.5 3.9 16.8 10.7 16.8 12.2 0 .7-1.8 5.6-4 11.1-7.1 17.3-12 37.8-12 50.1 0 2.9-.2 5.3-.4 5.3s-2.4-.9-5-2l-4.6-2.1v-16.1c0-14.1.2-15.9 1.5-14.8 1.9 1.6 1.9.1 0-2.4-1.2-1.6-1.5-5.5-1.5-18.4 0-10.6.3-16.1 1-15.7.6.3 1-.1 1-.9s-.4-1.8-1-2.1c-1.6-1-1.2-7.5.4-7.5.8 0 4.3 1.5 7.8 3.3zm191.2 10.8c4.2.5 9.3 1.6 11.3 2.3l3.7 1.3h-6c-6.4.1-24.4 3.2-24.4 4.3 0 .3 3.9 0 8.8-.8 10.3-1.6 25.1-1 30.5 1.3 2 .8 3.7 1.6 3.7 1.8 0 .1-5.6.3-12.5.4-13.7.2-20 1.5-29.9 6.5-7 3.5-16 9.8-15.1 10.6.3.3 2.5-.9 5-2.7 5.8-4.2 15.4-8.5 23.6-10.6 8.1-2.2 24-1.6 31.4 1.1l5 1.9-9.6.6c-21.5 1.4-41 12.2-58.4 32.1-7.6 8.7-5.8 8.8 2 .1 6.8-7.4 23.1-19.3 31.9-23.2 7.4-3.2 15.7-5.1 22.2-5l5.9.1-7.5 3.5c-12.4 5.7-21.8 12.2-32.2 22.2-7.2 6.8-5.7 7 2.5.3 8.5-7 17.5-13.2 19-13.2.6 0-.5 1.7-2.4 3.7-2 2.1-5 5.7-6.7 7.9-3 3.9-3.8 4.3-14.4 7.2-15.3 4.2-25.7 6.2-35.6 6.9l-8.2.6 3.5-5.8c1.9-3.2 4.2-7.9 5.1-10.4 2.1-6.1 3.8-9.5 7.9-16 4.2-6.6 6.3-13.5 6.7-21.8l.3-6.2 5.5-.6c3-.3 6.4-.7 7.5-.9 4.6-.7 12.8-.5 19.9.5zm-11.6 67.6c-10.7 15.8-28 30.8-43.2 37.6-8.4 3.9-9.1 3.3-1.6-1.4 7.9-5 14.3-10 13.6-10.6-.2-.3-3.1 1.3-6.3 3.5-15.9 10.8-32 15.9-43.8 14.1-6.4-1.1-9.8-2.9-5.3-2.9 8.6 0 34.4-6.5 43.3-11 4.7-2.4 3-2.1-9 1.4-19.3 5.7-40.2 7.4-45.8 3.8l-2.8-1.9 4.1-1.8c4.6-2.1 12.4-9.6 14-13.5 1.4-3.5 7.7-8 17.5-12.7 7.1-3.3 8.5-3.6 21.3-4.4 16.8-1.1 25.1-2.3 36.7-5.3 13.6-3.6 13.4-3.8 7.3 5.1zm-879.6 7.1c10.8 5 23.5 13.7 44.8 30.7 9.6 7.7 21.2 16.5 25.9 19.7 4.6 3.2 7.8 5.8 7 5.8-.8 0-5.2-.7-9.9-1.5-22.8-3.8-47-11.4-70-22-25.6-11.7-36.1-14.9-53-16.2l-9.5-.7 4.5-1.4c2.9-.9 9.1-1.5 17-1.5 14.4-.1 24.1 2 37.4 7.9 11 4.8 13.4 5.3 5.8 1.1-22.3-12.4-47.4-15.6-69.3-8.7-3.5 1-6.5 1.8-6.7 1.6-.6-.7 12.5-10.3 18.8-13.8 18.4-10.1 36.7-10.5 57.2-1zM832 442c-3.1 4.4-8.8 8.8-15.8 12.1-3.5 1.7-6.2 3.3-5.9 3.5.7.7 11.3-3.3 15.5-6 2.2-1.4 5.7-4.1 7.6-6.1 4-4 4.5-4.1 8.8-1.9l3 1.6-2.8 3c-3.6 3.6-8 6.4-15.3 9.5l-5.6 2.4 4.2-.5c6.3-.9 14.6-4.9 19.6-9.5 5.8-5.3 7.8-5.4 7-.4-.3 2.1-1.4 6.1-2.5 9-2.6 7.1-6.2 8.5-22.6 9.1-6.7.2-13.9.1-15.8-.2l-3.5-.7.3-8.6.3-8.5 6-2.2c3.3-1.2 8.5-3.6 11.5-5.3 7.2-4 8.7-4.1 6-.3zm59.1 6.1c3.4 1.7 5.9 3.3 5.6 3.5-.3.3-3.6-1.1-7.3-3-3.8-1.9-6.3-3.5-5.6-3.6.7 0 4 1.4 7.3 3.1zm-23.6 5c6.5 6.6 25.3 20.4 26.3 19.4.3-.3.3-.6.1-.8-7.9-5.8-20-16.1-23.4-20l-4.5-5.2 4.4-.3c3.2-.2 7.4.8 16.2 4.2 6.6 2.4 13.1 4.7 14.6 5 3.1.7 12.7 11 16.4 17.5 2.3 4.1 6.4 14.9 6.4 16.8 0 .4-1.7-.9-3.7-2.8-4.1-3.8-9.4-7.4-16.2-10.8-6.8-3.5-5.9-1.7 1.6 3.2 5.9 3.9 14.7 11.7 13.1 11.7-.3 0-4.8-2-9.9-4.4-5.2-2.5-14.1-5.8-19.9-7.4-12.9-3.6-15.5-4.9-21.4-10.8-7.1-7.1-9.6-11.9-8.9-17.7.3-2.6.8-4.7 1.2-4.7.3 0 3.7 3.2 7.6 7.1zM826.4 475c7.1.1 8.7.3 7.2 1.2-2.8 1.6-11.7 3.8-19.2 4.7l-6.4.7v-7.9l4.6.7c2.6.3 8.8.6 13.8.6zM268 491.2c0 12.1-.2 13.4-2.2 15.5-2.2 2.3-1.2 3.3 1 1.1.9-.9 1.2 7.1 1.2 36.2v37.5l-38.3 19.2c-42.5 21.4-55.7 28.9-70.9 40.3-5.7 4.3-10.5 7.6-10.7 7.4-.8-.7 4.2-11 9.7-19.8 7.2-11.7 17.5-24.9 28.1-35.9 4.7-4.8 8.1-8.7 7.7-8.7-1.5 0-15.8 13.7-24 23-4.6 5.3-11.6 14.4-15.5 20.4-3.9 5.9-7.1 10.6-7.1 10.3 0-1.8 3.7-18 6.2-27 6.5-24 15.7-44.7 27.9-63.1 3.9-5.9 6.9-11 6.6-11.2-.6-.6-11.1 14-15.9 22.1-12.2 20.5-23.7 51.8-28.5 77.3-.9 5.1-2 8.7-2.4 8-1.3-2.5-3.8-22.5-5-39.1-3.6-49.5 8.6-92.7 33.1-118 7.5-7.6 7.2-7.6 22-5.1 10.3 1.7 39.1 2.3 50 1l6.5-.7-3 2.4c-1.6 1.4-4.1 3.4-5.5 4.5-5.3 4.3-1 2.9 8.1-2.7 8.6-5.3 14.4-7.7 19.2-8 1.5-.1 1.7 1.2 1.7 13.1zm624.7-3.7c7.5 2.4 12 4.5 9.7 4.5-1.3 0-18.5-5.8-19.2-6.5-1.1-1.1 2-.4 9.5 2zM814 536.6c15.4 12.1 25.2 25.1 28.5 37.6 1.3 4.6 1.2 4.7-2.7 10.4-2.2 3.2-4.1 6-4.3 6.2-.2.2-3-3.2-6.3-7.6l-5.9-8.1-2.6 2.7-2.7 2.7v-8.4c0-9.2-3.4-22.4-7.6-29.7-2.3-3.9-3.2-9.4-1.6-9.4.4 0 2.7 1.6 5.2 3.6zm83.7 37.9c-.6 25.7-1.9 39-5.3 57.4s-2.6 19.8 1.4 2.1c3.4-15.2 6.8-41 7.9-59.5l.6-11 2.3 9.5c2.8 11.3 7 35.2 8.3 47 2.5 21.8 2.3 48.4-.6 65-.3 1.9-.2 3.2.2 2.8 1.5-1.4 3.4-18.1 4.1-34.8 1.1-26.2-2.6-59.1-10.2-91.9-1.9-8.4-3.4-15.7-3.2-16.2.4-1.1 29.6 45.5 33.6 53.6 10.4 21.2 16.1 56 14.1 86.3-.8 12.4-3.7 27.5-5.6 29.2-.4.4-6.5 5.3-13.5 10.9-7.1 5.6-16.4 13.2-20.7 17.1l-7.9 6.9-1.2-5.2c-1.7-6.9-8.2-23.4-13.1-32.7l-3.9-7.6.9-8.8c1.6-15.6-1.9-32-10.2-48-2.3-4.4-9.7-15-16.4-23.5-6.8-8.6-13.5-17.3-15-19.3l-2.6-3.8 3.4-5.6c1.9-3.1 5.7-8.4 8.6-11.9 5.2-6.3 21.1-21 21.9-20.2.2.2-1.6 4.2-4 8.8-5.3 9.9-11.8 25-11.2 25.6.3.3 2.3-3.1 4.5-7.6 6.1-12 11.3-20.2 22-34.5l9.6-13 .8 5.5c.5 3 .6 15.3.4 27.4zm-82.1-9.5c.8 4 1.4 9.6 1.2 12.3-.3 4.5-.7 5.3-4.5 8.5l-4.3 3.5.1-21.9.1-21.9 2.9 6.1c1.6 3.4 3.6 9.4 4.5 13.4zm19.3 42.5c6.8 9.1 15.9 20.9 20.3 26.3 12.9 15.7 21.8 37 21.8 51.7l-.1 5-2.2-2.6c-1.2-1.4-5-6.1-8.5-10.5-3.4-4.3-9.4-11.3-13.3-15.4-6.5-6.9-7.2-7.3-8.2-5.6-4.1 6.6-13.9 17.5-23.6 26.1-6.2 5.5-11.6 10.1-12.1 10.3-.6.2-1-6.2-1-16.2 0-15.4.2-17.1 2.5-22.8 3.5-8.7 7.2-25.3 8.6-39.1.6-6.4 1.2-11.7 1.4-11.7.5 0 7.4 10.8 9.4 14.8 3.2 6.4 8.2 20.7 10.7 30.7 2.5 10.2 3.1 7.6 1-3.8-3.2-16.6-10.1-34.3-17.7-45.4-2.8-4-3.8-8.3-2.1-8.3.5 0 6.4 7.4 13.1 16.5zm-566.9.4v15.9l-12.7 4.1c-14.7 4.7-29.5 7.5-47.3 9.1-13.6 1.2-24.7 3-32.5 5.4-8.5 2.6-7.6 1.9 12.5-10.3 9-5.4 77-40 78.8-40.1.9 0 1.2 3.8 1.2 15.9zm547.3 2.3c-.5 14-3.3 33.8-5.7 40.4-1.3 3.6-1.5 1.9-1.5-20.7l-.1-24.5 3.6-4.2c1.9-2.3 3.7-4.2 3.9-4.2.1 0 .1 6-.2 13.2zm257.7 16.6l6.5.7-6 2.5c-9.7 3.9-24.3 12.8-34.5 21.1-10 8-23.6 21.7-22.5 22.7.3.3 4-2.8 8.3-7 9.9-9.6 21.1-17.8 33.7-24.6 9.3-5 23.3-10.7 24.2-9.8.2.2-1.8 2.8-4.5 5.7-7.8 8.6-19.4 26.4-26.2 39.9-5.8 11.5-15.6 37.7-14.5 38.8.2.3.9-.8 1.5-2.4 9.6-25.8 17.3-40.4 30-57.4 7.6-10.1 12-15.1 12-13.8 0 .2-1.5 4-3.4 8.5-5.1 12.1-6.2 15.5-13.1 42.8-9.6 38.2-16.1 52.7-29.9 67l-7.1 7.4-6.6.4-6.6.4 2.4-8.6c4.6-16.1 4.1-40.8-1.3-56.8-2.8-8.3-8.9-20.7-14.1-28.4-4.8-7-8.9-11.7-9.6-10.8-.2.2-3.7 4.9-7.8 10.4-4.1 5.4-11.4 14-16.2 19l-8.8 9 .6-4c.4-2.2.9-13.2 1-24.5l.4-20.5 6.3-4.7c15.5-11.7 40.6-20.9 63.3-23.2l6-.7-9 4.7c-8.6 4.5-26.1 17.1-25.1 18.1.3.3 4.1-2 8.5-5.1 4.4-3 11.9-7.4 16.8-9.7 10.3-4.8 27.6-9 34.3-8.2 2.5.2 7.4.7 11 1.1zm-810.2 30.8l5.2 4.6v49.9l-5 7.3c-2.7 4.1-6.1 10.5-7.6 14.3-1.5 3.7-2.9 7-3 7.2-1.2 1.4-14.4-10.4-14.4-12.9 0-2.3-2.8-.7-7.3 4.2l-4.8 5.3.6-8c.9-12.2 4-21.8 11.2-35.5 3.5-6.8 7.4-14.4 8.4-17l1.9-4.5-.4 4.5c-.8 7.1-1.6 28.6-1.1 27.5 1.1-2.5 4.5-32.7 4.6-41.4l.1-9.6 2.2 5c3.5 7.7 5.8 21.5 6.5 39l.6 16 .8-16.5c.9-17.2-.4-30.3-3.8-39.9-.8-2.3-1.1-4.1-.7-4.1.4 0 3.1 2.1 6 4.6zm586 29.6c2.3 29.1-3.5 63.7-15.2 91.7-2.6 6-3.5 10.2-1.5 6.8 4.2-7.2 11.5-27.1 14.8-40.5 4.4-17.4 7.7-44.4 6.7-54.5-.3-3.1-.4-5.7-.2-5.7.9 0 6.8 19.2 8.7 28.6 1.6 7.5 2.2 15.2 2.6 31.8.6 22.8-.1 31.2-3.8 50.4-2.6 13.2-1.9 15.6.9 3.2 5.1-22.7 5.6-27.4 5.7-54 0-27.4-.8-34.2-6-51.6-1.4-4.5-2.5-8.5-2.5-8.9 0-1.2 5.7 6.2 12 15.5 32.9 48.7 35.7 108 7.4 156-12.3 20.8-27.2 34.5-43.4 40-8.3 2.8-8.9 2.5-4.8-1.8 6.2-6.5 15.2-19.5 18.6-27 3.5-7.4 5.4-18.4 3.5-19.5-.6-.4-1 1.2-1.1 3.9-.1 9-9.9 24.8-25.5 41.1-5 5.2-6.6 6.3-9.3 6.3-3.8 0-3.9-.1-5.4-15.8-1.4-13.6-.2-27.2 3.5-40.5 1.3-4.8 2-8.7 1.6-8.7-1.2 0-6.8 19.4-8.2 28-.8 4.9-.9 12.4-.5 21.8l.7 14.3-3.7-1.6c-2-.8-3.8-1.5-4-1.5-.7 0-6.4-11.8-8.7-18.2-4.4-11.6-7.3-30.3-6-38.2l.6-3.6H808V728.2l8.7-11.9c17.5-23.8 20.3-28 25-36.2 5.6-9.9 5.8-9.7 7.1 7.1zm149.8 20.1c-.7 18.2-1.8 26.2-5.2 39.7-6 24.1-17.4 44.9-33.8 61.7-8.2 8.4-8.2 11.3 0 3.2 16.9-16.6 30.8-40.5 37.8-65.2 2.7-9.5 5.6-26.6 5.7-33.6.1-9.8 1.1-11.4 3.1-4.9 3.4 11.3 4.2 16.7 4.1 28.3-.1 16.9-4 31.1-13.1 47.5-12.4 22.4-36.8 46.1-65.8 64-7.9 4.8-10.4 5.9-15.6 6.4-3.5.4-7.3 1-8.5 1.3-1.6.3.2-1.9 5.5-7.3 9.8-9.8 17.4-21 21.2-30.9 1.7-4.5-.4-2.6-3.3 2.8-3.6 7-13 18.4-20.9 25.4-5.8 5.2-20.3 15.3-22 15.3-.4 0 1-3.3 3.2-7.3 12.4-23.1 18.7-54.5 16.1-80.5l-1.3-12.7 8-7.6c11.7-11.1 24.1-21.4 38.2-31.6 11.7-8.5 22.8-18.9 32.8-30.8 2.3-2.8 4.2-4.4 4.2-3.6 0 3-14.6 27.4-23.8 39.8-12.4 16.6-24.5 29.6-40 42.9-6.8 5.8-12.1 10.8-11.9 11.1 1.1 1.1 24.9-19.2 36.8-31.3 14.9-15.2 23.2-25.5 32.4-39.9 3.7-5.8 6.9-10.4 7.1-10.2.3.2-.1 4-.7 8.3-3.2 22.8-12.6 44-28 63.1-3.8 4.8-6.7 8.8-6.5 9 .5.6 8.6-8.1 13.2-14.1 16.5-21.6 25.2-44.7 26.1-69.4l.6-13.3 2.5 4.2c2.5 4.2 2.5 4.4 1.8 20.2zM831 687.8c0 .8-20.1 30.5-22.1 32.6-.5.6-.9-2.1-.9-6.5v-7.4l8.5-6.9c4.6-3.8 9.6-8.2 11.1-9.8 3-3 3.4-3.3 3.4-2zm-619 18.3c9.5 2.8 9.5 2.8 8.1 8.5-1.9 7.1-2.6 23.5-1.3 27.3 1 2.9.8 3.7-2.3 8.4-1.9 2.9-4.6 8-6.1 11.5l-2.7 6.3-5.8-11.8c-3.2-6.5-8.5-16-11.8-21.1-3.4-5.1-6.1-9.5-6.1-9.8 0-.3 1.4.4 3 1.6 4.8 3.4 3.5 1-3.6-6.8-3.6-4-5.9-7.2-5.2-7.2.8 0 4.1 1.6 7.4 3.7 7.7 4.7 17.7 10.2 18.7 10.3 1.9 0 .3-1.7-3.6-3.8-2.4-1.2-6.7-4.3-9.7-6.7-3-2.5-7.4-5.3-9.7-6.3-2.4-.9-4.3-2-4.3-2.3 0-.9 7.6-2.9 14.1-3.8 6.9-1 12.7-.4 20.9 2zm-18.2 52.6c1.7 3.2 4.1 8.7 5.6 12.1 2.3 5.9 3 9.2 5.6 30.4 1.7 13 7.9 28.2 16.7 40.5 3.3 4.7-4.2 1.5-12-5.1-9.3-7.9-17.8-22.3-22.5-38.1-4-13.8-4.5-17.9-4.8-38.8l-.2-20.8 4.4 7c2.3 3.8 5.6 9.6 7.2 12.8zm47.3-6.6c.8 5.2 2.3 12 3.2 15.1 2 6.7 18.2 45.5 19.8 47.5 2.2 2.6 2.8 1.3.9-2-2.3-4-12.4-31.1-16.1-43.3-1.5-5-3-12.2-3.4-16l-.6-6.9 4.3 4.5c2.4 2.5 6.9 7.4 10 11 3.1 3.5 5.9 6.2 6.2 5.9.3-.3-1.7-3.8-4.4-7.9-2.7-4.1-4.8-7.5-4.6-7.7.1-.2 2.7.5 5.7 1.5l5.4 1.9.3 39.6.2 39.7h9.3l-.7 5.2c-.3 2.9-.6 8.5-.6 12.5v7.2l-5.2-2.4c-6.7-3-15.3-5.3-23.5-6.1-5.9-.6-6.5-.9-11.1-5.8-9.4-10-17.3-23.5-21.3-36.6-3.2-10.7-3-25.7.5-35.5l2.5-7v9.1c.1 9.6 1.7 20.2 3.4 21.9.6.7.7.3.4-1-1.4-5.4-1.7-16.5-.7-27.2 1-11.1 1.3-12.1 4.8-17.2l3.7-5.5.7 7.4c.5 4.1 1.3 7.9 1.9 8.4.8.8.9 0 .5-2.9-.7-3.8.8-16.7 2-18.7.3-.5 1.6-.3 2.7.5 1.7 1.1 2.5 3.4 3.8 10.8zm803 27.3c15 3.2 29.5 11.3 45.2 25 8.2 7.3 10.9 10.7 7 9.1-5.8-2.3-20.4-5.5-30.4-6.6-16.8-1.8-41.6.6-61.8 6.1-6.9 1.8-4.1 2.2 4 .5 11.5-2.5 29.4-4.5 39.6-4.5 18.4 0 39.6 4.7 52.2 11.6 7.3 4 9.4 5.6 12.2 9.6l2 2.7-13.8-.6c-26.9-1.1-71.7 6.5-113.7 19.2-21.3 6.5-21 6.4-20.4 7 .2.3 9.2-1.9 19.9-4.9 40.7-11.3 89.9-18.8 112.6-17.1 5.1.4 9.3 1 9.3 1.4 0 .4-2.8 2.1-6.2 3.9-4.5 2.2-10.8 4.1-21.8 6.3-18.2 3.6-30.3 7.2-45.8 13.7-13.4 5.5-13.3 6.9.1 1.9 11.9-4.5 25.4-8.2 39.2-10.7 15.4-2.8 15.5-2.7 8.8 2.9-9.2 7.7-20.2 19.6-30.6 32.7-10.6 13.5-17.2 19.7-27.9 26.1-40.5 24.2-110.6 22.9-162.2-2.9-12.5-6.3-16.2-8.9-14.4-9.9 1.1-.6 5.6.6 13.9 3.5 7.3 2.6 18.9 5.7 28 7.5 13.5 2.7 17.9 3.1 34.5 3.2 14 .2 21.8-.3 30.2-1.6 6.2-1 11.1-2 10.8-2.3-.3-.2-4.7.1-9.8.7-28.8 3.5-64.7-1-90.6-11.4l-10.2-4.1 4.2-3.1c4-2.8 5.4-3.1 20.3-4.7 8.8-.9 17.4-1.8 19-2 3.6-.4 36.3 1.1 42 1.9 2.6.4 3.5.3 2.5-.3-.8-.5-7.6-1.7-15-2.7-14.4-1.9-33.5-2.3-48.8-1l-9.4.7 1.4-2.1c3-5 17.1-13.7 29-18 7.9-2.8 14.1-3.9 26.3-4.6 9.2-.5 13.1-.1 23.6 1.9 6.9 1.3 17.1 3.8 22.5 5.5 45.6 14 72.7 16.6 82.6 8 2.6-2.3 2.1-2.2-3.7.7-3.3 1.5-6.1 1.9-15 1.8-13.3 0-23.2-2.3-53.5-12.4-25-8.3-33.6-10.6-41.8-11.5l-6.4-.7 12.9-8.6c24.7-16.5 46.1-37.4 57.3-56l5.5-9.1 6-1.5c7.8-1.9 20.3-1.9 28.6-.2zm-854.9 45.3c5 9 16.3 21 22.8 24.4l4.5 2.3-4.5.9c-2.5.5-13.3 1-24 1-21.7.2-26.2-.6-41.6-7-6.1-2.5-8.9-4.4-11.3-7.3-1.8-2.2-2.9-4-2.6-4 .4 0 2.7 1.4 5.1 3.1 6 4.1 15.6 8.4 23.3 10.4 8.2 2.1 10.4 1.3 2.7-.9-11.9-3.5-27.3-13-34.6-21.2-3-3.5-3.5-5.9-.7-3.6 3.6 3 19.4 9.8 28.7 12.3 8.6 2.4 12.4 2.9 21 2.8 12.1-.1 10.2-1.6-2.2-1.8-12.6-.2-28.5-6-44.8-16.5l-6.4-4.1 6.3-.8c5.1-.6 9.5-2.4 22-8.8 8.6-4.4 17.6-8.3 20.1-8.7l4.5-.8 3.7 10.3c2 5.7 5.6 13.8 8 18zm207.2 13.4c1 5.4.6 18.1-.8 25-2.5 11.6-8.1 20.5-16.4 25.8-4.8 3.1-13.6 6.7-13 5.3.2-.4 1.8-3.5 3.5-6.9 1.8-3.4 4.4-10 5.7-14.7 2.4-8.2 6-29.6 5.1-30.5-.6-.6-1.1 1.2-3 11.3-3 15.8-9.3 31.2-16.3 39.6-2.9 3.4-3.2 3.5-11.3 3.9-8.2.3-8.4.3-6.7-1.6 3.3-3.6 4.8-9.1 4.8-16.9 0-4.3-.3-7.4-.7-7-.4.4-1.7 2.9-2.8 5.6-2.8 6.7-7.5 13.1-11.8 16.4-2.7 2.1-5.2 2.9-9.7 3.3-3.3.3-6 .2-5.9-.3 0-.5 2.1-2.3 4.6-3.9 6.6-4.2 10.5-11.8 13.2-25.3 1.1-5.9 2-14.1 2-18.2l-.1-7.5-1.3 9.5c-3.4 25.6-12 41-22.9 41-2.4 0-2.5-.1-1.2-3.3 2.3-5.4 3.4-13.5 4-28.2.6-15.5-.7-16.6-1.8-1.5-1 12.7-2.9 21.7-6 27.9-1.5 2.8-2.9 5.1-3.2 5.1-1.7 0-10.6-8.1-13-12-5-7.8-6.6-14.2-6.7-27.5 0-6.6.2-13.2.6-14.8l.7-2.7h109.8l.6 3.1zm28.6-2.5c0 .3-1.3 2.3-2.8 4.3-1.6 2-5 7.2-7.7 11.6-4.5 7.5-7.8 11.5-9.4 11.5-1.1 0 .9-18.1 2.5-23.3l1.6-4.7h7.9c4.3 0 7.9.3 7.9.6zm18.7 5.1c-6.7 8.7-9.6 10.9-15.7 12.3-3 .7-6.7 1.9-8.2 2.6-1.5.8-3 1.4-3.3 1.4-.7 0 5.8-13 9.1-18.2l2.4-3.8h20.1l-4.4 5.7zm30.3-.7c-5.8 7-4.4 7.4 1.6.6l4.9-5.6h12l12 .1-3 2.4c-1.6 1.3-2.6 2.7-2.2 3.1.4.4 2.2-.7 4-2.4 3-2.9 3.9-3.2 9.7-3.2 5.6 0 6.2.2 5 1.5-3.6 3.5-45.2 13-61.9 14.1-11.5.8-11.1 1.2-6-5.8 1.4-2 3.2-5.1 3.9-6.8l1.2-3h23l-4.2 5zm156.9-.1c17.1 12.4 46.1 26 67.6 31.7l11 2.9-7 .6c-3.8.4-13.3.8-21 .9l-14 .3 15 .8c22.2 1.2 45.5 3 49.5 3.8l3.4.7-2.9 2c-14 9.7-46.5 22-76.9 29-14.6 3.5-13.7 4.2 1.6 1.4 24.1-4.5 54.6-13.8 69.5-21.3l7-3.6.6 8.7c.5 9.1.2 10.3-4.2 16.1-3.2 4.3-14.8 12-23.1 15.4-8.7 3.5-30.4 8.4-41.4 9.3-8.7.6-16.6 2.2-12.1 2.3 13.2.4 45.5-4.6 56.3-8.7 8-3.1 17.5-8.8 21.9-13.2l4.1-4 3.1 9.6 3.2 9.6-2.7 3.5c-4.9 6.5-33.5 18.3-55.4 22.8-27.5 5.7-45.9 4.5-96-6.6-21-4.7-38.5-6.1-50.5-4-3.7.7-6.9 1-7.1.8-.2-.2 5.7-5.2 13.2-11.1 7.5-5.9 13.4-11 13.1-11.3-.6-.5-28 18.5-35.7 24.7-4.5 3.7-16.8 12-17.7 12-.7 0 7.1-14.1 12.4-22.3 7.9-12.1 21.9-29.2 31.1-37.6 4.8-4.5 8.1-8.1 7.4-8.1-2 0-19.5 16.3-28 26.3-4.3 5-11.4 14.4-15.6 20.7-7.1 10.5-7.7 11.2-7.1 7.5 2.3-13.7 13.8-40.9 23.2-55.2 16.8-25.4 41-45.9 68-57.8 7.2-3.1 8.6-3.4 18.7-3.4l10.8-.1 6.7 4.9zm98.1.8c1.8 8.7 5.8 17.8 10.7 24.4 3.8 5.3 4.1 5.9 2.1 5.4-1.3-.3-7.9-1.4-14.8-2.5-25.5-4-53.1-13.5-74.7-25.8-6.2-3.5-11.3-6.5-11.3-6.8 0-.2 19.5-.4 43.4-.4h43.5l1.1 5.7zm28.3 4c.6 11.1 3.7 24.3 7.3 31.4 4.3 8.5 3.1 9-4.8 1.9-10.2-9.1-19-24-20.4-34.5-.3-2.2-.7-5-1-6.3-.4-2.2-.3-2.2 8.9-2.2h9.4l.6 9.7zm25-1.3c-.6 9.3.9 21.7 3.9 31.4 1.1 3.5 1.7 6.6 1.5 6.8-.8.8-4.7-9.4-6.1-15.9l-1.4-6.2-.1 5.5c-.2 12.6 6.2 26.2 15.7 33.5 7.7 5.8 12.6 18.8 12.7 33.7 0 5.7.3 8.4 1 7.7 1.6-1.6 1.1-24.7-.8-30.3l-1.6-4.8 3.7.5c2 .3 6.1.9 8.9 1.3 5 .6 5.3.8 6.2 4.3 3.4 13 4.1 31.7 1.6 41.1-2.3 8.5-1.6 10.3 1 2.7 4.1-11.7 4.6-22 2.1-43.9-.6-5.5 2-5.9 8.5-1.1l5.1 3.8-.5 10c-.9 18.8-10.1 37.6-26.7 55.2-2.9 3-5.4 5.2-5.6 5-.3-.2.5-2.9 1.6-5.8 1.4-3.7 2.2-8.5 2.5-14.9.4-9.7.3-9.7-1.6 0-1.3 6.2-3.8 13-4.8 13-.4 0-1.3-2.1-1.9-4.8-1.7-6.3-10.3-19.2-16.8-25.1-2.9-2.7-9-7.4-13.5-10.6-10.2-7.1-16.9-14.1-20.3-21.1-3.2-6.5-4.8-14.5-4-19.3.5-2.9.4-3.4-.6-2.4-.9.8-1.1 3.7-.8 9.7.4 7.2 1 9.6 4.1 15.8 3.7 7.6 5.2 9.2 26 28.1 12.2 11 19.7 25.1 19.7 36.7v3.3l-3.1-4.4c-1.7-2.4-11.1-12.3-20.9-21.9-9.8-9.6-19.2-19.6-20.9-22.2-4.7-7.1-8.8-16.9-10.6-25.3-1.5-7.5-2-23.6-.9-29.4.6-2.8 1-3.1 4.4-3.1 2.9 0 6 1.4 12.6 5.5l8.8 5.6-.2 7.2c-.4 9.2 1.9 21 5.3 27.8 2.6 5 12.3 16.4 13.3 15.5.2-.3-1.2-2.4-3.2-4.8-4.8-5.5-9.3-14.9-10.6-21.7-.5-2.9-1-9.3-1-14.1v-8.8l7.6 2.9c4.2 1.6 7.9 2.8 8.1 2.5.3-.2-1.7-1.7-4.4-3.2-2.6-1.5-5.8-3.3-7-4-3.2-2-9.3-13.5-13-24.5-2.9-8.7-4.1-14.3-5.8-26.7l-.5-4.2h23.8l-.5 8.4zm-272.7 7.3c-2.6 6.7-23.1 30.8-33.6 39.5-11.8 9.7-29.2 19.5-38.2 21.3-2.5.5-1.5-.4 4.4-3.8 8.7-5 22.1-14.7 21.4-15.4-.2-.3-3.7 1.6-7.6 4.1-8.9 5.8-20.2 11.5-30 15.2-6.7 2.5-8.8 2.8-19.6 2.8-10.4 0-12.6-.3-15-2l-2.9-1.9 8.5-.7c14.1-1.1 30.7-5.1 47.5-11.5 12.1-4.6 11.6-5.9-.6-1.7-16.7 5.7-36.9 9.4-51.9 9.4-8.2-.1-10-.4-13.4-2.4l-3.9-2.4 5.3-2.7c6.9-3.5 14.4-10.6 17.7-16.8 2.9-5.3 8.9-10 19.8-15.4 11.4-5.8 14.8-6.5 34-7.3 17.9-.8 29.8-2.7 49-7.9 9-2.5 9.9-2.5 9.1-.4zM165 860.9c10.7 2.3 19.8 2.3 44 .1 32.4-3 43.7-2.2 57.3 3.8 2.6 1.2 6.2 3.1 8 4.4l3.1 2.2-2.4.7c-1.4.4-6.5.8-11.5.9l-9 .2 5.5 1.4c3 .8 8.6 1.3 12.4 1.2l6.9-.1 2.9 5.8c1.5 3.2 2.6 6 2.3 6.3-.2.3-6.7.8-14.2 1.1-12.6.6-13.3.7-8.3 1.5 3 .5 9.1 1.2 13.5 1.6l8 .6-7.5 3.6c-16.6 8-34.8 10.4-51.7 6.8-12.9-2.7-30.8-10-37.8-15.4-2.6-2-2-2 4 .3 6 2.2 14.8 3.8 12.5 2.2-.8-.6-2.3-1.1-3.2-1.1-3.5 0-37.8-18.4-36.6-19.6.3-.2 2.5.4 4.9 1.5 5.8 2.6 18 5.7 24.9 6.4l5.5.6-5-1.4c-16.5-4.8-28.9-10.2-35-15.1-2.9-2.4-2.9-2.5-.5-2 1.4.3 4.5 1 7 1.5zm130.5 36c.3.6-2.2 4-5.6 7.6-4.8 5.1-8.1 7.5-14.4 10.5-4.5 2.2-8.7 4-9.3 4-.7 0-1.2.4-1.2.9 0 1.4 13.8-3.1 19.2-6.3 2.6-1.5 7.3-5.2 10.4-8.3l5.6-5.5 4.1 1.8c2.3 1 4.6 2.1 5 2.4 2.5 2.1-12.7 13.7-21.8 16.6-5.3 1.7-9 4.2-4.5 3 15.1-4 25.6-9.4 30.1-15.5 2.4-3.2 3.5-3.7 5.7-2.2 1.1.6 1.1 2 .3 6.4-1.7 9.4-4.9 15.5-9 17.7-7.9 4-22.2 4.9-45.6 3-18.3-1.5-27.4.7-38.7 9.6-3.2 2.5-5.8 4.1-5.8 3.6 0-1.5 6.9-11.3 10.8-15.5 2-2 3.1-3.7 2.6-3.7-1.7 0-12.4 11-15.5 15.9-3.3 5.2-3.5 4.6-1.3-5.1 1.9-8.2 4.6-14.5 8.9-20.4l2.9-4.2 13.6-.5c9.1-.3 16.1-1.2 21.5-2.6 7.8-2 23.9-9.2 28-12.5 2.3-1.8 3.2-1.9 4-.7zM369 908c7.8 4.3 10.3 6 9.6 6.7-.7.7-19.5-9.1-19-9.9.8-1.3 1.8-1 9.4 3.2zm-38-2.1c0 2.2 18.1 18.5 28.5 25.5 6.3 4.4 11.8 7.7 12 7.4.3-.2-4.4-4.4-10.5-9.2-9.9-7.9-24-21.9-24-23.8 0-.4 2.4-.8 5.3-.8 4 0 9 1.4 21.1 6.1 8.7 3.3 16.6 5.7 17.4 5.4 2.3-.8 17.2 14.8 21.7 22.8 3.4 6.2 8.5 19.3 8.5 22 0 .6-1.9-.8-4.2-3-4.2-4.1-25.5-16.9-26.5-16-.3.3 4.2 3.7 9.9 7.5 9.1 6.1 17.6 13.7 16.6 14.8-.2.1-5.1-2.1-10.8-5-11.2-5.7-19.8-8.9-35-13.1-5.2-1.4-11.6-4-14.1-5.6-5.8-3.7-13.7-11.9-17.3-18.1-2.4-4.2-2.6-5.2-2-11.2.5-4.6 1.1-6.6 2-6.6.8 0 1.4.4 1.4.9zM288 942l11.5.1-3.5 1.9c-5.8 3.2-12.8 4.8-28 6.5-19.8 2.2-32.3 4.9-39.4 8.4-3.3 1.6-6.2 2.8-6.4 2.7-.6-.7 14.8-12.4 21.8-16.4l7.5-4.4 12.5.6c6.9.3 17.7.6 24 .6zm80.6 15.5c10 3 19.2 6.7 17.6 7.3-1.3.4-16.1-4.1-23.9-7.3-7.6-3.2-4.8-3.1 6.3 0zm203 2.9c4.3.8 16.2 3.3 26.4 5.5 27.2 5.9 40.2 7.4 60.5 6.8 18-.5 31-2.6 45-7.2 3.9-1.3 7.2-2.2 7.4-2 .7.7-11.6 7.9-22.3 13.1-27.3 13.1-54.5 18.8-89.6 18.7-21.9 0-29.7-1.1-53.5-6.9-8.9-2.2-13.5-2.7-24.2-2.8-15.3-.1-15.3-.2 2.7-6.8 13-4.8 29.8-8.4 45.5-9.9 6.6-.6 12.2-1.3 12.5-1.6 1-1.2-26.5.8-37.8 2.7-12.4 2.1-28.9 7-38.5 11.5-3.2 1.5-6 2.5-6.3 2.2-.2-.2 2.8-3.5 6.8-7.3 17.2-16.3 37-21.1 65.4-16z"/><path d="M350 456.5v3.5h8.1c14.4 0 19.7 3.1 21.8 13 1.3 6.2 1.5 212.1.2 218.9-1.9 9.4-6.9 12.9-20.5 13.8l-9.6.6V712l89.3-.2 89.2-.3 2.7-44c1.5-24.2 2.7-47.1 2.7-50.8l.1-6.8-2.7.3c-2.6.3-2.9.8-3.6 5.8-1.8 12.9-6.1 33.2-8.9 42-7.4 23.4-19 37.5-35.5 43.4-9.3 3.3-24.6 4.9-42.7 4.4-12.4-.3-15.8-.7-19-2.3-4.8-2.4-7.4-5.8-8.6-11.1-.5-2.1-1-28.2-1-57.8v-53.9l13.8.5c16.9.7 22.8 2.6 30.3 9.9 8.4 8.1 12.7 20.1 14.5 40.1.6 6.7.6 6.8 3.5 6.8h2.9V520h-2.9c-2.9 0-3 .2-3.5 5.7-2.5 24-6.7 34.2-17.2 41.4-7.4 5.1-11.7 6.1-27.2 6.7l-14.3.5.3-50.9c.3-48.6.4-51.1 2.3-54.9 1.4-2.8 3.4-4.7 6.5-6.3 4.4-2.3 5-2.3 27.5-1.9 20.1.4 23.8.8 29.5 2.6 25.3 8.5 36.8 28.5 43 75.3 1.2 8.8 1.2 8.8 4.1 8.8 3.5 0 3.3 5 1.4-43.5-.8-20.4-1.5-40-1.5-43.8V453H350v3.5zM555 456.4v3.6h8.7c10.8 0 16.2 2.2 19 7.8 1.7 3.5 1.8 8.9 1.8 115.2 0 110.2 0 111.5-2 115-2.9 5-7.8 7-18.5 7.7l-9 .6V712h98V706.3l-12-.6c-14.9-.6-18.4-2.1-22-9.3l-2.5-4.9-.3-48.1-.4-48.1 23.4-.6c25.2-.6 35.6-2.2 49.3-7.2 20.3-7.6 35-22.1 41.7-41.4 2.9-8.2 3.1-9.3 3.1-24.6 0-14.7-.2-16.6-2.6-23.4-8-22.5-24.2-35.5-52.7-42.3-7.9-1.9-12.4-2.1-65.7-2.5l-57.3-.5v3.6zm113 6.7c21.1 7.3 29.6 22.1 30.7 53.9.6 17.8-.5 28.8-4.2 39.3-4.9 14.1-12.9 22.3-27.3 28-7.5 2.9-8.2 3-29.5 3.5l-21.8.5.3-57.4.3-57.4 2.3-4.7c1.7-3.4 3.4-5.2 6.5-6.8 3.9-2 5.3-2.1 20.2-1.7 13.1.4 17.2.9 22.5 2.8z"/></svg>
