<svg version="1.0" xmlns="http://www.w3.org/2000/svg" width="682.667" height="682.667" viewBox="0 0 512 512"><path d="M177.9 61c-1.9 2.8-6.9 8.5-11 12.8-4.1 4.2-8.5 9-9.6 10.5l-2.1 2.8-3.2-5.9c-3-5.6-14.3-19.2-16-19.2-.4 0-.7.8-.6 1.7.6 3.7-4.1 11.9-11.6 20.6l-3.3 3.7-6-2.3c-11.4-4.5-24.6-6.2-32.6-4.3-6.3 1.4-14.9 6-14.9 7.9 0 .7 1.2 2.5 2.6 4.2 4.2 4.8 6.5 10.3 7 16.4.8 10.1 2.9 22.6 4.4 26.6.9 2.4.8 2.5-3.3 2.6-17 .5-27.6 4.2-40.2 14-8.9 7-14.8 14.3-20.9 26.4-3.8 7.4-12 31.4-11.1 32.3.3.3.6.3.8.1.2-.2 1.6-2.1 3.2-4.2 5.3-7.1 14.2-9.7 25-7.1 2.8.6 10.2 3.4 16.5 6.2 6.3 2.8 14.1 5.8 17.3 6.7 5.2 1.5 7 2.8 4.9 3.7-1.6.6-8.1 10.3-10.2 15.3-1.1 2.6-2.5 6.9-3.1 9.4-.6 2.5-1.3 5.5-1.6 6.6-.9 3.5-1.2 29.2-.3 33.2.5 2.1 1.1 5.4 1.3 7.3.6 3.8 2.6 13.7 3.2 15.8.3.8 1.8-.3 4-2.7 3.3-3.7 10.3-7.7 14.9-8.7 1.2-.3 7.3-1.1 13.6-1.9 9.9-1.3 20.1-3.4 24.7-5.2.9-.3 1.3.4 1.3 2.1 0 2.2-.4 2.6-2.2 2.2-1.3-.3-3.2-.6-4.3-.7-4.6-.3-5.2 0-4.9 2.8.4 3.9-1.2 9.8-4.9 17.1-3 5.8-3.4 6.2-5.7 5.5-1.4-.4-6.1-.8-10.5-.8-6.2.1-8.9.6-12.2 2.3l-4.2 2.2 2.3 4.2c3.3 6.2 3.8 9 4.1 21.6.2 8.8 0 11.2-1 11.2-.8 0-5.5 2-10.5 4.4-9.7 4.7-11.9 4.9-17.6 1.1-2.4-1.6-2.4-1.5-1.9 1.6 1.3 7.2 7.8 16.3 21.5 29.9 8.7 8.7 17.7 14.7 25.6 17l4.2 1.2-2.5 4.7c-1.7 3.3-2.5 6.8-2.8 11.7-.3 6.8.9 16.1 2.4 17.7.5.4 2-1 3.4-3.2 3.8-5.7 6.6-7 18.6-8.7 2.5-.3 5.7-.8 7.1-1 1.4-.3 3.7-.7 5.2-.9 3.8-.6 8-2.9 11.4-6.4l3-3.1 2.9 3.9c4.9 6.4 8.5 8.2 30 15.1 3.9 1.2 8 3.1 9.2 4.2 2 1.9 2.1 1.9 2.7.1 1.4-4.5-.4-14.7-3.8-21.4l-3.4-6.9 5.7-.2c6.7-.1 6.4-.1 12.1-1.8 2.5-.8 5.7-2.2 7.2-3.2 1.4-1 3-1.8 3.5-1.8 1 0 8.5-6.3 13.5-11.4 2.1-2.1 6.3-7.8 9.4-12.7l5.7-8.9h22.1l-6 3.9c-16.8 11.1-28.4 28.7-32.9 50-1.7 8.2-3 23.1-2 23.1.4 0 2-.9 3.6-2 3.7-2.7 12.9-3.3 21.1-1.4 10.4 2.5 13.8 2.8 25.3 2.9 13.1 0 20.3-.9 29.3-3.7 14.3-4.4 23.8-9.8 32.6-18.5l4.9-4.8 9.2 9c9.4 9.1 12.8 14.5 11.8 18.6l-.6 2.2 3.3-1.9c9.8-5.5 22-21.8 23.5-31.3.4-2 .8-4.6 1.1-5.9l.4-2.2 3.8 1.9c4.2 2.1 12.3 4.8 16.5 5.5 1.5.3 3.5.7 4.5 1 5.1 1.5 21.7 2.2 29.7 1.1 14.6-2 24.8-6.7 33-15.4 20.4-21.7 26.4-26.6 35.3-29 2.3-.6 2.2-.8-2.9-7.6-5.9-7.9-11.3-13.3-17.9-17.8-5-3.5-15-7.8-16.2-7.1-1.7 1-.7-1.6 1.6-4.3 4.7-5.7 7.8-13.6 12.2-31.1 2.9-11.7 7.9-23.2 11.9-27.4 2.3-2.5 2.4-2.8.8-3.7-2.9-1.5-10-2.3-23.3-2.6-16.6-.4-26.4 2-38.3 9.3l-3.3 2.1-1.9-7.7c-1-4.2-2.6-9.6-3.6-12-2.2-5.1-21-35.2-22-35.2-.4 0-1.9 1.7-3.5 3.7-1.5 2.1-6.4 7.3-10.8 11.6l-8 7.9-1-2.9c-.5-1.5-2.1-4.6-3.7-6.9-2.8-4.2-11.5-12.4-13-12.4-.5 0-.9-3.5-.9-7.9 0-7.7 0-7.9 2.5-7.9 4.7 0 11.6-2.5 14.5-5.2l3-2.8 2.9 3.3c3.6 4.1 8.4 6.6 18.1 9.5 4.1 1.2 8.9 3 10.7 4 1.8 1.1 3.4 1.6 3.6 1.2 1.2-2.1-.4-11.8-2.6-16.4-1.5-2.9-2.5-5.4-2.3-5.6.2-.1 2.6-.5 5.2-.6 13.5-1 24.4-8.8 34.8-24.9 5.9-9.2 9.9-13 16.4-15.9 2.3-1 4.2-2.3 4.2-2.8s-1.9-3-4.2-5.4c-5-5.2-12.1-7.7-21.7-7.7-3.4 0-6.1-.2-6.1-.4s.5-1.6 1.1-3.2c.6-1.5 1.2-9.6 1.3-17.8.2-8.3.6-16 1.1-17.3.7-2 .4-2.2-3.3-2.2-5.5 0-15.4 3.7-22.4 8.4l-5.7 3.7-3.8-4.1c-3.8-4.3-8.9-11.2-9.5-13.2-.8-2.3-11.8 2.1-16.8 6.8l-4.8 4.5-3.8-2.6c-4.4-3-13.3-5.8-17.1-5.3-2.4.3-2.7.7-3 4.6-.1 2.4-1.5 6.9-3.1 10-2.3 4.5-3.4 5.6-4.8 5.2-7.2-1.9-21.3.7-20.7 3.8.2.8-1.5 1.2-5.2 1.2-3 0-5.5-.4-5.5-.8 0-2-11.3-12-16.3-14.5-10.8-5.5-21.7-5.5-33.6 0-3.6 1.7-5.5 2.2-6 1.5-.5-.8-2-.7-5.3.3-2.5.7-4.8 1.1-5.1.9-.3-.3-.1-2.3.4-4.6 1.7-7.3.3-14.8-4.6-23.8-2.7-5.2-3.6-8.4-4.2-15.8l-.5-5.3-5.6.6c-10.7 1.2-21.5 5.3-28.5 10.8-3.7 2.9-3.8 2.9-5.9 1.1-6.8-5.9-15.1-16-18.4-22.6-1.3-2.6-2.6-4.8-2.7-4.8-.2 0-1.9 2.3-3.8 5zm1.5 14.2l-.3 8.3 1.3-6 1.2-6 2.2 8.5c2.1 8.4 2.1 8.4 1.5 2.5-.3-3.3-1-7-1.4-8.3-1.5-3.9-1-4.9.9-1.7 2.5 4.1 8.1 18.8 9.5 24.7.7 2.6 1.5 4.8 1.9 4.8.4 0-.2-3.3-1.4-7.3-1.1-3.9-2.1-7.7-2.2-8.2-.1-.6-1-2.8-1.9-4.9-1-2.2-1.5-4.1-1.3-4.3.2-.2 2.2 1.3 4.4 3.4 2.2 2.1 5.6 5.3 7.6 7.1 7.6 7.1 11.6 18 11 30.6-.3 6.5-2.1 10.6-4.6 10.6-.5 0-1.8.9-3 2-1.7 1.5-3.6 2-8 2-5.5 0-6.3-.5-5.9-3.2 0-.4-1.1-4-2.5-7.9-2.6-7.1-3.3-15.7-2-21.9 2.2-9.8 2.1-10-1.9-7.4-2 1.3-4.2 1.5-11.7 1.1-5.1-.3-10.8-.6-12.6-.6l-3.3-.1 1.6-2.9c.8-1.6 3.8-5.3 6.6-8.3 5-5.2 5-5.2 3-1.4-2.6 4.7-5.2 10.6-4.6 10.6.3 0 1.4-1.9 2.6-4.3 2-3.9 12.7-19.7 13.3-19.7.2 0 .2 3.7 0 8.2zm-30.4 9c1.6 3.4 3 6.8 3 7.5 0 .7-2.7 2-6 2.9-3.3.9-6.3 2.1-6.6 2.5-1.5 2.6-1.9.3-.8-4.3.8-2.9 1.4-8.2 1.5-11.8l.1-6.5 1.4 4.4c.7 2.4 1.6 4.6 1.8 4.9.6.6.1-4.1-.9-8.3l-.8-3 2.2 2.7c1.1 1.4 3.4 5.5 5.1 9zm79.9-4.5c-1.8 2.1-3.6 4-3.9 4.3-2 1.9-9.7 18-8.6 18 .2 0 1.8-3 3.6-6.7 3-6.1 11.7-16.9 12.7-15.9.2.2-1 2.9-2.7 6-1.7 3-3.1 5.8-3 6.1.1.3-.6 3-1.5 6.1-.9 3.1-1.4 6.3-1.2 7.2.4 1.3.5 1.2.6-.3.2-3 4.8-15.4 7.1-18.9l2.1-3.1-.6 5.4c-.3 3-.8 5.8-1.1 6.3-.3.4 0 .8.5.8.6 0 1.1-.6 1.2-1.3 0-.6.2-2.1.4-3.2.3-1.1.7-3.9 1-6.3.5-4.7 3.4-10.1 3.6-6.9.1.9.2 2 .3 2.4.1.5.5 2.6 1 4.7.4 2.2 2.4 7.1 4.4 11 3.2 6.3 3.6 7.9 3.6 14.8 0 4.5-.5 8.2-1.2 9.1-.8.9-4.2 1.6-9.9 2-4.9.4-10.4 1.1-12.3 1.6-1.9.5-4.7 1.2-6.1 1.5l-2.6.6.1-11c.1-8.5-.2-11.1-1.3-11.5-.8-.3-1.1-.8-.7-1.2.3-.3-1-3.5-2.9-6.9l-3.4-6.3 3.1-2.6c4-3.3 8-5.4 14.8-7.6 3-1 5.7-1.8 5.9-1.8.3-.1-1.1 1.6-3 3.6zm-92.7 3.5c0 1.8-.3 4.6-.6 6.3-.2 1.6-.8 5-1.1 7.4-.4 2.4-1.4 5.5-2.2 6.8-.9 1.4-2.4 4.8-3.3 7.6-.9 2.9-2.1 5.2-2.6 5.2-3.2.2-9.4 2-12.6 3.6L110 122l.6-3.7c1.2-7.9 8.4-24 11.5-25.9 1.3-.8-.4 2.7-3.4 6.9-1 1.6-1.6 3.1-1.3 3.4.3.4.6.2.6-.3 0-.6.9-1.9 1.9-3.1 1.1-1.1 3.4-4.7 5.2-7.9 1.8-3.3 4.3-7.2 5.6-8.7 3.1-3.9 3-1.6-.7 9.3-1.5 4.7-2.7 8.6-2.5 8.8.4.5 6.5-15.5 7.2-18.9.7-3.7 1.5-3.1 1.5 1.3zm-37.7 2.2c4.3.7 15.2 4.1 17.3 5.5 1 .6.6 2.2-2.1 7.2-4.7 8.7-7.4 17.3-7.6 24.1-.1 1.5-1.4 4.2-3 6-3 3.5-6.2 9-7.2 12.3-.5 1.7-.9 1.4-2.7-2.2-1.2-2.2-2.4-5.9-2.8-8.2-.4-2.2-1-3.8-1.4-3.6-1 .6.3 6.5 3.1 14.6 1.2 3.3 1.9 6.3 1.6 6.5-.3.3-1.7-.7-3.2-2.2-4.9-4.9-8.1-15-9.1-28.4-.6-9.7-.9-11.8-1.9-14.3-.4-.9-.5-1.7-.1-1.7.7 0 7.6 9.4 10.9 15 3.7 6.3 3.4 3.9-.4-2.9-3.6-6.4-9-14.2-12.8-18.5-6.2-7 9.4 3.2 20.2 13.2 4 3.7 6.1 5.3 4.7 3.7-4.4-5.4-13.4-13.5-19-17.3-3-2-5.9-3.9-6.4-4.3-1.6-1.3 13.7-.7 17.1.7 1.8.8 3.3 1.2 3.3.9 0-.6-4-2.3-7.5-3.2-1.1-.3-4.4-.6-7.2-.6-5.7-.1-5.8-1.5-.2-2.4 1.9-.3 3.5-.6 3.7-.7.4-.4 8.4.1 12.7.8zm70.5 12c0 .2-3 1.8-6.7 3.6-3.8 1.8-7 3.6-7.3 4-.3.3-2 1.2-3.8 1.9-1.8.8-3.5 1.7-3.8 2.2-.7 1.2 1.9.1 9.3-3.7 6.4-3.3 14-6.1 19-7 2.4-.4 2.6-.3 1.2.8-3.3 2.6-9.7 12.6-12.9 19.8-1.8 4.1-3.5 7.7-3.7 8-1 1.1 1.1-5.7 2.8-9.2 2.4-4.8 2.4-4.9-.6-3.8-1.3.5-8.1.9-15 .9s-13 .3-13.5.6c-1.8 1.1-2-1.5-.5-5.2 2.8-6.7 7.2-10.3 15-12.3 3-.8 20.5-1.3 20.5-.6zm11.5 4.3c-1.5 5.9-1.7 7-2.2 13.8-.7 8.2.2 8.6 1 .5.3-3.1 1-6.7 1.6-8 .9-2.2 1-1.9 1 2.2.1 2.7.1 4.9.1 5 0 .2 1.1 3.6 2.5 7.7s2.5 8 2.5 8.8c0 1-3 1.3-13.5 1.3-7.4 0-13.5-.2-13.5-.3 0-3 6.6-17.5 10-22 2.3-3.1 10.2-11.7 10.7-11.7.3 0 .2 1.2-.2 2.7zm216.9 10c-.3 1.5-.7 2.9-.9 3.3-.2.4-.6 2.9-.9 5.6-.5 4.2-.4 4.4.4 1.9 1.1-3.1 1.2-3.6 2.5-9.3 1.2-5.2 2-4.5 2.1 2.1.2 7 1.7 13.3 3.8 16.2 1 1.4.9.4-.4-3.5-1.1-3-1.9-8-1.9-11v-5.5l2.8 6c1.5 3.3 3.6 7.9 4.6 10.2 1 2.4 2.3 4.3 2.7 4.3.4 0 .4-.8-.2-1.8-.5-.9-2.1-4.3-3.5-7.6-2-4.8-2.2-5.6-.7-4.5 8.6 6.8 10.5 20.1 4.6 32.4-3.7 7.7-3.4 7.4-5.3 4.6-.9-1.4-3.1-3.8-4.8-5.5-1.9-1.6-3.3-3.9-3.3-5.2 0-5.5-5.8-12.7-13.1-16.4-4.9-2.6-5.3-3.3-3.3-7.1 1.6-3.2 9.1-10.9 10.5-10.9.5 0-.1 1.6-1.3 3.5-1.1 2-1.8 3.9-1.4 4.2.3.4.6.1.6-.5 0-1 5.7-8.2 6.5-8.2.2 0 .1 1.2-.1 2.7zm-21.7 4.9c3.6 2.7 3.8 3.1 2.3 5.4-.7 1.2-1.2 1.2-2.1.3-1.3-1.3-3.9 0-3.9 1.9 0 .5-1.3 2.8-3 5.1l-3 4.2-6.4-.3-6.4-.4 2-4.6c2.7-6.3 4.2-7.6 3.6-3.4-.3 1.8-.2 3.5.2 3.7.4.2.8-1.7.8-4.3.2-4.4.7-9.1 1.1-10.2.5-1.1 2 3.6 2 6.2.1 1.6.5 2.8 1 2.8 1 0 .7-4.5-.4-8.1-1.1-3.4 1.3-2 5 2.7 4 5.3 4.8 4.7 1-.8-1.4-2-2.5-3.9-2.5-4.2 0-1 5.5 1.5 8.7 4zm60.9-1.1c-2.3 1.8-1.4 2 1.6.4 2.1-1.2 2-.3-.7 3.1-.6.8-1.6 2.8-2.3 4.5-.9 2.4-.9 2.6.1 1.1 4.2-6.3 4.7-6.3 2.7.1-1.9 6.3-2.8 10.2-2.9 13.7-.1 1.5-1.4.6-5.4-3.7-2.9-3.2-5.6-5.7-5.8-5.7-.3 0-1.1 2.5-1.8 5.5-1.5 6.5-2.8 7.9-2.8 2.7.1-2-.3-5.6-.7-7.9-.7-4.1-.7-4.1 3.9-7.3 3.9-2.7 14-7.8 15.5-7.9.3 0-.4.6-1.4 1.4zm-142.4 3c3.4 1 12.7 6.7 13.2 8.1.3.9-.4 1-3.1.2-5.9-1.6-13.3-2.5-13.3-1.7 0 .5.8.9 1.8 1 4.8.2 15.3 3.1 19.2 5.4 2.2 1.3-.4 1.4-24.2 1.5H261v-3c0-6.2 14.4-13 26.2-12.4 2.6.1 5.7.5 7 .9zm-162.4 3.6c-4.7 1.8-9.3 4.5-12 7l-4.3 4 5.3-3.9c5.8-4.2 13.3-7.1 22.7-8.7 2.2-.4 4.3-.9 4.8-1.2.4-.2.7 0 .7.6s-1.2 1.7-2.7 2.5c-1.6.8-5 3.5-7.8 6-4.8 4.4-5.3 4.5-11.2 4.6H121v32c0 17.6-.3 32-.7 32-1.8 0-7.6-5.6-9.4-9.2-1.6-3.2-2-5.5-1.7-10.9.3-7.6-.8-8.1-1.4-.7-.2 2.6-.6 5-.9 5.3-.3.2-2.4-2.6-4.7-6.4-3.8-6.4-6-13.8-5.6-18.6 1.9-19.6 10.3-31 26.5-35.3 3.5-.9 8.7-1.8 11.4-1.9l5-.2-7.7 3zm17.6 4.9c-4.5 5.8-4.9 6-9.3 6h-4.6l3.5-3.1c3.6-3.1 12.8-8.9 14.3-8.9.5 0-1.3 2.7-3.9 6zm7.7-3.8c-.5 1.3-.7 4-.6 6 .3 3.4 0 3.8-2.1 3.8H152l2.1-5.2c2.2-5.6 2.8-6.8 3.4-6.8.3 0 .1 1-.4 2.2zm286 8.4c0 13.6-2.9 24.5-4.5 16.6-.8-4.1.4-17 2-21.2.1-.3.5-1.5.9-2.8 1.2-3.7 1.6-2 1.6 7.4zm-194.6-3.1c-4.9 4.3-5.2 4.5-11.7 4.5-3.8 0-6.8-.2-6.8-.5 0-1.3 18.6-8.5 22-8.4.8 0-.7 2-3.5 4.4zm-8.9-2.6c-.3.5-1.8 1.2-3.2 1.5-1.5.4-4.3 1.8-6.3 3.2-3.2 2.1-4.6 2.4-12.6 2.3l-9-.1 5-2.2c4.6-2.1 7.8-3 16-4.3 1.7-.3 3.1-.6 3.3-.7.7-.7 7.2-.4 6.8.3zm13.6 4.1c-1.2 2.1-2.4 3-4.2 3-2.5-.1-2.4-.1 1-3 4.4-3.8 5.4-3.8 3.2 0zm-101.9.8c-.3 1.4-1.3 2.2-2.6 2.2-2 0-2-.1.3-2.5 2.7-2.9 3.2-2.8 2.3.3zm105.7-.3c0 1.6-.6 2.5-1.5 2.5-1.8 0-1.9-.4-.3-3 1.6-2.6 1.8-2.5 1.8.5zm123.9 3.5c1.7 2.8 2.7 5 2.3 5-.4 0-1.3 2.3-2 5.2-.6 2.9-1.6 5.6-2 6-1.1 1.1-14-5.3-14.1-6.9-.1-1.8 3.1-8.3 4.1-8.3.5 0 .6.4.3 1-.3.5-.2 1 .3 1s1.5-1.9 2.3-4.3l1.4-4.2 1.2 6.5 1.2 6.5-.3-5.5c-.5-9.5.5-9.9 5.3-2zm2.4-3.9c4.6 2.4 10.5 8 11.5 10.9 1.3 3.7 1 3.7-5.2.2-3.5-1.9-5.8-4.1-7.8-7.5-2.8-4.8-2.4-5.6 1.5-3.6zm-34 1.8c.8.8-.7 1.1-5 1.1-7.2 0-10.2-.8-8.1-2.2 1.6-1.1 11.7-.3 13.1 1.1zm77.1 9.2c.3 1.9.5 7.2.5 11.8.1 4.6.3 8.2.6 7.9.8-.8.8-20.4.1-21.7-.4-.6-.3-1.1.3-1.1s1.5.9 2.1 2.1c1.2 2.1 1.6 3.5 3 10.2 1.1 5.4 2 5.8 1.4.6-.6-5.2 1.1-4.3 2.1 1.1.9 4.6.7 8.9-.5 10.9-.8 1.4-1 1.3-1.1-.7-.2-2.6-.2-2.6-1.9-7-1.7-4.6-2.2-3.5-.7 1.8 3.1 10.9-1.5 23.2-9.5 25.7l-3.5 1 2.3-4.1c3.9-6.7 2.7-6.6-1.7.2-2.2 3.4-4.2 6.2-4.4 6.2-.6 0 .3-7.2 1.5-11 1.3-4.6 1.2-5.2-.5-1.5-.8 1.6-1.5 2.5-1.5 2-.1-.6-.3-1.9-.4-3-.1-1.1-.8-3.7-1.5-5.7-2.2-6.7-.3-12.5 6.5-19.8l3.3-3.4-1 4.3c-.5 2.4-.8 4.6-.5 4.8.3.4 1.6-4.6 3.1-12.5.8-4 1.3-3.7 1.9.9zm-68.3-2.2c1.5.1 1.7 9.6 1.7 116.6v116.4l-116.9.1H126V139.1l2.8-.3c2.2-.2 224.2-.2 229.3.1zm-272.9 7c1.3 1.5 3.6 3.6 5.1 4.6 2.2 1.4 2.7 2.5 2.7 5.6 0 2.2-.1 3.9-.3 3.9-.1 0-1.8-.4-3.7-1-3-.9-7.6-1.5-18-2.4-1.4-.1-3.6.1-5 .4-1.6.4 0 .7 4.3.8 3.8.1 7.2.4 7.5.6.4.2 2.4.7 4.5 1 5.9.9 11 3.8 11.4 6.4.2 1.3 1 3.6 1.8 5.1.8 1.6 1.2 3.1.9 3.3-.2.3-3.6 0-7.4-.7-3.8-.7-6.7-.9-6.5-.4.5.6 5.1 1.9 13.2 3.4 2.2.4 3.8 1.7 5.2 4.1l2 3.4-4.7.1H87.3c-3.5.1-6.3.5-6.3 1s1.7.9 3.8.8c2-.1 7.3-.2 11.7-.1 8.8.2 7.9-.3 18 10.1 2.2 2.3 4.6 4.1 5.3 4.1.8 0 1.2.9 1 2.2-.3 2.4-1.7 2.7-12.5 2.9-3.5.1-6.3.5-6.3.9s4.3.6 9.5.5l9.5-.2v2.7c0 2.4-.5 2.9-3.7 3.5-2.1.4-4.9.9-6.3 1.2-1.4.3-5.4.6-9 .8-8.4.3-12.1-1.9-29-17.2-10-9-21.8-15.2-30.2-15.7-6.2-.4-14.3 2-19.7 6l-3.6 2.7 3-3.2c3.8-4.1 17.6-13.4 23.3-15.6 2.4-1 4.1-2 3.8-2.2-1.1-1.1-23.7 11.3-26.6 14.6-.3.3-2 1.9-3.8 3.6l-3.4 3 1.3-3c5-11.3 11.8-21.3 19.7-28.6 8.9-8.2 17.6-12.8 27.7-14.6 1.7-.3 3.2-.7 3.4-.9.2-.2 3.7-.4 7.7-.4 6.7 0 7.4.2 9.6 2.9zm302.5 2.3c1.9 3.7 1.7 3.1 3.9 11.8 1.7 7 3 9.6 1.9 4-.3-1.9-.7-4.2-.9-5-.8-4.6-2-8.8-3.2-11.3-3.3-6.4 2.4-.4 6.7 7 1.6 2.9 3.8 7.6 4.9 10.5 1 2.9 1.9 4.8 1.9 4.2.2-1.9-3.7-12.1-6.3-16.8-1.4-2.5-2.2-4.6-1.7-4.6 1.4 0 8.9 7.7 11.5 11.8 5.2 8.2 7.2 22.4 4.2 29.6-1.3 3.1-5.9 7.6-7.7 7.6-.5 0-.3-1.5.4-3.3.8-1.7 1.7-5 2-7.2.6-3.8.5-3.7-1.2 1.2-2.5 7.3-4.7 10.3-7.5 10.3-2.2 0-2.3-.3-1.9-4.8l.4-4.7-1.7 3c-2.2 4-4.9 6.5-7 6.5-1.5 0-1.5-.3.3-2.3 1.2-1.2 2.6-4 3.2-6.2 1.5-5.7 1.2-7.9-.4-2.7-1.7 5.4-4.1 9.2-6 9.2-1.7 0-1.9-.9-.5-4.4.5-1.4.5-2.8.1-3.1-.5-.2-1.2 1.1-1.5 3-.9 4.9-2.5 5.4-5.6 1.7-2.9-3.5-3.1-4.1-3.1-12.2-.1-8.3 8.9-33 12-33 .8 0 1.1-.6.7-1.5-1-2.7.3-1.6 2.1 1.7zm-14.2 4.2l3 2.4-1.8 4.9c-2.5 6.4-5.7 19.1-5.7 22.5 0 2.1-.4 2.5-2 2.1-1.9-.5-2-1.4-1.9-18.3l.1-17.8 2.6.9c1.5.5 4.1 2 5.7 3.3zm84.4 2.4c1 .4-.3 1.1-3.4 1.8l-5 1.1 7.7-.1c4.2-.1 8.1.3 8.7.9.7.7-1.2 1-5.7 1-6.8 0-14.6 2.9-17.5 6.4-.7.8.7.2 3-1.2 2.3-1.5 6-3.1 8.1-3.6 4.9-1 14.1-.6 15.5.8.7.7.4.9-1.1.6-2.5-.4-10.5 1.6-14.8 3.8-3.1 1.6-12.1 8.7-11 8.7.3 0 2.7-1.5 5.3-3.4 2.7-1.8 6.4-4.1 8.3-4.9 3.3-1.6 11-3 11-2.1 0 .2-2.1 1.4-4.6 2.5-2.5 1.2-7 4.4-9.9 7.1-5.7 5.2-8.7 6.5-17.2 7.4l-5.3.5 2.1-4.3c1.2-2.4 2.8-5.4 3.6-6.8 2.7-4.7 4.1-8.5 4.5-11.8.2-1.8.9-3.7 1.6-4.1 1.5-.9 14-1.1 16.1-.3zm-.4 18.6c-2.1 2.8-8.5 6.6-8.5 5.1 0-.4 10.2-8.5 10.8-8.5.2 0-.9 1.5-2.3 3.4zm-7.3 11c-4 6.8-13.1 14.8-19.7 17.4-2.4.9-2.6.9-1.1-.1 1-.6 2.9-2.1 4-3.2 1.2-1.1 1.5-1.5.6-.8-3.2 2.5-13.2 6.5-16.9 6.8-5.8.4-7-1.1-1.4-1.9 2.6-.3 5.5-1.1 6.3-1.7 1.1-.8.4-.9-2.5-.3-4.1.7-12.5.8-13.2 0-.2-.2 2-2.9 4.9-5.9 6.7-7 11.9-9.3 22.8-10 4.7-.3 10.5-1.2 13-2s4.7-1.5 4.8-1.6c.2-.1-.5 1.4-1.6 3.3zm-397.1 4.1c5 2.4 16.6 10.4 21.2 14.6.9.8 4.2 3.3 7.2 5.5 3 2.1 5.5 4.3 5.5 4.7 0 .5-.5.5-1 .2-.6-.4-2.3-.8-3.8-1-8.5-1.1-18-4.2-32.1-10.4-10-4.5-19.9-7.2-23.4-6.6-1.4.3-1.7.1-1-.6.6-.6 2.9-1 5.2-1.1 2.2 0 4.1-.4 4.1-.9 0-1-9.9-.3-13.4 1-3.8 1.5-3.2.6 2-3 9.6-6.5 19.5-7.4 29.5-2.4zm314.3-.9c2.3.9 2 2.4-.4 2.4-1.1 0-2-.7-2-1.5 0-1.7.2-1.8 2.4-.9zm3.6 3.8c0 .2.3 1.1.6 2 .5 1.3-.1 1.6-3 1.6s-3.6-.4-3.6-2 .7-2 3-2c1.7 0 3 .2 3 .4zm-2 6.6c-2 1.3-4 1.3-4 0 0-.6 1.2-1 2.8-1 2.1 0 2.4.2 1.2 1zm4 4c-1.9 1.6-3.9 3-4.4 3-.5 0-.7.3-.4.6.8.7 6.1-2 7.7-4 1.4-1.7 5.1-2.2 5.1-.7 0 1.3-4.9 5.1-6.6 5.1-.7 0-1.5.4-1.9.9-.3.6.6.6 2.3.1 3.9-1.1 7.2-2.9 7.2-3.9 0-.5.7-1.1 1.5-1.5 1.2-.4 1.4.1 1 2.7-.3 1.8-1.2 3.8-2 4.6-1.6 1.7-7.6 2.7-13.2 2.3-4.2-.3-4.3-.4-4.3-4.1 0-3.5.3-3.9 4.8-5.9 6.5-2.9 7.3-2.7 3.2.8zm26.7.5c1.1 0 1.9.4 1.5.9-.3.5.2.6 1.2.3 1-.4 1.5-.3 1.1.3-.3.6.3 1 1.4 1 2.7 0 7.7 5.3 10.1 10.8 2.5 5.6 2.5 6-.2 3.6-3.2-2.9-7.8-5.6-7.8-4.7 0 .5 1.6 1.8 3.6 3.1 4.3 2.8 3.9 4-.5 1.7-1.8-.9-6-2.5-9.6-3.6-5-1.5-7.2-2.8-9.8-6-2.3-2.6-3.3-4.7-3-6 .3-1 .7-1.9 1-1.9.2 0 2.1 1.7 4.2 3.7 2.1 2.1 5.4 4.6 7.2 5.6l3.4 1.9-3.4-2.8c-5.6-4.6-8.2-7.5-7.5-8.5.3-.5 1.5-.6 2.7-.2 1.2.4 3.2.7 4.4.8zm-24.5 12.7c-.4.4-2.9 1.1-5.5 1.4-3.8.6-4.7.4-4.7-.9 0-1.2 1.2-1.5 5.4-1.3 3 0 5.2.4 4.8.8zM121 239.3v23.2l-17.1 8.5c-9.5 4.7-21.5 11.3-26.7 14.7-5.3 3.5-9.7 6.1-9.9 6-.8-.8 9.2-16 14.3-21.7 4.1-4.5 4.7-5.5 2.1-3.3-2 1.8-5.2 5-7 7-1.7 2.1-3.5 3.9-3.9 4.1-.5.2-.8.9-.8 1.5-.1.7-1.2 2.5-2.6 4.2l-2.5 3 .7-4c.8-5.1 6.3-21.7 7.5-23 1.1-1.1 1.2-2.5.1-2.5-1.8 0-9.3 21.5-10.6 30.4-.6 3.9-1.5 2.1-2.3-4.6-1.6-12.1-.8-31.2 1.7-39.8 2.6-9.1 6.9-17.5 11.7-22.5l3.5-3.7 8.1.8c4.5.4 11.8.7 16.1.5l7.9-.2-2.4 2.2c-1.8 1.6-1.2 1.4 2.8-.8 9.8-5.4 9.2-6.6 9.3 20zm250.1 6.4c7.6 7.1 10.9 14.4 8.2 18.2-1.9 2.8-2.9 2.6-5-.9-2.1-3.6-2.7-3.7-5.5-.5-1.2 1.4-2.5 2.5-3 2.5-.4 0-.8-3.9-.8-8.7 0-9.3 1.3-10.4 2.9-2.2.7 3.5.9 3.8.9 1.4.1-1.7-.6-4.8-1.4-7-3.5-9.2-3.3-9.4 3.7-2.8zm34.3 11c-.1 8.2-.9 18.8-2 25.8-.4 2.7-.3 2.8.6.7.5-1.2 1.2-4.4 1.5-7 .3-2.6.7-5.6.9-6.7.3-1.1.5-4.5.5-7.5.1-3 .5-5 .9-4.5 1.4 1.5 4.3 19.9 4.9 30.5.3 5.2.8 9.7 1 10 .3.3.3-5.4 0-12.5-.6-11.9-1.9-21.6-4.6-33.5-.5-2.4-.8-4.6-.7-4.8.6-.5 14.3 22.3 15.9 26.6 4.7 12.1 6.6 31.8 4 43-.6 3-1.3 5.5-1.5 5.6-2.5 1.7-16.4 13.2-16.6 13.8-.7 1.5-3.2.8-3.2-1 0-.9-1.6-5.3-3.5-9.7-2.8-6.3-3.5-9.1-3.4-14 .1-6.7-1.3-13.1-4.3-19-1.9-3.7-6.4-10.3-7.9-11.5-.3-.3-2.2-2.7-4.2-5.3l-3.7-4.8 2.9-4.3c3-4.3 11.2-12.8 11.9-12.2.1.2-.5 1.9-1.6 3.7-2.4 4.5-3.3 6.9-2.4 6.9.4 0 1.5-1.7 2.6-3.8 3.2-6.6 11-16.4 11.6-14.8.3.9.5 5.5.4 10.3zM121 274c0 6.6-.1 7-2.7 8.4-3.7 1.8-15.2 4.3-23.8 5.1-3.8.4-7.8.9-9 1.1-1.1.2-3.3.6-5 1-2.9.5-2.8.4 1-2 2.2-1.4 4.5-2.6 5.2-2.6.6 0 1.3-.4 1.5-.9.2-.6 30.9-16.7 32.6-17 .1-.1.2 3 .2 6.9zm255.6 0c2.6 3.6 5 6.7 5.3 7 .3.3 2.5 3 4.8 6 5.1 6.7 8.3 14 8.9 20l.4 4.5-3.3-3.9c-5.1-6.4-13.1-14.3-12.4-12.4.7 2.1-3.1 7.2-10.1 13.4l-5.4 4.7.5-8.9c.2-4.9 1.2-11.6 2.2-14.9 1.8-6 2.2-8.5 2.4-13.8.1-1.8.5-2.6 1.2-2.1 1.2.7 7.4 13.5 8.2 16.9.2 1.1.3.2 0-2-.2-2.2-2.2-7.7-4.3-12.2-5.8-11.8-5.6-12.1 1.6-2.3zm-8.1-2.3c-.2 1-.6 4.9-.9 8.8-.3 3.8-1 8.6-1.5 10.5-.7 2.8-.9 1.4-1-6.8-.1-6.6.3-10.9 1.1-12.2 1.6-2.5 2.7-2.6 2.3-.3zM485 282.9c.8.1-2 2.1-6.2 4.5s-8.3 5-9.1 5.7c-.7.8-3.2 3-5.4 5s-4.4 4.3-4.8 5c-.7 1.2 3.7-2.3 7-5.6 3.7-3.6 18.9-11.9 20.7-11.3.6.2.3 1.1-.7 2.1-2.6 2.7-8 10.8-10.9 16.4-3 6.1-6.7 15.5-6.2 16.1.2.2 1.2-1.8 2.2-4.5 2.4-6.3 8.7-16.9 13-21.8 1.9-2.2 3.1-3.1 2.6-2-1.8 3.8-4.3 12-7.3 23.5-4.6 18.3-11.2 29.4-18.3 31-3.7.8-3.8.4-2.1-5.1 1.3-4 1.2-14.5-.2-20.3-1.4-6.3-6.2-16-9.4-19.5l-2-2.1-4.4 5.7c-2.4 3.2-5.6 7-7.2 8.6l-2.9 2.7.4-10.7c.4-9.4.7-11 2.6-12.6 3.6-3.2 11.5-6.7 19.4-8.8 10.4-2.6 12.9-2.5 7.1.5-2.6 1.3-6 3.6-7.5 5.1l-2.9 2.8 3.5-2.5c7.1-5.1 18.1-8.7 24.5-8.2 1.7.2 3.7.3 4.5.3zm-364 27.5c0 9.5-.3 11.5-2 14.1-1.2 1.6-2.7 4.5-3.5 6.2-.8 1.8-1.8 3.3-2.3 3.3-.4 0-2.1-1.3-3.7-3l-2.9-3-2.4 2.3-2.5 2.2.7-5c.8-5.3 7.3-20.5 8.8-20.5.5 0 .6.4.3 1-.3.5-.1 1 .4 1 1.1 0 1.4-1.5 1.4-8.3 0-2 .3-3.7.7-3.7.9 0 3 9.3 3.1 13.8 0 2.8.2 3.2.8 1.7.4-1 .7-2.8.5-4-.4-4-1.5-10-2-12-.6-1.8-.4-1.8 2 .4 2.5 2.4 2.6 2.8 2.6 13.5zm262.2 5.8c0 5.7-.5 12.9-1.1 16-.7 3.2-1.2 6-1.2 6.3 0 .2-.6 2.3-1.4 4.6-1.7 4.6-1.9 7.2-.6 4.9 2.5-4.1 6.4-23.8 6.5-32.8.1-2.7.3-3 1.3-1.6 2.8 3.8 5 29.6 3.2 36.6-.4 1.5-.4 3 0 3.2 1 .7 1.1-.1 1.6-14.4.2-6.9 0-14.8-.6-17.5-.5-2.8-1.1-6-1.4-7.2-.2-1.3-.6-2.7-1-3.3-.3-.5-.4-1-.1-1 1 0 8.2 11.4 10.8 17.1 6.3 13.6 7.7 29.3 3.9 43.5-4.6 16.7-16 31.2-26.5 33.8l-2.8.7 3.4-4.3c3.8-4.8 6.1-8.4 7.1-11.1 1.1-2.9-.7-1.9-2.1 1.2-1.9 4.4-11.7 15.1-13.7 15.1-1.3 0-3.1-8.4-2.7-12.5.4-5.1 1-9.2 1.6-12 .5-2.3.3-2.1-1 1-1.1 2.7-1.7 7-1.7 13.2 0 5.1-.4 9.3-.8 9.3-3.1 0-7.2-8.8-8.7-19-1.2-8.4-.9-9 4.9-9h4.9v-24.3c0-20.5.2-24.6 1.6-26.2 5.3-6.7 14.4-20.2 14.4-21.5 0-1 .3-1.1 1.1-.3.7.7 1.1 5.2 1.1 11.5zm67.3 3.2c.1 16.4-5.2 31.5-15.1 43.2-5.4 6.4-6.6 8.5-2.2 4.1 7.8-8 12.1-14.9 15.8-26 2.9-8.4 3.9-13.4 4-19.7.1-7 2.6 1.2 3.5 11.5 0 .5-.5 3.9-1.2 7.4-1.4 6.7-5.6 16-9.5 20.8-9.2 11.4-25.9 24.1-32.8 25l-4.1.6 3.9-3.9c2.1-2.1 4.6-5 5.5-6.4 3.2-4.7 1.7-4.1-3.2 1.2-2.7 2.9-7 6.8-9.5 8.7l-4.7 3.3 1.7-3.8c5.5-12.5 7.4-21.4 7-33.7l-.3-8.7 5.2-4.8c6.2-5.6 7-6.2 16-12.9 3.9-2.8 8.8-7.2 10.9-9.7 2.2-2.5 4.1-4.4 4.3-4.2.5.5-5.1 9.8-10.2 17-4.1 5.7-10.9 12.9-20 21.2-2.7 2.5-2 2.1 2.4-1.2 7.9-6.1 19.9-18.8 24.3-26 3.6-5.8 4.8-6.7 4.4-3.2-.9 7.8-5.6 19.2-10.4 25.6-1.4 1.8-2.2 3.5-2 3.8.8.7 7.5-9.6 10.3-15.9 3-6.5 4.3-12.2 4.1-18.1 0-2.7.3-4.5.9-4.3.6.2 1 4.2 1 9.1zm-76.9-6.2c-.9 1.3-3 4.4-4.7 7-1.7 2.7-3.3 4.8-3.5 4.8-.2 0-.4-1.5-.4-3.3.1-2.6 1-3.9 4.8-6.9 5.5-4.4 6-4.6 3.8-1.6zM96.7 319c2.9 1 3 1.3 2.3 5-.4 2.2-.6 5.8-.5 8.2.1 2.8-.7 6-2.3 9.1l-2.4 4.9-3-5.9c-1.7-3.2-3.9-7-4.9-8.5-2.1-2.9-2.4-4.3-.9-3.3 2 1.3.9-.5-2.2-3.5-3.5-3.3-1.7-3.3 3.2 0 1.4.9 3.4 2 4.5 2.3 1.9.6 1.9.6.1-.6-1-.7-3.4-2.4-5.3-4-2-1.5-4.1-2.7-4.7-2.8-.6 0-.2-.4.9-.9 2.8-1.2 11.7-1.2 15.2 0zm23.8 17.8c-.3.3-1 .1-1.5-.4-.7-.7-.6-2.2.2-4.5l1.3-3.4.3 3.9c.2 2.1.1 4.1-.3 4.4zm-12 2c.7 3.9 5.3 18 6.5 19.7.4.5 1.3 2.7 1.9 4.7.7 2.1 1.7 4.1 2.3 4.4.7.4.7 0 0-1.2-2-3.8-8.2-23.7-8.2-26.2 0-2.6.2-2.5 4.5 2.3 2.5 2.7 4.5 4.4 4.5 3.7 0-.6-.3-1.2-.7-1.2-.5 0-1.3-1.2-2-2.6-1-2.2-1-2.5.3-2 .9.3 2 .6 2.5.6s.9 7.7.9 18c0 17 .1 18 1.9 18 1.7 0 1.9.7 1.7 5.5 0 3-.2 5.5-.2 5.5-.1 0-1.8-.7-3.8-1.5-1.9-.8-5.5-1.8-7.8-2-4.5-.6-5.7-1.6-10.5-8.6-5.5-8-7.9-21.2-4.8-26.9 1.3-2.4 1.3-2.4 1 1.3-.2 2.2 0 4.9.5 6 .7 1.8.8 1.5.6-1.3-.5-5.1 1.1-14.1 2.9-15.9 1.3-1.4 1.5-1.3 1.6.9.1 1.6.4 1 1.1-1.8 1.1-4.9 2.5-4.7 3.3.6zm-21 4.1c3.1 6.3 3.7 8.6 5 18.5.6 5.5 2.4 10.4 5.2 14.9 1.4 2.2 2.3 4.1 2.1 4.3-.3.2-2-.8-3.9-2.1-8.1-6.1-13.1-18.4-13.4-33.7-.1-5.4.2-9.5.7-9.2.5.3 2.4 3.6 4.3 7.3zM479.7 355c3.4 1.7 8.3 5.1 11 7.6 5 4.7 5.1 4.7-2.2 2.8-4.4-1.1-7.3-1.4-13-1.4-7.5 0-14.5 1-14.5 2 0 .4 1.8.4 3.9-.1 5.7-1.3 17.6-.4 24.8 1.9 6 1.9 12.3 5.6 12.3 7.2 0 .4-3.3.8-7.2.8-6.9-.1-17.5.8-20.8 1.7-.8.3-3.3.7-5.5 1.1-6.2.9-22.1 5.2-25.7 6.9-1.8.8-2.4 1.3-1.3 1 6.3-1.9 16.7-4.5 21.5-5.4 8.5-1.6 10.5-1.9 18.8-2.7 7.8-.7 10.3-.8 15.7-.5 2.9.1 2.9.1.9 1.6-2 1.3-6.4 2.6-13.7 3.9-4 .7-18.9 5.6-20.7 6.8-1.2.7-1 .8.5.3 3.5-1.1 19.9-5.3 23.1-5.9 3.1-.5 2.9-.3-3.5 6.2-3.6 3.7-8 8.5-9.6 10.6-7 9.2-14.1 13.8-26.5 17.2-9.7 2.6-28.8 2.4-40.2-.4C395 415 378.2 407 384.3 407c.7 0 1.7.4 2.2.8 1.1.9 10 3.7 15 4.6 5.3 1.1 17.5 1.6 17.5.8 0-.4-2.1-.8-4.8-1-9.7-.5-27.2-5.2-27.2-7.3 0-2.3 10.7-4.1 25-4.1 4.4 0 5.7-.2 4-.7-1.4-.4-7.1-.7-12.7-.6-5.7.1-10.3-.1-10.3-.4 0-.9 6.7-5.3 11.4-7.4 5.4-2.5 17.8-3.3 24.7-1.7 3 .7 9.5 2.3 14.4 3.7 9.6 2.7 11.1 3 16.5 3.9 4.6.7 12.3.5 13.2-.4.4-.4-1.1-.6-3.3-.4-5.2.5-13-1-24.9-4.9-5.2-1.7-12.4-3.9-16-4.8l-6.5-1.7 6-4.1c5.7-3.9 7.8-5.5 13.5-10.7 4.4-4 8.7-9.2 11.1-13.5 2.8-4.9 5.7-6 14.4-5.5 4.1.3 7.9 1.3 12.2 3.4zm-398 9.5c2.1 6.2 7.1 13.7 10.8 16.5 1.9 1.4 3.5 2.8 3.5 3.2 0 .9-4 1.2-14.5 1-7.5-.1-17.3-3-19.7-5.9-.8-1 .5-.7 3.7 1 2.7 1.5 5.9 2.7 7 2.6 1.4 0 1.5-.2.5-.6-4.2-1.4-10.2-4.9-12.6-7.4-3.2-3.4-2.8-3.6 1.8-1 4.8 2.8 18.4 5.9 17.2 3.9-.3-.4-1.6-.8-2.8-.8-3.3 0-9.7-2.4-15.3-5.7l-4.7-2.7 2.9-.7c1.7-.3 6.2-2.2 10-4.2 8.6-4.6 10.4-4.4 12.2.8zm97.1 20.3c-.6 9.8-2.8 13.8-10.2 17.8-2.7 1.5-2.9 1.5-2.1-.2 2.2-5.4 4.3-12.3 4.8-15.8.8-4.8-.1-4.1-1.4 1.1-1.6 6.4-1.7 6.7-3.3 9.8-2.5 5-5.4 7.5-8.7 7.5-2.6 0-2.9-.2-1.9-1.9.5-1.1 1-3.9 1-6.3v-4.3l-1.9 4.1c-2.1 4.6-6.4 8.4-9.5 8.4l-2.1-.1 2-1.7c2.6-2.1 5.1-7.5 5.9-12.7.4-2.2 1-4.8 1.3-5.9.3-1.2.1-1.6-.6-1.2-.6.4-1.1 1.8-1.1 3.1 0 4.3-4 13.2-6.6 15-1.4.9-2.8 1.4-3.1 1.2-.2-.3 0-2.8.5-5.5.5-2.8.5-5.7.1-6.4-.8-1.1-1 .5-.9 4.7.1 1.3-3.2 6.5-4 6.5-.5 0-2.3-1.4-3.9-3-3.3-3.5-5.6-12.8-4.5-18.5l.6-3.5h50.1l-.5 7.8zm22.1-6c-2.5 3.2-6.2 6.2-7.9 6.2-.9 0-2.1.5-2.8 1.2-1.7 1.7-1.5-1 .3-4.2 1.9-3.3 1.9-4.6 0-3-.8.7-1.5 1.6-1.5 2.1 0 1.3-4.4 7.8-5.3 7.9-.9 0-.3-9.2.7-10.9.4-.5 4.5-1 9.2-1 8 0 8.5.1 7.3 1.7zm14.1-1.1c0 .3-.8 1.6-1.7 2.7-1 1.2-.4.9 1.2-.6 2.8-2.6 3.7-2.7 11.5-2.7 8.1.1 8.9.8 2.7 2.3-2.2.5-2.7.4-2.2-.6.4-.7.1-.6-.7.3-1.2 1.4-3.1 2.1-9.3 3.5-1.1.3-4.9.7-8.3 1l-6.4.6 1.2-2.4c.7-1.2 1.7-2.9 2.3-3.6 1-1.2 9.7-1.7 9.7-.5zm72.4 3.3c7.5 4.8 18.1 9.8 26.1 12.1 4.9 1.4 5.5 1.8 3 1.9-1.6.2-3.5.2-4.2.1-.6-.1-1.4.2-1.6.6-.3.5 1.6.9 4.1.9 9.3.3 14.1.7 15.4 1.5 1.7 1.1-11.3 7.2-22.2 10.5-11.6 3.5-11.3 3.4-10.9 3.8.2.3 2.9-.2 5.9-1 3-.9 6.4-1.7 7.5-1.9 4.1-.9 13.9-4.6 17.1-6.4l3.2-1.9.5 4.1c.4 3 .1 4.8-1.3 6.7-2.5 3.5-12 8.5-19.3 10.1-3.2.7-6.1 1.7-6.4 2.2-.3.6-.2.8.3.5.5-.4 2.7-.9 4.8-1.2 2.1-.4 5.1-.9 6.5-1.2 3.7-.9 15.1-6.6 15.1-7.6 0-.4.4-.8.8-.8 1.2 0 3.2 6.9 2.5 8.7-.7 1.8-10.7 6.7-19.3 9.4-13 4.1-30.6 3.5-50.5-1.8-3.4-.9-10-1.6-15.3-1.6h-9.4l3.4-2.6c1.8-1.4 4.4-3.7 5.8-5 2.6-2.4-8.2 4.9-15.9 10.7-2.4 1.8-4.5 3.1-4.8 2.9-.2-.3.5-2 1.6-3.8 1.2-1.9 2.4-4.1 2.8-4.9.3-.8 3.3-4.7 6.5-8.7 3.2-3.9 5.8-7.5 5.8-7.8 0-1.2-8.9 8.8-13.2 14.7-2.2 3.2-4.2 5.8-4.4 5.8-.5 0 1.9-7.8 4.3-13.4 6.7-16 18.5-28.7 33.9-36.5 8.7-4.4 14-4.2 21.8.9zm43.2 3c1.3 3.6 2.8 6.6 3.4 6.8 2.3.8.8 2.3-1.7 1.8-1.6-.4-4.2-.8-6-1-8.5-1.1-28.2-8.7-35.3-13.6-1.1-.7 4.2-.9 17.9-.7l19.3.2 2.4 6.5zm11-4.3c-.1 1.6.4 4.7 1 7s1 4.4.8 4.6c-.3.2.2 1.7 1 3.3 2 3.7 1.2 4.3-2 1.3-3.6-3.3-7.1-9.6-8.2-14.7l-1-4.2h4.3c4 0 4.2.2 4.1 2.7zm11.8 4.8c.2 3.8.6 7.9 1 9 .5 1.3.2 1.1-.8-.5-1.8-3-2-1.9-.5 3.5.6 2.3 2.7 5.6 4.9 7.7 3.8 3.7 5.7 7.6 6.7 13.3.9 5.7 1.6 4 1-2.7l-.6-6.6 3 .8c1.6.5 3.2.8 3.6.7 1.2-.3 2.4 5.6 2.5 11.5 0 3.2.4 5.8.9 5.8s.7-3.8.5-8.4c-.2-4.7-.1-8.7.1-9 .3-.3 1.6.2 3 1.1 2.3 1.5 2.5 2.1 2 7.3-.5 6.9-4.8 15.8-10.4 21.9l-4.2 4.6 1.4-4.8c.8-2.6 1-4.7.5-4.7-.6 0-1 .9-1 1.9 0 2.9-1.7 3.5-2.6.9-.8-2.8-5.1-8.7-7.8-11-1.2-1-1.7-1.8-1.2-1.8s.2-.8-.7-1.8c-2.7-2.9-4.9-9.4-5.2-14.9-.3-5.8-.3-5.8 2.6-4.2 1.1.6 2.5.8 3.2.6.7-.3 0-1-1.5-1.6-4.6-1.8-8.9-10.8-10.5-21.9l-.6-4.3 5.2.3 5.2.3.3 7zm-127.5 5.2c-7.7 10.4-18.2 18.7-25.9 20.7-1.9.5-1.7.2 1-1.3 1.9-1.1 4.6-2.9 6-4 2.4-2 2.4-2 .3-1.4-1.3.3-2.3.9-2.3 1.3s-3.3 2.2-7.2 4.1c-5.4 2.5-8.9 3.4-13.4 3.6-7.6.2-10.3-1.2-3.7-2 9.3-1.2 14.8-2.7 20.3-5.4 3.6-1.9 1.8-1.6-5 .7-7.7 2.6-22.4 3.8-24.5 2-1.4-1.1-1.2-1.5 1.5-3.1 1.6-1 4.2-3.7 5.7-5.8 1.7-2.4 5.1-5.2 8.5-7.1 5.5-3 7.8-3.5 21.3-4.5 3.9-.3 10.2-1.3 14-2.4 3.9-1 7.2-1.7 7.4-1.5.2.2-1.6 2.9-4 6.1zM87 389.1c23.8-.9 28.4-.7 32.8 1.3 5.3 2.4 5.3 3.6 0 3.6-5.5 0-4.3 1 1.7 1.4 4 .2 5 .7 5.7 2.6 1.1 2.9.9 3-3.6 3.2-4.1.1-2.8 1.7 1.4 1.8 3.4 0 1.1 1.6-5.5 3.5-10.1 3-18.2 2.3-29.3-2.5-5.7-2.5-6.4-3.5-1.4-2 2 .5 3 .5 2.7-.1-.4-.5-1.2-.9-1.9-.9-1.4 0-14.8-7.2-14.3-7.6.2-.2 2.1.3 4.2 1.1 7.1 2.5 7.2 1.5.1-1.5-7.8-3.3-11-5.7-6.1-4.3 1.7.4 7.7.6 13.5.4zm257.6 11.3c2.6 1.6 3.2 2.6 3 5.1-.4 4.9 1.3 10.7 4.4 15.2l2.9 4.3-4.9-3.3c-4.8-3.2-7.3-6.3-9.7-12.2l-1.2-3 .3 3.1c.6 5 3.1 8.7 10 14.7 3.5 3.2 7.4 7.3 8.6 9.2 2.2 3.6 4.1 9 3.4 9.8-.2.2-4.6-3.9-9.8-9.1-11.7-11.8-14.6-16.8-15.3-26.7-.3-4.1-.3-8.1.1-9 .7-1.9 3.4-1.3 8.2 1.9zM133 405.8c0 1.3-6.3 6.4-9.7 7.9-1.8.7-3.3 1.5-3.3 1.8 0 1.7 12.2-5 14.1-7.8.4-.5 1.9-.7 3.4-.3l2.8.7-2.4 2.5c-1.2 1.3-4 3.2-6.1 4.1-2.1.9-3.6 1.8-3.4 2 .7.8 7.4-2.2 10.8-4.8 2-1.6 3.9-2.9 4.2-2.9 1.2 0 .5 5.3-1.1 8-2.3 3.9-7.4 5-20.8 4.4-10.3-.5-11.3-.4-16 2-2.7 1.4-5 2.4-5.2 2.2-.2-.2 1-1.7 2.6-3.5 1.6-1.7 2.5-3.1 2.1-3.1-.5 0-2.1 1.3-3.7 3-3.8 4.1-4.4 3.8-2.7-1.3 2.5-7 4.1-8.3 10.9-8.5 6.5-.1 18.8-3.6 20.6-5.8 1.2-1.5 2.9-1.9 2.9-.6zm31 5.6c2.5 1 5.8 2.1 7.5 2.6 4.4 1.4 11.4 10.2 12.9 16.2.6 2.5-.7 4.1-1.6 2-.1-.4-2.8-2.2-5.8-4-5.1-3-5.2-3-2-.5 1.9 1.6 4.8 4.1 6.5 5.6l3 2.8-4.5-2.5c-2.5-1.3-7-3.2-10-4.1-11.6-3.5-13.9-4.7-17.9-9-3.2-3.5-4.1-5.2-4.1-8 0-1.9.2-3.5.5-3.5s2.4 1.9 4.8 4.2c5 5 13.7 11.2 13.7 9.8 0-.6-.4-1-.8-1-.5 0-3.9-2.9-7.7-6.4-8.6-8-7.4-8.9 5.5-4.2zm6.6 1.4c-.6.5-7.5-3.3-7.6-4.1 0-.4 1.8.3 3.9 1.5 2.2 1.2 3.8 2.4 3.7 2.6zm-38.3 13.9c-.9.7-2.4 1.3-3.2 1.4-.9 0-2.3.2-3.1.3-.8.2-4.6.7-8.4 1.1-3.8.4-8.6 1.3-10.7 2.1-4.7 1.6-5 .6-.6-2.2 6.2-4.1 7.1-4.3 17.5-4.1 8.4.2 9.9.4 8.5 1.4zm39.4 7.9c-.5.5-5.7-1.3-5.7-2 0-.3 1.4 0 3.1.6 1.6.6 2.8 1.2 2.6 1.4zm83.8-1.2c2.2.3 8.3 1.4 13.5 2.5 22.1 4.7 33.4 4.7 47.9.2 8.7-2.7-5.6 5.2-15.3 8.4-16.8 5.6-33.9 6.4-52.1 2.4-4.9-1.1-11.5-2-14.5-2.1h-5.5l5-2c6-2.5 15.7-4.7 20.5-4.8 1.9 0 4.2-.5 5-1 1.2-.8.9-.9-1-.6-1.4.3-5.2.7-8.5 1-8.9.8-17.4 2.9-21 5.3-3.4 2.3-4 1.4-1-1.7 1.6-1.7 4.8-3.9 7.2-5.1 4-1.9 12.6-3.8 14.8-3.3.6.2 2.8.5 5 .8z"/><path d="M196.2 105c0 1.4.2 1.9.5 1.2.2-.6.2-1.8 0-2.5-.3-.6-.5-.1-.5 1.3zm35.5-7.1c-.4 1.7-.3 2.1.5 1.3.5-.5.8-1.6.6-2.3-.3-.8-.7-.3-1.1 1zm-8.7 10.2c0 .5.5.7 1 .4.6-.3 1-.8 1-1.1 0-.2-.4-.4-1-.4-.5 0-1 .5-1 1.1zM93 121.9c0 .5.5 1.3 1 1.6.6.3 1 .2 1-.4 0-.5-.4-1.3-1-1.6-.5-.3-1-.2-1 .4zm319 12c0 .6.4 1.3 1 1.6.6.3.7-.1.4-.9-.7-1.8-1.4-2.1-1.4-.7zm-48.7-6.4c0 1.9.3 3.3.6 3 .8-.9.9-5.5.1-6-.4-.2-.7 1.1-.7 3zm11.8 16.1c0 1.1.3 1.4.6.6.3-.7.2-1.6-.1-1.9-.3-.4-.6.2-.5 1.3zm-216.7 61.3c-.2.2-.4 1-.4 1.7 0 .8 1.6 1.2 4.6 1.2 3.4 0 5.2.6 6.8 2.1 2.1 2.1 2.1 2.8 2.3 52.9.3 49.9.2 50.9-1.7 53-1.2 1.2-3.1 2.3-4.3 2.4-1.2 0-2.6.2-3.2.3-.5.2-1.8.3-2.8.4-1 0-1.7.7-1.5 1.3.4 1 9.2 1.3 39.7 1.3 21.6 0 39.6-.2 40.1-.5.8-.5 1.6-11.2 2.6-33.8.4-8.6.2-12.2-.6-12.2-1.3 0-1.4.3-3.3 11-2.4 12.9-5.3 19.7-10.7 25.3-4.2 4.2-5.5 4.9-11.6 6.2-3.8.7-10.6 1.3-15.2 1.1-6.9-.2-8.6-.6-10.6-2.5l-2.4-2.3.1-25.7.2-25.6 6.2.2c3.4.1 7.8.9 9.8 1.9 4.6 2.2 8.2 8.4 9.1 15.6.7 6 1.7 8.4 3 7.5.7-.4 1.1-40 .5-51.6-.2-4.2-2.8-.6-2.9 4.1-.1 2.4-1.3 6.6-2.7 9.5-3.3 6.6-8.3 9.3-17.3 9.3h-6.3l.1-23c.1-22.4.2-23.1 2.4-25.7 2.2-2.5 2.6-2.6 13.2-2.6 12.7.1 19.4 2.2 24.3 7.8 4.3 5 9.5 20.8 9.2 28.2-.1 2.6 1.8 4.1 2.9 2.3.4-.6.6-3.3.4-5.8-.4-5.1-1.2-22.6-1.3-30.7l-.1-5h-39.1c-21.5 0-39.2.2-39.5.4zm92.2 1.4c-.4 1.5.1 1.8 2.2 1.7 5.3-.4 7.2 0 9.2 2 1.9 1.9 1.9 3.6 2 52.8 0 47.3-.1 51.1-1.7 53-1.7 2-4.7 2.9-10 3.1-1.4.1-2 .6-1.7 1.4.6 1.8 43.6 1.7 44.2-.1.2-.6 0-1.2-.5-1.3-.4 0-3.3-.2-6.2-.4-9.6-.7-9.6-.7-9.8-27-.2-20.6 0-22.5 1.5-22.6.9 0 5.8-.2 10.7-.3 11-.4 15.5-1.2 22.1-4.1 13.8-6.1 20.7-19.2 18.3-34.8-1.9-12-9-19.4-22.4-23.3-5-1.4-10.4-1.7-31.7-1.9-24.3-.1-25.7 0-26.2 1.8zm47.2 2.1c7.8.9 13.6 5.9 16.1 13.8 1.8 5.5 2 19.6.4 25.9-1.9 7.6-4.9 11.5-11 14.5-4.4 2.2-6.7 2.6-13.5 2.6-4.6 0-9.1 0-10-.1-1.6-.1-1.7-2.1-1.5-26.7l.2-26.6 2.7-2.2c2.8-2.2 6.5-2.4 16.6-1.2zM60 158c-.8.5-1 1-.5 1 .6 0 1.7-.5 2.5-1s1.1-1 .5-1c-.5 0-1.7.5-2.5 1zm18.6 15.2c.3.4.9.8 1.5.8.5 0 .9-.4.9-.8 0-.5-.7-.9-1.5-.9s-1.2.4-.9.9zM71 185.1c-2.9.5-2.3.7 2.9.8 6.4.1 7.8-.4 3.1-1.2-1.4-.2-4.1 0-6 .4zm-10 1c0 .5.5.7 1 .4.6-.3 1-.8 1-1.1 0-.2-.4-.4-1-.4-.5 0-1 .5-1 1.1zm34 20c0 .9 4.7.5 5.7-.5.4-.3-.7-.6-2.5-.4-1.8.1-3.2.5-3.2.9zm289.1-51.5c-.1 3.1-.4 6-.6 6.5-.3.4-.2 1 .3 1.3.5.3.9 0 .9-.7s.3-3.8.7-7c.4-3.2.3-5.7-.2-5.7s-1 2.5-1.1 5.6zm17.9 17.5c0 .5.5.7 1 .4.6-.3 1-.8 1-1.1 0-.2-.4-.4-1-.4-.5 0-1 .5-1 1.1zM382 186c0 .5.5 1 1.1 1 .5 0 .7-.5.4-1-.3-.6-.8-1-1.1-1-.2 0-.4.4-.4 1zm58-8.5c-.7.9-1.1 1.7-.9 2 .3.2 1-.5 1.7-1.5 1.4-2.4 1-2.6-.8-.5zm-12.7 20.7c-1.8.6-3.3 1.5-3.3 1.9 0 .9 4.7-.8 6.5-2.3 1.1-.9 1-.9-3.2.4zM36.5 193c-.3.4 1.4 1.1 3.6 1.5 2.3.4 5.7 1.4 7.5 2.1 4.2 1.8 5.7 1.7 2.4 0-4-2.2-12.9-4.6-13.5-3.6zm44.1 54.4c-2 3-3.9 6.3-4.2 7.3-.3 1 .4.2 1.6-1.7 1.3-1.9 3-4.6 3.9-6 2.6-3.8 3.3-5 2.8-5-.3 0-2.1 2.4-4.1 5.4zm308.5 20.2c0 1.1.3 1.4.6.6.3-.7.2-1.6-.1-1.9-.3-.4-.6.2-.5 1.3zm13.1 20.9c0 1.6.2 2.2.5 1.2.2-.9.2-2.3 0-3-.3-.6-.5.1-.5 1.8zm10.8 10.7c-.9 5.7-1.1 8.2-.7 7.8.7-.7 1.8-8 1.2-8-.3 0-.5.1-.5.2zM111 311c0 .5.5 1 1.1 1 .5 0 .7-.5.4-1-.3-.6-.8-1-1.1-1-.2 0-.4.4-.4 1zm.2 4c0 1.4.2 1.9.5 1.2.2-.6.2-1.8 0-2.5-.3-.6-.5-.1-.5 1.3zm265.3 36.1c-.4.6-.5 1.2-.2 1.5.2.3.7-.2 1-1.1.7-1.7.1-2-.8-.4zm12.3 6.2c-.3 1.9-.2 2.5.4 1.9.6-.6.8-1.8.6-2.8-.3-1.4-.5-1.2-1 .9zm-4.6 27.7c0 1.4.2 1.9.5 1.2.2-.6.2-1.8 0-2.5-.3-.6-.5-.1-.5 1.3zm47.4-34.3c-.6 1.4-.5 1.5.5.6.7-.7 1-1.5.7-1.8-.3-.3-.9.2-1.2 1.2zm-11.1 18.4c-.4.6-.5 1.2-.2 1.5.2.3.7-.2 1-1.1.7-1.7.1-2-.8-.4zm35.3-2.4c.6.2 1.8.2 2.5 0 .6-.3.1-.5-1.3-.5-1.4 0-1.9.2-1.2.5zM437 387c-.9.6-1 1-.3 1 .6 0 1.5-.5 1.8-1 .8-1.2.4-1.2-1.5 0zm-17.4 13.8c-.3.4.4.9 1.5.9 2.3.2 2.5-.3.4-1-.8-.4-1.6-.3-1.9.1zm3.9 12.2l-4 .7 3.5.1c1.9 0 4.4-.3 5.5-.8 2.4-1 .7-1-5 0zm8.3-.3c.7.3 1.6.2 1.9-.1.4-.3-.2-.6-1.3-.5-1.1 0-1.4.3-.6.6zM81 377.8c0 .5.7.9 1.5.9s1.2-.4.9-.9c-.3-.4-.9-.8-1.5-.8-.5 0-.9.4-.9.8zm60.7 7.2c-.3 1.1-.1 2 .4 2s.9-.9.9-2-.2-2-.4-2-.6.9-.9 2zm105.7 22.1c-1.9 2.2-1.9 2.2.4.8 1.2-.8 2.2-1.7 2.2-2.1 0-1.2-.6-.9-2.6 1.3zm53.2 16.7c-.3.5.1.9.9.9s1.5-.4 1.5-.9c0-.4-.4-.8-.9-.8-.6 0-1.2.4-1.5.8zm-4.8.9c.6.2 1.8.2 2.5 0 .6-.3.1-.5-1.3-.5-1.4 0-1.9.2-1.2.5zm69.3-1.1c0 1.1.3 1.4.6.6.3-.7.2-1.6-.1-1.9-.3-.4-.6.2-.5 1.3zm8.4 5.4c-.3.5-.1 1 .4 1 .6 0 1.1-.5 1.1-1 0-.6-.2-1-.4-1-.3 0-.8.4-1.1 1zm-34.9-24.3c-.6 1.4-.5 1.5.5.6.7-.7 1-1.5.7-1.8-.3-.3-.9.2-1.2 1.2z"/></svg>