<?xml version="1.0" standalone="no"?>
<!DOCTYPE svg PUBLIC "-//W3C//DTD SVG 20010904//EN"
 "http://www.w3.org/TR/2001/REC-SVG-20010904/DTD/svg10.dtd">
<svg version="1.0" xmlns="http://www.w3.org/2000/svg"
 width="512.000000pt" height="512.000000pt" viewBox="0 0 512.000000 512.000000"
 preserveAspectRatio="xMidYMid meet">
<metadata>
Created by potrace 1.11, written by Peter Selinger 2001-2013
</metadata>
<g transform="translate(0.000000,512.000000) scale(0.100000,-0.100000)"
fill="#000000" stroke="none">
<path d="M151 4804 c0 -11 3 -14 6 -6 3 7 2 16 -1 19 -3 4 -6 -2 -5 -13z"/>
<path d="M151 4724 c0 -11 3 -14 6 -6 3 7 2 16 -1 19 -3 4 -6 -2 -5 -13z"/>
<path d="M152 4640 c0 -14 2 -19 5 -12 2 6 2 18 0 25 -3 6 -5 1 -5 -13z"/>
<path d="M151 4324 c0 -11 3 -14 6 -6 3 7 2 16 -1 19 -3 4 -6 -2 -5 -13z"/>
<path d="M151 4244 c0 -11 3 -14 6 -6 3 7 2 16 -1 19 -3 4 -6 -2 -5 -13z"/>
<path d="M152 4160 c0 -14 2 -19 5 -12 2 6 2 18 0 25 -3 6 -5 1 -5 -13z"/>
<path d="M151 3844 c0 -11 3 -14 6 -6 3 7 2 16 -1 19 -3 4 -6 -2 -5 -13z"/>
<path d="M151 3764 c0 -11 3 -14 6 -6 3 7 2 16 -1 19 -3 4 -6 -2 -5 -13z"/>
<path d="M446 3767 c3 -10 1 -17 -5 -17 -14 0 -10 -41 6 -57 13 -14 27 -18 19
-5 -6 10 36 8 52 -2 7 -4 12 -2 12 4 0 8 6 8 20 0 15 -8 20 -8 20 2 0 9 3 9
10 -2 7 -11 10 -11 10 -2 0 9 5 10 18 4 9 -5 23 -7 30 -5 6 3 12 -2 12 -11 0
-9 5 -16 11 -16 5 0 7 5 4 10 -11 18 2 10 34 -19 17 -16 31 -34 31 -40 0 -6 5
-11 11 -11 8 0 8 -4 0 -14 -9 -11 -8 -15 5 -20 13 -5 15 -9 6 -18 -9 -9 -8
-16 3 -28 12 -13 12 -20 1 -42 -12 -22 -12 -26 -1 -22 14 6 15 -12 2 -33 -5
-7 -4 -13 0 -13 5 0 9 -9 9 -19 0 -11 -4 -17 -9 -14 -5 3 -4 -4 2 -16 7 -12 8
-21 2 -21 -10 0 -9 -19 2 -37 4 -6 1 -14 -5 -17 -10 -5 -10 -7 -1 -12 8 -4 9
-13 3 -30 -6 -14 -7 -23 -2 -21 8 6 8 -60 -1 -69 -3 -3 -2 -17 3 -30 6 -14 6
-24 1 -24 -10 0 -9 -19 2 -37 4 -6 2 -13 -5 -15 -7 -3 -8 -9 -3 -19 14 -21 15
-39 3 -39 -6 0 -5 -6 2 -15 10 -12 10 -15 -1 -15 -11 0 -11 -2 1 -10 8 -5 10
-10 5 -10 -6 0 -11 -9 -11 -20 0 -11 4 -20 8 -20 4 0 3 -11 -2 -25 -6 -16 -6
-26 1 -31 6 -4 6 -11 -2 -20 -9 -11 -9 -14 1 -14 10 0 10 -3 1 -14 -9 -10 -9
-16 -1 -21 8 -5 8 -11 -1 -21 -6 -8 -8 -14 -3 -14 10 0 11 -57 1 -66 -3 -3 -2
-17 3 -30 6 -14 6 -24 1 -24 -10 0 -9 -19 2 -37 4 -6 2 -13 -5 -15 -7 -3 -8
-9 -3 -19 14 -21 15 -39 3 -39 -6 0 -5 -6 2 -15 10 -12 10 -15 -1 -15 -11 0
-11 -2 1 -10 8 -5 10 -10 5 -10 -6 0 -11 -9 -11 -20 0 -11 4 -20 8 -20 4 0 3
-11 -2 -25 -6 -16 -6 -26 1 -31 6 -4 6 -11 -2 -20 -9 -11 -9 -14 1 -14 10 0
10 -3 1 -14 -9 -10 -9 -16 -1 -21 8 -5 8 -11 -1 -21 -6 -8 -8 -14 -3 -14 10 0
11 -57 1 -66 -3 -3 -2 -17 3 -30 6 -14 6 -24 1 -24 -10 0 -9 -19 2 -37 4 -6 2
-13 -5 -15 -7 -3 -8 -9 -3 -19 14 -21 15 -39 3 -39 -6 0 -5 -6 2 -15 10 -12
10 -15 -1 -15 -11 0 -11 -2 1 -10 8 -5 10 -10 5 -10 -6 0 -11 -9 -11 -20 0
-11 3 -20 6 -20 3 0 6 -9 6 -20 0 -11 -3 -20 -7 -20 -9 0 -6 -20 4 -37 4 -6 1
-14 -5 -16 -10 -4 -9 -6 1 -6 11 -1 11 -4 1 -16 -7 -8 -8 -15 -3 -15 5 0 9 -9
9 -19 0 -11 -4 -17 -9 -14 -5 3 -4 -4 2 -16 7 -12 8 -21 2 -21 -10 0 -9 -19 2
-37 4 -6 1 -14 -5 -16 -9 -4 -10 -8 -2 -14 7 -5 8 -16 4 -28 -4 -11 -4 -30 1
-42 5 -13 5 -23 0 -23 -10 0 -9 -19 2 -37 4 -6 1 -14 -5 -16 -10 -4 -9 -6 1
-6 11 -1 11 -4 1 -16 -7 -8 -8 -15 -3 -15 5 0 9 -9 9 -19 0 -11 -4 -17 -9 -14
-5 3 -4 -4 2 -16 7 -12 8 -21 2 -21 -10 0 -9 -19 2 -37 4 -6 2 -13 -5 -15 -7
-3 -8 -9 -3 -18 14 -23 13 -49 -2 -62 -11 -9 -12 -13 -1 -19 10 -7 11 -9 0 -9
-10 0 -10 -5 -2 -20 8 -15 8 -20 -2 -18 -6 2 -13 -1 -13 -7 -2 -26 -17 -55
-26 -50 -5 4 -9 -1 -9 -10 0 -10 -5 -13 -12 -9 -6 4 -17 -1 -25 -11 -7 -11
-13 -15 -13 -11 0 5 -8 2 -17 -5 -15 -12 -16 -12 -8 1 8 13 7 13 -8 1 -14 -11
-17 -11 -17 0 0 10 -3 11 -8 3 -10 -16 -80 -24 -86 -10 -3 7 -5 7 -5 -2 -1
-10 -6 -10 -22 -1 -15 8 -19 8 -15 0 4 -6 0 -11 -11 -11 -14 0 -19 -7 -19 -25
0 -18 5 -25 19 -25 10 0 16 -4 13 -8 -3 -5 1 -9 9 -9 8 0 12 4 9 9 -6 10 10
11 20 1 10 -10 37 -13 31 -3 -2 4 6 7 20 8 16 0 22 -5 18 -12 -4 -6 0 -5 9 2
13 10 17 10 21 0 4 -10 6 -10 6 0 1 6 6 12 12 12 5 0 7 -5 3 -11 -5 -8 -1 -8
14 0 27 14 35 14 26 -1 -6 -10 -4 -10 7 0 7 6 17 12 22 12 4 0 5 -6 1 -12 -6
-10 -4 -10 8 0 13 10 17 10 21 0 4 -10 6 -10 6 0 1 6 6 12 12 12 5 0 7 -6 3
-12 -6 -10 -4 -10 7 0 16 14 33 16 24 2 -4 -7 3 -7 20 0 34 13 38 13 29 -2 -6
-10 -4 -10 7 0 17 16 32 16 23 -1 -6 -9 -4 -9 8 1 13 10 17 10 21 0 4 -10 6
-10 6 0 1 6 6 12 12 12 5 0 7 -6 3 -12 -6 -10 -4 -10 7 -1 14 14 33 18 25 5
-2 -4 4 -8 14 -8 10 0 16 4 14 8 -6 10 10 11 20 1 10 -10 37 -13 31 -3 -2 4 6
8 20 8 16 0 22 -5 18 -12 -4 -6 0 -5 9 2 13 10 17 10 21 0 4 -10 6 -10 6 0 1
6 6 12 12 12 5 0 7 -6 3 -12 -5 -9 -2 -9 9 1 14 11 17 11 17 0 0 -12 2 -12 9
0 7 11 9 11 14 0 5 -12 6 -12 6 0 1 11 4 11 18 0 15 -12 16 -12 9 6 -5 15 -4
17 5 8 6 -6 18 -9 27 -6 11 5 13 2 7 -8 -6 -11 -5 -12 6 -1 15 14 33 17 25 4
-3 -5 1 -9 9 -9 8 0 12 4 9 9 -3 4 0 8 5 8 6 0 11 -6 11 -12 0 -9 4 -8 10 2 9
13 11 13 20 0 6 -10 10 -11 10 -2 0 6 5 12 11 12 5 0 7 -6 3 -12 -5 -9 -2 -9
9 1 14 11 17 11 17 0 0 -12 2 -12 9 0 7 11 9 11 14 0 5 -12 6 -12 6 0 1 11 4
11 18 0 15 -12 16 -12 10 3 -6 17 8 16 38 -1 16 -9 36 -10 30 -1 -2 4 6 8 20
8 16 0 22 -5 18 -12 -4 -6 0 -5 9 2 13 10 17 10 21 0 4 -10 6 -10 6 0 1 6 6
12 12 12 5 0 7 -5 3 -11 -5 -8 -1 -8 14 0 27 14 35 14 26 -1 -6 -10 -4 -10 7
0 17 16 32 16 23 0 -6 -10 -4 -10 8 0 13 10 17 10 21 0 4 -10 6 -10 6 0 1 6 6
12 12 12 5 0 7 -6 3 -13 -6 -9 -4 -9 7 1 16 14 33 16 24 2 -4 -7 3 -7 20 0 34
13 38 13 29 -2 -6 -10 -4 -10 7 0 17 16 32 16 23 0 -6 -10 -4 -10 8 0 13 10
17 10 21 0 4 -10 6 -10 6 0 1 6 6 12 12 12 5 0 7 -6 3 -12 -6 -10 -4 -10 7 0
14 13 33 17 25 4 -2 -4 4 -8 14 -8 10 0 16 4 14 8 -6 10 10 11 20 1 10 -10 37
-13 31 -3 -2 4 6 8 20 8 16 0 22 -5 18 -12 -4 -6 0 -5 9 2 13 10 17 10 21 0 4
-10 6 -10 6 0 1 6 6 12 12 12 5 0 7 -6 3 -12 -5 -9 -2 -9 9 1 14 11 17 11 17
0 0 -12 2 -12 9 0 7 11 9 11 14 0 5 -12 6 -12 6 0 1 11 4 11 18 0 15 -12 16
-12 9 6 -5 15 -4 17 5 8 6 -6 18 -9 27 -6 11 5 13 2 7 -8 -6 -11 -5 -12 6 -1
14 13 33 17 25 4 -2 -4 6 -8 19 -8 13 0 21 4 19 8 -8 13 11 9 25 -4 11 -11 12
-10 6 1 -6 11 -3 13 13 9 17 -5 20 -2 16 19 -3 17 -1 22 7 18 8 -6 8 -2 0 14
-9 16 -9 21 1 21 8 0 9 3 3 8 -15 10 -19 46 -5 37 9 -6 9 -2 1 12 -7 14 -7 24
2 33 10 10 9 11 -3 5 -11 -6 -11 -4 2 11 9 11 14 25 10 31 -10 16 -6 141 5
156 8 10 10 32 3 40 -6 8 -5 45 2 41 4 -3 8 0 8 5 0 6 -5 11 -11 11 -8 0 -8 5
1 15 10 12 10 15 0 15 -10 0 -10 3 0 15 10 12 10 15 -1 15 -11 0 -11 2 1 10 8
5 11 12 7 16 -4 4 -2 13 4 21 6 7 7 13 2 13 -5 0 -9 23 -9 50 1 40 4 49 16 45
10 -3 9 -1 -3 9 -16 12 -16 14 -1 20 13 5 14 9 5 20 -9 11 -9 16 0 21 8 6 7
10 -2 16 -11 7 -11 9 1 9 13 0 13 1 0 10 -8 5 -10 10 -4 10 6 0 11 7 11 15 0
8 -5 15 -10 15 -5 0 -3 8 4 17 12 14 12 15 1 9 -11 -7 -12 -4 -4 10 5 11 9 42
10 71 0 29 3 57 7 63 3 5 1 10 -5 10 -8 0 -8 6 0 20 7 12 7 20 1 20 -5 0 -8
10 -6 23 4 21 4 21 -10 3 -14 -18 -15 -18 -15 -2 0 9 -5 14 -10 11 -6 -4 -8
-11 -5 -16 4 -5 -4 -9 -17 -9 -18 0 -20 -2 -8 -10 13 -8 13 -10 1 -10 -11 0
-9 -4 5 -15 11 -9 13 -14 5 -13 -10 2 -14 -9 -15 -43 -1 -26 -8 -55 -16 -65
-8 -10 -10 -15 -3 -11 8 5 11 1 10 -12 0 -11 -5 -17 -9 -15 -4 3 -6 -9 -4 -25
2 -23 -1 -31 -13 -32 -11 0 -12 -2 -3 -6 10 -4 10 -8 0 -21 -10 -12 -10 -14
-1 -8 9 5 11 2 7 -8 -3 -9 -11 -16 -16 -16 -6 0 -5 -6 2 -15 7 -8 8 -15 3 -15
-5 0 -9 -14 -8 -30 1 -17 -3 -34 -9 -38 -6 -4 -11 -13 -12 -19 -1 -7 -2 -22
-2 -34 -1 -11 -6 -18 -11 -15 -5 4 -7 -4 -3 -16 4 -15 2 -19 -7 -13 -10 6 -11
3 -1 -15 11 -21 10 -22 -6 -16 -10 4 -15 4 -11 0 4 -4 1 -14 -6 -22 -10 -13
-9 -14 3 -7 9 5 7 -1 -5 -15 -11 -13 -15 -20 -8 -17 6 4 15 3 18 -3 4 -6 3
-10 -2 -9 -23 4 -31 -3 -28 -22 3 -16 0 -19 -12 -15 -13 5 -14 4 -3 -9 8 -10
9 -15 1 -15 -14 0 -42 -55 -33 -65 4 -3 3 -5 -3 -3 -5 1 -10 1 -10 -2 0 -7
-21 -32 -67 -82 -22 -23 -43 -36 -49 -32 -8 4 -9 3 -5 -4 4 -7 2 -12 -4 -12
-6 0 -8 -5 -4 -12 4 -7 3 -8 -4 -4 -6 4 -20 -2 -31 -13 -11 -11 -22 -17 -25
-14 -3 4 -6 1 -6 -6 0 -7 -5 -9 -11 -6 -6 4 -17 -1 -25 -11 -9 -11 -12 -12 -8
-4 7 13 5 13 -8 2 -13 -10 -17 -10 -21 0 -3 8 -6 6 -6 -5 -1 -10 -5 -15 -11
-12 -5 3 -10 0 -10 -7 0 -9 -3 -9 -10 2 -8 13 -10 12 -10 -3 0 -14 -4 -16 -18
-8 -10 6 -24 6 -32 1 -8 -5 -18 -6 -22 -4 -4 3 -8 -1 -8 -8 0 -9 -3 -9 -10 2
-8 12 -10 12 -10 1 0 -10 -3 -11 -13 -3 -8 7 -18 7 -27 2 -9 -6 -17 -5 -22 3
-5 8 -8 6 -8 -5 0 -10 -7 -18 -16 -18 -8 0 -12 5 -8 11 5 8 1 8 -14 0 -29 -16
-37 -14 -21 6 13 16 13 16 -11 0 -28 -19 -44 -22 -34 -6 5 8 1 8 -14 0 -24
-13 -35 -14 -29 -4 3 5 -5 8 -18 8 -13 0 -21 -3 -19 -6 7 -12 -75 -2 -91 11
-9 7 -15 9 -14 4 4 -21 -2 -26 -16 -14 -12 10 -15 10 -15 0 0 -9 -5 -8 -18 3
-14 13 -21 14 -30 5 -8 -8 -12 -8 -12 -1 0 6 -11 10 -24 10 -28 0 -59 26 -48
39 4 5 -1 2 -10 -5 -15 -11 -17 -10 -13 8 2 12 -1 21 -8 21 -7 0 -17 11 -24
25 -6 14 -7 23 -2 19 5 -3 9 0 9 5 0 6 -8 11 -17 11 -11 0 -14 3 -7 8 6 4 9
16 7 27 -9 46 -9 85 -1 85 5 0 6 5 2 12 -9 14 -9 109 -1 132 4 9 3 16 -1 16
-4 0 -7 14 -7 30 0 17 4 30 10 30 5 0 4 5 -3 12 -7 7 -8 17 -1 30 5 10 6 18 2
18 -4 0 -8 14 -8 30 0 17 4 30 8 30 5 0 5 6 1 12 -11 18 -12 48 -2 48 5 0 6 5
2 12 -11 18 -12 68 -2 68 5 0 6 6 2 12 -11 17 -11 149 -1 171 4 9 4 17 0 17
-10 0 -9 132 1 148 4 7 3 12 -1 12 -5 0 -9 9 -9 20 0 11 4 20 9 20 4 0 5 5 1
12 -11 18 -12 68 -1 68 6 0 6 5 0 13 -10 12 -9 65 2 75 8 9 135 8 135 0 0 -5
5 -8 11 -8 5 0 7 6 3 13 -6 9 -5 9 7 0 12 -10 18 -10 27 -1 9 9 12 9 12 -1 0
-8 12 -12 34 -10 19 2 38 0 41 -3 4 -4 13 -4 21 -1 8 3 14 1 14 -5 0 -5 7 -13
16 -16 10 -4 13 -2 8 7 -6 8 -3 8 9 -1 9 -8 20 -11 25 -8 6 3 15 -1 22 -9 7
-8 17 -12 23 -8 6 4 8 0 4 -10 -4 -11 -1 -17 8 -17 15 0 82 -58 78 -66 -7 -11
-2 -24 7 -19 6 3 10 -3 10 -15 0 -11 7 -23 16 -27 13 -5 13 -7 2 -14 -10 -7
-9 -9 5 -9 9 0 16 -3 16 -8 -3 -18 2 -33 9 -28 5 3 9 -1 9 -8 0 -9 -7 -12 -16
-9 -11 4 -9 0 4 -10 11 -9 16 -17 11 -17 -5 0 -3 -7 4 -15 7 -8 9 -15 5 -15
-4 0 -2 -7 5 -15 10 -12 10 -18 -1 -32 -10 -11 -10 -14 -1 -9 13 8 15 -5 14
-86 -1 -27 3 -48 9 -48 6 0 5 -9 -2 -22 -12 -22 -11 -22 6 -8 17 14 18 14 6
-7 -10 -19 -9 -23 4 -23 8 0 15 -4 15 -8 0 -5 7 -9 15 -9 8 0 12 4 9 9 -3 4 2
8 10 8 8 0 18 5 21 10 4 6 1 9 -5 8 -7 -2 -14 5 -15 15 -2 9 1 15 6 11 13 -8
11 10 -3 24 -9 9 -9 12 1 12 7 0 10 4 7 8 -12 20 -14 62 -3 62 7 0 6 4 -3 10
-11 7 -11 10 -2 10 7 0 10 4 7 10 -11 18 -14 51 -4 45 10 -7 13 8 2 18 -14 14
-9 57 7 57 12 0 12 2 1 9 -15 10 -23 71 -9 71 5 0 5 7 -1 18 -10 20 -10 25 0
70 5 21 3 32 -5 33 -6 0 -2 4 9 9 17 7 17 9 3 9 -10 1 -18 6 -18 12 0 5 4 8 9
4 6 -3 8 6 5 20 -2 14 -6 36 -8 50 -3 15 0 25 7 25 7 0 6 4 -3 10 -11 7 -11
10 -2 10 7 0 10 4 7 10 -11 18 -14 51 -4 45 10 -7 13 8 2 18 -14 14 -9 57 7
57 12 0 12 2 1 9 -15 10 -23 71 -9 71 5 0 3 10 -3 23 -7 12 -11 22 -10 22 1 0
6 17 10 38 6 26 5 37 -3 38 -6 0 -2 4 9 9 17 7 17 9 3 9 -10 1 -18 6 -18 12 0
5 4 8 9 5 8 -5 5 53 -4 82 -3 6 1 12 8 12 8 0 6 4 -3 10 -11 7 -11 10 -2 10 7
0 10 4 7 10 -12 20 -14 51 -3 44 8 -5 9 -1 5 10 -4 10 -7 22 -7 27 0 6 -4 7
-10 4 -5 -3 -10 -2 -10 2 0 16 -40 9 -41 -7 -1 -8 -2 -19 -4 -25 -1 -5 -3 -16
-3 -23 -1 -8 -7 -10 -14 -6 -9 5 -9 2 1 -9 7 -9 10 -17 6 -17 -4 0 -1 -8 6
-17 11 -13 11 -15 1 -9 -11 6 -12 1 -9 -23 3 -17 1 -31 -4 -31 -4 0 -5 -7 -2
-17 5 -12 3 -14 -8 -8 -12 8 -12 6 0 -8 11 -13 11 -20 1 -32 -6 -8 -9 -19 -5
-25 3 -5 1 -10 -5 -10 -7 0 -10 -7 -7 -15 4 -8 2 -17 -3 -20 -6 -4 -10 -15
-10 -26 0 -11 -4 -17 -10 -14 -6 3 -7 -1 -4 -9 4 -11 0 -16 -12 -16 -13 0 -15
-3 -7 -8 8 -5 9 -13 3 -22 -7 -11 -10 -12 -10 -2 0 7 -4 11 -10 7 -5 -3 -7
-12 -4 -19 3 -7 -2 -16 -11 -20 -9 -3 -14 -9 -12 -13 2 -5 -4 -16 -15 -26 -10
-9 -18 -12 -18 -7 0 6 -11 -1 -25 -15 -14 -14 -33 -25 -41 -25 -9 0 -30 -10
-47 -22 -17 -12 -27 -17 -23 -10 4 7 2 12 -3 12 -6 0 -11 -4 -11 -9 0 -5 -7
-12 -16 -15 -8 -3 -12 -2 -9 4 3 6 2 10 -4 10 -5 0 -13 -4 -16 -10 -3 -5 -11
-10 -16 -10 -6 0 -8 4 -5 8 3 5 -1 9 -9 9 -8 0 -12 -4 -9 -9 3 -4 -4 -8 -15
-8 -10 0 -22 6 -24 13 -4 9 -6 9 -6 -1 -1 -8 -9 -10 -27 -6 -19 5 -25 4 -20
-5 10 -16 0 -14 -18 5 -9 8 -16 11 -16 5 0 -7 -10 -9 -26 -5 -20 5 -25 4 -19
-6 6 -9 3 -10 -12 -1 -11 6 -23 7 -27 4 -4 -4 -6 9 -4 30 1 20 -1 39 -5 43 -3
4 -2 15 4 25 5 11 6 19 2 19 -4 0 -8 14 -8 30 0 17 4 30 8 30 5 0 5 6 1 12
-11 18 -12 48 -2 48 5 0 6 5 2 12 -11 18 -12 68 -2 68 5 0 6 6 2 12 -11 17
-11 149 -1 171 4 9 4 17 0 17 -10 0 -9 132 1 148 4 7 3 12 -1 12 -5 0 -9 9 -9
20 0 11 4 20 9 20 4 0 5 5 1 12 -11 18 -12 68 -2 68 5 0 6 5 2 12 -9 14 -9
109 -1 132 4 9 3 16 -1 16 -11 0 -5 80 8 95 8 10 8 15 0 20 -8 5 -7 12 4 24 9
10 13 21 10 24 -4 4 1 9 10 13 9 3 16 12 16 19 0 7 7 16 16 19 15 6 15 4 3
-11 -13 -16 -12 -17 4 -4 9 7 17 20 17 28 0 11 4 11 20 3 12 -6 20 -7 20 -1 0
5 31 9 70 8 39 -1 70 2 70 6 0 5 5 5 12 1 16 -10 108 -11 108 -1 0 5 5 5 12 1
7 -4 52 -8 100 -7 51 0 88 -4 88 -10 0 -5 7 -4 15 3 11 9 15 10 15 1 0 -8 8
-10 21 -6 13 5 19 3 15 -3 -3 -5 1 -12 9 -16 8 -3 15 0 15 6 0 6 10 3 22 -8
12 -10 18 -13 14 -7 -5 9 -2 11 8 7 9 -3 14 -9 12 -13 -2 -3 7 -7 21 -7 13 -1
32 -9 42 -18 10 -9 21 -13 26 -9 4 5 5 2 1 -4 -4 -7 -2 -13 4 -13 6 0 8 -6 4
-12 -5 -10 -4 -10 5 -2 10 9 24 1 62 -35 27 -26 49 -52 49 -59 0 -7 5 -12 11
-12 6 0 8 -7 5 -16 -3 -8 -2 -12 4 -9 6 3 10 -1 10 -10 0 -8 7 -18 15 -21 8
-4 12 -10 9 -15 -3 -5 0 -9 5 -9 6 0 10 -3 10 -7 -4 -22 2 -33 14 -27 7 5 6 0
-3 -11 -9 -11 -10 -16 -2 -11 8 5 12 -1 12 -18 0 -14 5 -26 12 -26 6 0 9 -3 5
-6 -3 -4 1 -21 10 -38 16 -30 15 -31 -3 -17 -10 7 -5 1 11 -15 19 -18 23 -25
11 -21 -17 7 -17 6 1 -26 12 -20 17 -40 13 -52 -5 -13 -1 -24 9 -32 12 -9 13
-12 2 -13 -11 0 -11 -3 -1 -15 7 -8 9 -15 6 -15 -4 0 -2 -8 3 -18 7 -13 6 -23
-2 -31 -9 -10 -9 -12 2 -9 8 2 14 -6 16 -19 1 -12 -2 -20 -7 -17 -4 3 -8 0 -8
-5 0 -6 4 -11 8 -11 5 0 8 -12 7 -27 -1 -16 2 -36 7 -45 6 -13 5 -18 -4 -19
-7 0 -4 -4 7 -9 14 -6 15 -9 5 -10 -12 0 -12 -2 2 -11 9 -5 15 -16 12 -24 -7
-17 41 -14 59 4 9 10 8 11 -6 5 -13 -5 -16 -2 -11 10 3 9 11 13 18 9 6 -3 6
-1 -1 8 -15 15 -18 33 -5 25 5 -3 9 1 9 9 0 8 -4 12 -9 9 -4 -3 -8 2 -8 11 0
10 5 14 13 9 9 -5 9 -4 0 6 -6 7 -9 19 -6 26 3 8 -1 14 -8 14 -12 0 -12 2 0 9
9 6 10 11 2 15 -8 5 -8 13 0 28 6 11 7 18 2 15 -11 -7 -10 103 1 121 4 6 4 12
-1 12 -4 0 -9 35 -10 78 -2 42 -3 82 -3 87 -1 6 1 25 3 44 2 19 -2 39 -10 46
-10 11 -10 14 0 18 9 3 9 7 -1 19 -12 15 -7 52 7 44 3 -2 7 7 7 20 1 13 -2 24
-8 24 -5 0 -6 5 -3 10 3 6 2 10 -2 10 -5 0 -9 16 -10 35 0 22 3 32 10 28 6 -3
7 -1 3 6 -14 22 -17 63 -5 55 8 -5 9 -3 3 7 -11 18 -13 71 -2 86 6 8 3 11 -9
9 -10 -2 -24 4 -31 13 -12 15 -13 14 -8 -1 3 -12 1 -15 -9 -11 -8 3 -12 10 -9
17 3 6 -2 2 -10 -8 -14 -18 -21 -15 -17 7 2 13 -11 8 -24 -10 -9 -13 -14 -13
-20 -3 -6 9 -4 11 5 5 8 -5 11 -4 6 3 -8 13 -36 5 -36 -10 0 -5 -7 -2 -16 6
-18 19 -28 21 -18 4 5 -8 2 -9 -12 -4 -31 12 -55 16 -49 7 9 -15 -23 -20 -35
-6 -11 13 -34 15 -46 2 -4 -3 -14 -2 -23 3 -10 5 -23 5 -31 0 -8 -5 -22 -4
-33 2 -15 8 -18 7 -12 -3 6 -9 3 -10 -11 -5 -31 12 -55 16 -49 7 7 -12 -21
-22 -40 -15 -8 4 -12 11 -9 18 3 6 -2 2 -10 -8 -14 -18 -21 -15 -17 7 2 13
-11 8 -24 -10 -9 -13 -14 -13 -20 -3 -6 9 -4 11 5 5 8 -5 11 -4 6 3 -8 13 -36
5 -36 -10 0 -5 -7 -2 -16 6 -18 19 -28 21 -18 4 5 -8 2 -9 -12 -4 -31 12 -55
16 -49 7 8 -13 -17 -19 -40 -10 -11 4 -14 8 -6 8 8 1 11 4 8 8 -4 3 -17 -2
-29 -13 -19 -17 -21 -17 -15 -1 4 9 2 17 -3 17 -6 0 -10 -4 -10 -10 0 -5 -5
-10 -11 -10 -5 0 -7 6 -4 13 4 6 -1 3 -9 -7 -14 -18 -21 -15 -17 7 2 13 -11 8
-26 -10 -11 -14 -14 -14 -10 -3 3 10 -2 16 -13 16 -12 0 -16 -5 -12 -16 5 -13
4 -13 -12 -1 -25 21 -56 22 -48 2 5 -13 3 -14 -10 -3 -19 15 -61 25 -53 13 9
-15 -23 -20 -35 -6 -11 13 -34 15 -46 2 -4 -3 -14 -2 -23 3 -10 5 -23 5 -31 0
-8 -5 -22 -4 -33 2 -15 8 -18 7 -12 -3 6 -9 3 -10 -11 -5 -31 12 -55 16 -49 7
7 -12 -21 -22 -40 -15 -8 4 -12 11 -9 18 3 6 -2 2 -10 -8 -14 -18 -21 -15 -17
7 2 13 -11 8 -24 -10 -9 -13 -14 -13 -20 -3 -6 9 -4 11 5 5 8 -5 11 -4 6 3 -8
13 -36 5 -36 -10 0 -5 -7 -2 -16 6 -18 19 -28 21 -18 4 5 -8 2 -9 -12 -4 -31
12 -55 16 -49 7 9 -15 -23 -20 -35 -6 -11 13 -34 14 -46 2 -4 -4 -13 -2 -20 4
-10 9 -15 7 -20 -5 -3 -9 -10 -13 -15 -10 -5 3 -7 10 -4 15 11 16 -7 10 -22
-8 -11 -14 -14 -14 -10 -3 3 10 -2 16 -13 16 -10 0 -17 -4 -14 -7 2 -4 0 -10
-6 -14 -5 -3 -10 2 -11 12 0 10 -3 13 -6 6 -3 -9 -10 -10 -23 -3 -13 7 -21 7
-26 -2 -4 -7 -3 -8 4 -4 7 4 12 2 12 -3 0 -16 -11 -13 -32 6 -18 16 -18 16
-12 0z m1844 -441 c0 -3 -4 -8 -10 -11 -5 -3 -10 -1 -10 4 0 6 5 11 10 11 6 0
10 -2 10 -4z"/>
<path d="M950 3770 c0 -5 5 -10 11 -10 5 0 7 5 4 10 -3 6 -8 10 -11 10 -2 0
-4 -4 -4 -10z"/>
<path d="M1750 3770 c0 -5 5 -10 11 -10 5 0 7 5 4 10 -3 6 -8 10 -11 10 -2 0
-4 -4 -4 -10z"/>
<path d="M2626 3764 c-9 -8 -16 -11 -16 -5 0 6 -5 11 -11 11 -7 0 -9 -9 -6
-21 4 -16 2 -19 -10 -15 -13 5 -14 4 -4 -8 7 -8 10 -20 6 -25 -3 -7 0 -8 9 -5
9 3 16 2 16 -3 0 -5 9 -9 20 -9 11 0 20 4 20 8 0 5 9 4 20 -2 15 -8 20 -8 20
2 0 9 3 9 10 -2 6 -10 10 -11 10 -3 0 9 7 10 24 3 13 -5 27 -6 30 -3 3 3 13 0
23 -8 15 -12 16 -12 9 1 -4 8 -1 7 7 -3 11 -14 16 -15 20 -5 4 11 6 11 6 0 1
-8 6 -10 14 -6 8 5 7 2 -2 -9 -12 -15 -12 -17 1 -12 8 3 21 -2 29 -11 9 -12
10 -15 2 -10 -7 4 -13 2 -13 -3 0 -6 5 -11 11 -11 5 0 7 -4 4 -10 -3 -5 1 -10
11 -10 13 0 14 -3 5 -14 -8 -10 -8 -16 2 -24 13 -11 16 -50 4 -69 -4 -7 -4
-14 1 -17 9 -5 9 -47 -1 -63 -4 -5 -4 -13 0 -17 10 -9 10 -57 1 -62 -5 -3 -5
-10 -1 -17 10 -16 10 -58 1 -63 -5 -3 -5 -11 -1 -17 11 -19 11 -47 -1 -47 -7
0 -6 -3 1 -8 12 -7 10 -48 -2 -60 -2 -3 0 -11 6 -18 7 -9 7 -19 -1 -35 -9 -15
-9 -19 -1 -14 8 4 10 -2 7 -20 -3 -15 -8 -30 -10 -33 -3 -3 -1 -11 5 -18 7 -9
7 -19 -1 -35 -8 -15 -9 -19 -1 -15 12 8 11 -21 -2 -41 -5 -7 -4 -13 0 -13 10
0 10 -66 0 -76 -4 -4 -2 -13 4 -20 7 -9 7 -19 -1 -35 -9 -15 -9 -19 -1 -14 8
4 10 -2 7 -20 -3 -15 -8 -30 -10 -33 -3 -3 -1 -11 5 -18 7 -9 7 -19 -1 -35 -7
-13 -8 -19 -2 -15 14 8 11 -56 -3 -66 -6 -5 -6 -8 2 -8 12 0 12 -45 0 -57 -4
-3 -2 -12 4 -19 7 -9 7 -19 -1 -35 -9 -15 -9 -19 -1 -14 8 4 10 -2 7 -20 -3
-15 -8 -30 -10 -33 -3 -3 -1 -11 5 -18 7 -9 7 -19 -1 -35 -8 -15 -9 -19 -1
-15 12 8 11 -21 -2 -41 -5 -7 -4 -13 0 -13 10 0 10 -66 0 -76 -4 -4 -2 -13 4
-20 7 -9 7 -19 -1 -35 -9 -15 -9 -19 -1 -14 8 4 10 -2 7 -20 -3 -15 -8 -30
-10 -33 -3 -3 -1 -11 5 -18 7 -9 7 -19 -1 -35 -7 -12 -8 -19 -2 -16 10 7 9
-63 -1 -80 -4 -7 -4 -14 1 -17 9 -5 9 -47 -1 -63 -4 -7 -4 -14 1 -17 9 -5 9
-47 -1 -63 -4 -7 -4 -14 1 -17 9 -5 9 -47 -1 -63 -4 -7 -4 -14 1 -17 10 -6 9
-142 -1 -152 -4 -4 -2 -13 4 -20 7 -9 7 -19 -1 -35 -9 -15 -9 -19 -1 -14 8 4
10 -2 7 -20 -3 -15 -8 -30 -10 -33 -3 -3 -1 -11 5 -18 7 -9 7 -19 -1 -35 -10
-17 -9 -20 1 -14 9 6 10 3 4 -11 -4 -10 -8 -31 -9 -46 0 -15 -4 -24 -8 -22 -8
5 -12 -11 -9 -29 1 -5 -3 -6 -9 -2 -5 3 -10 1 -10 -5 0 -6 -6 -18 -14 -26 -11
-11 -16 -11 -19 -1 -3 7 -6 4 -6 -6 -1 -10 -5 -15 -11 -12 -5 3 -19 1 -31 -6
-17 -9 -20 -8 -13 3 6 11 5 11 -9 -1 -14 -11 -17 -11 -17 0 -1 10 -4 8 -11 -4
-8 -14 -14 -15 -31 -6 -15 8 -19 8 -14 0 11 -17 -11 -13 -30 6 -17 17 -18 17
-11 1 7 -19 -15 -21 -42 -4 -10 7 -12 6 -6 -4 5 -8 2 -18 -9 -25 -15 -11 -13
-14 14 -25 16 -7 27 -17 24 -22 -4 -6 3 -5 14 1 27 14 35 14 26 -1 -6 -10 -4
-10 7 0 15 14 33 17 25 4 -3 -5 1 -9 9 -9 8 0 12 4 9 9 -3 4 0 8 5 8 6 0 11
-6 11 -12 0 -9 4 -8 10 2 9 13 11 13 20 0 6 -10 10 -11 10 -2 0 6 5 12 11 12
5 0 7 -6 3 -12 -5 -9 -2 -9 9 1 14 11 17 11 17 0 0 -12 2 -12 9 0 7 11 9 11
14 0 5 -12 6 -12 6 0 1 11 4 11 18 0 15 -12 16 -12 10 4 -8 21 -3 22 17 1 12
-12 16 -12 16 -2 0 10 3 9 10 -2 8 -12 10 -12 10 -1 0 11 3 11 17 0 15 -12 16
-12 9 6 -5 15 -4 17 5 8 6 -6 18 -9 27 -6 11 5 13 2 7 -8 -6 -11 -5 -12 6 -1
15 14 33 17 25 4 -3 -5 1 -9 9 -9 8 0 12 4 9 9 -3 4 0 8 5 8 6 0 11 -6 11 -12
0 -9 4 -8 10 2 9 13 11 13 20 0 6 -10 10 -11 10 -2 0 6 5 12 11 12 5 0 7 -6 3
-12 -5 -9 -2 -9 9 1 14 11 17 11 17 0 0 -12 2 -12 9 0 7 11 9 11 14 0 5 -12 6
-12 6 0 1 11 4 11 18 0 15 -12 16 -12 10 4 -8 21 -3 22 17 1 12 -12 16 -12 16
-2 0 10 3 9 10 -2 8 -12 10 -12 10 -1 0 11 3 11 17 0 15 -12 16 -12 9 6 -5 15
-4 17 5 8 6 -6 18 -9 27 -6 11 5 13 2 7 -8 -6 -11 -5 -12 6 -2 15 15 33 18 25
5 -3 -5 1 -9 9 -9 8 0 12 4 9 9 -3 4 0 8 5 8 6 0 11 -6 11 -12 0 -9 4 -8 10 2
9 13 11 13 20 0 6 -10 10 -11 10 -2 0 6 5 12 11 12 5 0 7 -6 3 -12 -6 -10 -4
-10 7 0 15 14 33 17 25 4 -3 -5 1 -9 9 -9 8 0 12 4 9 9 -3 4 -1 8 5 8 5 0 13
-5 16 -10 5 -8 11 -7 21 1 11 9 14 8 14 -2 0 -11 2 -11 10 1 8 12 13 13 29 3
16 -10 23 -10 34 2 8 8 17 11 21 8 3 -4 6 -1 6 5 0 7 -4 12 -9 12 -5 0 -7 10
-3 22 3 15 2 19 -7 14 -6 -4 -19 -2 -28 6 -12 9 -15 9 -9 1 4 -8 1 -13 -9 -13
-10 0 -13 5 -9 13 6 9 4 9 -8 -1 -13 -10 -17 -10 -21 0 -4 10 -6 10 -6 -1 -1
-11 -6 -10 -23 5 -16 13 -19 14 -10 2 12 -14 9 -16 -23 -13 -20 2 -44 10 -53
17 -14 11 -15 11 -8 -6 7 -20 7 -20 -15 0 -14 11 -19 13 -14 4 8 -13 7 -13 -8
-1 -9 7 -17 10 -17 6 0 -4 -7 -2 -15 5 -8 7 -15 9 -15 6 0 -4 -6 -1 -14 6 -8
7 -12 16 -9 21 2 4 -3 7 -12 7 -9 0 -13 5 -10 10 3 5 1 10 -5 10 -6 0 -8 5 -5
10 3 6 1 10 -4 10 -6 0 -11 8 -11 18 0 10 -6 24 -12 31 -10 11 -10 13 0 7 13
-8 17 6 5 18 -11 10 -12 37 -2 30 5 -3 9 0 9 5 0 6 -4 11 -10 11 -5 0 -10 14
-10 31 0 21 4 28 13 24 6 -4 3 1 -7 9 -11 9 -16 16 -10 16 5 0 9 18 9 40 0 22
-4 40 -9 40 -6 0 -1 7 10 15 10 8 14 14 8 13 -10 -3 -16 5 -13 15 7 22 5 37
-4 38 -7 0 -3 4 8 9 16 7 17 9 3 9 -11 1 -15 7 -11 21 3 11 10 17 17 14 6 -3
2 2 -8 10 -11 9 -16 16 -10 16 5 0 9 18 9 40 0 22 -4 40 -9 40 -6 0 -1 7 10
16 10 8 14 13 7 10 -6 -4 -14 -2 -18 4 -3 5 -3 10 2 10 4 0 8 18 8 40 0 22 -4
40 -9 40 -6 0 -1 7 10 16 10 8 13 12 6 9 -10 -5 -13 0 -11 21 2 16 0 35 -4 42
-5 6 -5 12 0 12 10 0 9 63 -2 80 -6 10 -4 12 10 6 18 -7 18 -6 1 13 -12 13
-14 21 -6 26 8 5 8 11 -1 21 -6 8 -8 14 -3 14 11 0 10 62 -1 80 -6 10 -4 12
10 6 16 -6 16 -4 4 10 -27 33 0 86 30 61 12 -9 13 -9 7 1 -4 7 -1 12 9 12 9 0
14 -4 11 -8 -2 -4 4 -8 15 -8 10 0 19 3 19 6 0 3 24 4 52 2 136 -7 168 -6 168
1 0 5 4 5 10 2 20 -12 49 -14 44 -2 -2 7 6 13 21 13 14 1 23 -2 20 -6 -6 -10
15 -8 32 3 6 4 15 2 19 -4 5 -8 9 -7 14 2 7 10 12 10 26 -2 15 -11 16 -12 9 0
-6 11 -2 13 18 9 15 -3 24 -1 21 3 -3 5 7 9 21 9 18 0 24 4 19 13 -5 8 -2 8 9
-2 9 -7 17 -9 17 -4 0 5 10 9 23 8 12 -1 25 3 29 9 5 7 8 6 8 -4 0 -13 2 -13
9 -1 5 8 18 15 29 16 11 0 31 9 46 18 19 13 26 14 26 5 0 -9 3 -8 10 2 5 8 10
11 10 6 0 -6 7 -1 16 10 8 10 13 12 9 4 -4 -8 3 -4 15 10 19 21 21 22 16 5 -6
-19 -5 -19 8 -1 8 10 19 15 25 11 7 -3 8 0 5 9 -4 11 0 16 15 16 12 0 21 5 21
10 0 6 7 10 15 10 9 0 18 7 21 15 4 8 10 12 15 9 5 -3 9 0 9 6 0 15 26 41 34
33 3 -4 6 1 6 10 0 10 7 17 15 17 8 0 15 7 15 16 0 8 5 12 10 9 6 -3 10 1 10
9 0 9 8 16 18 17 9 0 12 3 5 6 -8 3 -3 13 14 29 14 13 21 24 14 24 -9 0 -8 4
1 14 7 8 17 11 22 8 5 -3 6 1 1 8 -4 7 -3 15 3 19 7 4 13 16 15 26 9 47 20 75
27 70 10 -6 8 15 -3 32 -4 6 -3 14 2 17 5 4 11 3 14 -1 2 -5 2 -2 0 6 -2 8 2
18 9 23 10 8 10 11 1 15 -8 3 -10 11 -5 21 5 9 7 27 6 40 0 12 3 22 8 22 5 0
6 5 2 12 -4 6 -8 34 -9 60 0 39 2 47 15 43 12 -5 13 -4 3 6 -7 7 -13 21 -13
32 0 11 -5 15 -11 11 -8 -4 -8 0 0 15 9 16 9 21 0 21 -8 0 -8 4 1 15 10 12 10
15 0 15 -10 0 -10 3 -1 14 9 11 9 15 0 18 -6 2 -14 19 -16 38 -2 19 -8 39 -15
45 -8 7 -9 6 -3 -4 6 -10 4 -12 -4 -7 -9 6 -9 11 0 22 9 11 9 14 -1 14 -6 0
-10 5 -8 12 3 7 -6 22 -19 34 -23 21 -32 41 -13 29 6 -3 10 -1 10 4 0 6 -6 11
-13 11 -8 0 -19 12 -26 27 -7 15 -21 33 -32 41 -10 7 -19 20 -19 29 0 13 -3
13 -15 3 -13 -11 -14 -10 -9 4 3 9 1 16 -6 16 -6 0 -8 5 -5 10 3 6 -4 10 -17
10 -18 0 -20 2 -8 10 12 8 10 10 -8 10 -16 0 -21 4 -16 13 4 6 4 9 -1 5 -4 -4
-14 -3 -22 3 -7 6 -13 8 -13 5 0 -4 -6 -1 -14 6 -8 7 -12 16 -9 21 2 4 1 6 -4
5 -4 -1 -18 4 -31 11 -13 7 -30 10 -38 7 -8 -3 -13 0 -11 7 1 7 -7 12 -18 12
-12 1 -19 7 -17 15 3 11 0 11 -12 0 -12 -9 -16 -9 -16 -1 0 7 -5 9 -10 6 -6
-3 -13 2 -17 11 -6 16 -7 16 -14 -2 -7 -18 -8 -18 -8 1 -1 17 -3 17 -11 5 -6
-10 -10 -11 -10 -2 0 7 -14 12 -37 12 -30 0 -35 3 -23 11 12 9 11 10 -5 4 -36
-12 -56 -14 -50 -4 6 8 -9 13 -29 10 -5 -1 -13 4 -17 11 -5 7 -9 8 -9 2 0 -15
-121 -7 -138 10 -2 3 -16 -1 -31 -8 -29 -15 -55 -11 -44 7 5 9 3 9 -8 0 -11
-9 -74 -12 -74 -3 0 1 -10 3 -23 4 -13 2 -26 -4 -31 -12 -7 -12 -9 -12 -14 2
-6 14 -10 14 -27 4 -15 -10 -22 -10 -31 -1 -10 10 -16 8 -26 -5 -14 -16 -14
-16 -8 3 5 16 4 18 -6 8 -7 -7 -17 -13 -22 -13 -4 0 -5 6 0 13 4 6 -6 4 -21
-7 -16 -10 -26 -13 -22 -8 9 14 -15 21 -36 11 -10 -6 -19 -5 -23 2 -5 6 -12 4
-22 -8 -14 -17 -14 -17 -8 2 5 16 4 18 -6 8 -7 -7 -17 -13 -22 -13 -4 0 -5 6
0 13 4 6 -6 4 -21 -7 -16 -10 -26 -13 -22 -8 9 14 -15 21 -36 11 -10 -6 -19
-5 -23 2 -5 6 -12 4 -22 -8 -14 -17 -14 -17 -8 2 5 16 4 18 -6 8 -7 -7 -17
-13 -22 -13 -4 0 -5 6 0 13 4 6 -6 4 -21 -7 -16 -10 -26 -13 -22 -8 9 14 -15
21 -36 11 -10 -6 -19 -5 -23 2 -5 6 -12 4 -22 -8 -14 -17 -14 -17 -8 2 5 16 4
18 -6 8 -7 -7 -17 -13 -22 -13 -4 0 -5 6 0 13 4 6 -6 4 -21 -7 -16 -10 -26
-13 -22 -8 9 14 -15 21 -36 11 -10 -6 -19 -5 -23 2 -5 6 -12 4 -22 -8 -14 -17
-14 -17 -8 2 5 16 4 18 -6 8 -15 -15 -33 -17 -24 -3 9 15 -2 12 -19 -6z m749
-74 c-3 -5 -1 -10 4 -10 6 0 11 4 11 8 0 10 30 9 48 -2 6 -4 12 -3 12 2 0 10
30 9 47 -1 6 -4 13 -1 16 5 3 10 7 10 17 1 8 -7 20 -9 35 -3 12 4 28 5 35 0 7
-4 19 -6 26 -3 6 2 15 -1 19 -7 5 -8 10 -8 20 0 10 8 15 8 20 0 5 -8 11 -8 19
-1 9 8 19 5 34 -10 12 -11 22 -16 22 -11 0 14 51 1 57 -14 2 -7 11 -10 19 -7
8 3 14 0 14 -7 0 -7 6 -10 14 -7 8 3 20 -2 28 -11 12 -16 11 -16 -7 -2 -19 14
-19 14 -6 -2 7 -10 22 -18 32 -18 11 0 19 -5 19 -11 0 -5 4 -7 10 -4 6 4 7 -1
3 -11 -5 -13 -3 -16 10 -11 9 3 16 3 15 -1 -3 -15 14 -42 23 -36 5 3 9 2 8 -3
-4 -16 21 -63 33 -63 9 0 8 -3 -2 -10 -13 -8 -12 -10 4 -10 11 0 16 -3 13 -6
-3 -4 -1 -16 5 -28 6 -11 13 -34 15 -51 2 -16 8 -34 13 -39 6 -6 6 -14 -1 -22
-7 -8 -7 -14 1 -19 5 -3 10 -19 10 -35 0 -16 5 -32 10 -35 13 -8 13 -25 -1
-25 -5 0 -7 5 -3 12 4 7 3 8 -4 4 -6 -4 -9 -13 -6 -21 4 -8 9 -13 13 -11 4 3
8 -4 8 -15 1 -11 -2 -17 -6 -15 -10 6 -8 -45 2 -61 4 -6 3 -14 -3 -18 -6 -4
-8 -11 -4 -16 3 -5 9 -7 14 -4 4 3 6 -4 3 -16 -4 -14 -8 -17 -13 -8 -5 7 -7 1
-7 -14 1 -15 6 -27 12 -27 5 0 4 -5 -3 -12 -8 -8 -8 -17 -1 -31 8 -14 8 -18 0
-13 -6 4 -11 2 -11 -3 0 -6 6 -11 13 -11 8 0 8 -3 -2 -9 -8 -5 -12 -19 -9 -35
3 -14 1 -26 -3 -26 -5 0 -6 -7 -3 -15 4 -8 0 -23 -7 -32 -12 -14 -12 -16 1 -8
13 7 13 6 2 -7 -10 -13 -10 -17 0 -21 8 -3 6 -6 -5 -6 -12 -1 -17 -7 -15 -19
1 -10 -5 -31 -16 -46 -10 -16 -13 -25 -7 -22 7 5 9 1 5 -8 -3 -9 -11 -13 -18
-9 -6 4 -4 -2 4 -12 9 -11 10 -16 3 -11 -9 5 -13 1 -13 -12 0 -11 -7 -23 -16
-26 -8 -3 -13 -10 -9 -15 3 -5 -4 -12 -15 -16 -11 -4 -18 -11 -15 -16 4 -5 1
-9 -5 -9 -6 0 -8 -5 -4 -12 5 -8 2 -9 -10 -5 -11 4 -15 3 -11 -4 4 -6 -2 -13
-14 -16 -11 -3 -18 -9 -15 -14 3 -5 -2 -9 -10 -9 -9 0 -16 -4 -16 -10 0 -5 -7
-10 -16 -10 -9 0 -12 -5 -8 -12 5 -8 0 -7 -11 2 -17 13 -18 13 -13 -1 5 -13 0
-17 -20 -16 -14 0 -28 -5 -30 -11 -2 -6 -10 -8 -18 -5 -8 3 -17 -2 -20 -12 -5
-11 -9 -13 -14 -5 -3 6 -14 8 -23 4 -9 -3 -14 -11 -11 -16 4 -6 -1 -6 -13 1
-14 7 -23 7 -30 0 -8 -8 -18 -7 -33 1 -18 10 -21 9 -15 -1 6 -9 3 -11 -8 -6
-10 4 -17 1 -17 -6 0 -8 -4 -6 -10 3 -6 9 -10 10 -10 3 0 -8 -9 -9 -29 -3 -25
7 -29 6 -24 -7 5 -12 0 -12 -23 3 -15 11 -25 13 -21 7 5 -7 4 -13 -2 -13 -6 0
-11 4 -11 8 0 5 -6 9 -14 9 -8 0 -12 -6 -8 -15 4 -11 -2 -10 -24 4 -15 11 -25
13 -21 7 5 -7 4 -13 -2 -13 -6 0 -11 4 -11 8 0 11 -39 12 -45 1 -4 -5 -12 -6
-18 -2 -6 4 -26 6 -45 5 -31 -3 -33 -1 -31 25 2 15 0 34 -4 41 -5 6 -5 12 0
12 10 0 9 63 -2 80 -6 10 -4 12 10 6 18 -7 18 -6 1 13 -12 13 -14 21 -6 26 8
5 8 11 -1 21 -6 8 -8 14 -3 14 11 0 10 62 -1 80 -6 10 -4 12 10 6 18 -7 18 -6
1 13 -12 13 -14 21 -6 26 8 5 8 11 -1 21 -6 8 -8 14 -3 14 11 0 10 62 -1 80
-6 10 -4 12 10 6 18 -7 18 -6 1 13 -12 13 -14 21 -6 26 8 5 8 11 -1 21 -6 8
-8 14 -3 14 11 0 10 62 -1 80 -6 10 -4 12 10 6 18 -7 18 -6 1 13 -12 13 -14
21 -6 26 8 5 8 11 -1 21 -6 8 -8 14 -3 14 11 0 10 62 -1 80 -6 10 -4 12 11 6
17 -6 18 -6 3 9 -18 18 -14 68 5 59 6 -3 2 2 -8 10 -11 9 -16 16 -10 16 12 0
12 80 -1 80 -5 0 -1 7 9 15 20 15 20 15 0 16 -10 0 -14 2 -9 5 6 2 9 26 8 54
-1 27 3 52 8 55 5 4 9 11 9 16 0 6 -4 8 -8 5 -5 -3 -9 1 -9 9 0 8 4 12 9 9 4
-3 8 0 8 5 0 6 -6 11 -12 11 -8 0 -9 3 -3 8 10 7 12 14 20 54 6 27 35 66 36
48 0 -13 1 -13 6 0 9 22 30 40 47 40 8 0 18 5 21 10 3 6 8 10 11 10 3 0 2 -4
-1 -10z m738 -605 c-7 -21 -12 -19 -10 4 0 11 5 18 9 15 4 -3 5 -11 1 -19z
m-758 -745 c3 -6 -1 -7 -9 -4 -18 7 -21 14 -7 14 6 0 13 -4 16 -10z"/>
<path d="M3790 3639 c0 -5 5 -7 10 -4 6 3 10 8 10 11 0 2 -4 4 -10 4 -5 0 -10
-5 -10 -11z"/>
<path d="M3570 3769 c0 -5 5 -7 10 -4 6 3 10 8 10 11 0 2 -4 4 -10 4 -5 0 -10
-5 -10 -11z"/>
<path d="M152 3680 c0 -14 2 -19 5 -12 2 6 2 18 0 25 -3 6 -5 1 -5 -13z"/>
<path d="M2010 3500 c0 -5 5 -10 11 -10 5 0 7 5 4 10 -3 6 -8 10 -11 10 -2 0
-4 -4 -4 -10z"/>
<path d="M2280 3440 c0 -5 5 -10 11 -10 5 0 7 5 4 10 -3 6 -8 10 -11 10 -2 0
-4 -4 -4 -10z"/>
<path d="M151 3364 c0 -11 3 -14 6 -6 3 7 2 16 -1 19 -3 4 -6 -2 -5 -13z"/>
<path d="M151 3284 c0 -11 3 -14 6 -6 3 7 2 16 -1 19 -3 4 -6 -2 -5 -13z"/>
<path d="M152 3200 c0 -14 2 -19 5 -12 2 6 2 18 0 25 -3 6 -5 1 -5 -13z"/>
<path d="M151 2884 c0 -11 3 -14 6 -6 3 7 2 16 -1 19 -3 4 -6 -2 -5 -13z"/>
<path d="M151 2804 c0 -11 3 -14 6 -6 3 7 2 16 -1 19 -3 4 -6 -2 -5 -13z"/>
<path d="M152 2720 c0 -14 2 -19 5 -12 2 6 2 18 0 25 -3 6 -5 1 -5 -13z"/>
<path d="M1773 2655 c0 -8 4 -12 9 -9 5 3 6 10 3 15 -9 13 -12 11 -12 -6z"/>
<path d="M1775 2441 c-3 -5 -2 -12 3 -15 5 -3 9 1 9 9 0 17 -3 19 -12 6z"/>
<path d="M151 2404 c0 -11 3 -14 6 -6 3 7 2 16 -1 19 -3 4 -6 -2 -5 -13z"/>
<path d="M151 2324 c0 -11 3 -14 6 -6 3 7 2 16 -1 19 -3 4 -6 -2 -5 -13z"/>
<path d="M152 2240 c0 -14 2 -19 5 -12 2 6 2 18 0 25 -3 6 -5 1 -5 -13z"/>
<path d="M1773 2175 c0 -8 4 -12 9 -9 5 3 6 10 3 15 -9 13 -12 11 -12 -6z"/>
<path d="M1775 1961 c-3 -5 -2 -12 3 -15 5 -3 9 1 9 9 0 17 -3 19 -12 6z"/>
<path d="M151 1924 c0 -11 3 -14 6 -6 3 7 2 16 -1 19 -3 4 -6 -2 -5 -13z"/>
<path d="M151 1844 c0 -11 3 -14 6 -6 3 7 2 16 -1 19 -3 4 -6 -2 -5 -13z"/>
<path d="M152 1760 c0 -14 2 -19 5 -12 2 6 2 18 0 25 -3 6 -5 1 -5 -13z"/>
<path d="M151 1444 c0 -11 3 -14 6 -6 3 7 2 16 -1 19 -3 4 -6 -2 -5 -13z"/>
<path d="M151 1364 c0 -11 3 -14 6 -6 3 7 2 16 -1 19 -3 4 -6 -2 -5 -13z"/>
<path d="M152 1280 c0 -14 2 -19 5 -12 2 6 2 18 0 25 -3 6 -5 1 -5 -13z"/>
<path d="M2590 1039 c0 -5 5 -7 10 -4 6 3 10 8 10 11 0 2 -4 4 -10 4 -5 0 -10
-5 -10 -11z"/>
<path d="M151 964 c0 -11 3 -14 6 -6 3 7 2 16 -1 19 -3 4 -6 -2 -5 -13z"/>
<path d="M151 884 c0 -11 3 -14 6 -6 3 7 2 16 -1 19 -3 4 -6 -2 -5 -13z"/>
<path d="M152 800 c0 -14 2 -19 5 -12 2 6 2 18 0 25 -3 6 -5 1 -5 -13z"/>
<path d="M151 484 c0 -11 3 -14 6 -6 3 7 2 16 -1 19 -3 4 -6 -2 -5 -13z"/>
<path d="M151 404 c0 -11 3 -14 6 -6 3 7 2 16 -1 19 -3 4 -6 -2 -5 -13z"/>
<path d="M152 320 c0 -14 2 -19 5 -12 2 6 2 18 0 25 -3 6 -5 1 -5 -13z"/>
</g>
</svg>
