<svg version="1" xmlns="http://www.w3.org/2000/svg" viewBox="0 0 512 512"><path d="M176.9 60.9c-2.4 3.2-8.3 10-13.1 15l-8.7 9.1-3.1-5.4c-3.4-6-15.4-19.5-16.4-18.5-.4.4-.9 1.8-1.2 3.3-1.1 6-4 11.1-10.6 18.4L120 87l-8-3c-12.7-4.7-27.2-5.6-36-2.2-1.4.6-4.4 2.4-6.8 4.2l-4.3 3.1 3 3.5c5.7 6.4 8.1 12.8 8.7 22.9.4 8.4 1.3 14.3 2.8 18.5 1.3 3.8 1.3 4-.8 4.1-11.2.6-20.2 2.1-24.1 4.2-1.1.6-2.6 1.2-3.3 1.3-.8.1-3.9 1.7-7 3.6-8.1 4.7-19.8 17-25.6 26.9-6 10-15.3 36.6-13.6 38.3.8.8 1.7.3 3.3-1.9 8.4-11.7 17.7-13 37.1-4.9 6.1 2.5 14.5 5.8 18.6 7.2 4.1 1.5 7.7 2.8 7.9 2.9.2.2-1.4 2.9-3.6 6-6.7 9.7-8.3 14-10.7 27.9-2.1 12.2-.9 35.7 2.6 48.9.6 2.2 1.1 4.4 1.2 5 .6 3.6 1.9 3.3 6.4-1.3 5.4-5.5 11.6-8 23.7-9.7 2.2-.3 6.4-.8 9.3-1 2.9-.3 5.9-.6 6.5-.8 2.4-.4 1 8.9-2.5 16.7-3.1 7.2-3.5 7.6-5.8 6.9-1.4-.4-6.1-.7-10.5-.7-6.4 0-8.9.4-12.2 2.2-5.4 2.8-5.7 3.4-3.2 6.6 1.1 1.4 1.8 2.6 1.4 2.6-.3 0 .2 1.4 1.1 3.1 1.1 2.3 1.6 6.5 1.8 15.5.2 6.8-.1 12.1-.5 11.9-.4-.3-4.8 1.5-9.8 3.9-9.7 4.7-12 4.9-17.7 1.1-2.9-1.9-3.5-.9-2.4 3.8 1.5 6.7 7.3 14.8 19.5 27.1 11.7 11.8 17.2 15.6 27.7 19.5l2.7 1-2 4.6c-3.5 7.8-3.1 25.5.6 29.4 1.1 1.1 1.8.7 4-2.7 4-6 5.3-6.7 17-8.8 1.1-.1 4-.6 6.5-.9 10.2-1.2 13.7-2.7 19-7.6l2.5-2.4 4.3 4.7c4.7 5.1 11.7 8.8 22 11.7 3.7 1 7.9 2.4 9.5 3 1.5.6 2.7.8 2.7.4s1.3.6 2.9 2.1c2.7 2.6 3 2.7 3.9 1 1.2-2.2.8-12.5-.7-17.2-.5-1.8-2-4.9-3.2-6.8-1.1-1.9-2-3.7-1.8-3.9.2-.1 2.7-.5 5.4-.8 20-1.9 34.2-13 49-38.1 1-1.7 4.5-2 17-1.7l3 .1-3.5 2.1c-10.5 6.4-21.9 19.8-27.4 32.3-2.6 6-6.4 18-6.4 20.6 0 .8-.3 2.4-.5 3.6-1.1 4.5-1.7 17.3-.9 17.8.5.3 3.1-.6 5.8-2 4.2-2.2 5.8-2.5 11.4-2.1 3.6.3 7.6.9 9 1.2 1.4.4 3.2.8 4 .9.9.1 2 .4 2.5.7 4.1 2.3 38.1 1.3 42.7-1.2 1-.5 1.8-.8 1.8-.5 0 1 14.8-4.7 20.5-7.9 6.4-3.6 14.5-10 17.5-13.8l1.8-2.3 9 8.5c9.3 8.9 12 12.8 11.6 17.1-.3 3.9 1.5 4.1 6.6.4 11.9-8.6 20.2-21.1 21.7-32.8.5-4 .8-4.2 4.6-2.4 3.1 1.5 14.5 4.9 21.2 6.4 7.6 1.6 30.4 1 38-1 .6-.2 2.4-.6 4-1.1 7.3-1.9 16.7-7.9 21.8-13.9 9.2-10.7 21.2-22 25.8-24.2 2.4-1.2 5.9-2.7 7.7-3.5l3.3-1.4-4.5-6.2c-10.5-14.3-25.2-25.4-35-26.2-.4-.1.3-1.6 1.6-3.4 1.4-1.7 3.4-5 4.6-7.2 2-4.1 4.7-12.2 6.6-20 .4-1.7 1.2-4.8 1.7-6.9.6-2.2 1.2-4.6 1.4-5.5.7-3.3 5.4-12.8 8.9-17.8 1.9-2.9 3.2-5.4 2.7-5.7-.4-.3-2.6-.8-4.7-1.1-2.2-.4-5.2-.9-6.9-1.2-1.6-.4-8.4-.6-15-.6-10.4 0-14.2.3-19 1.7-.5.2-2.3.6-4 1.1-1.6.4-6 2.3-9.7 4.1-7.7 3.9-7.5 3.8-7.5 2.1-.1-1.3-.7-4.6-1.8-9.2-1.3-5.2-4.5-11.7-10.9-21.8-3.3-5.4-7.7-12.3-9.6-15.4-1.9-3.1-4-5.8-4.6-6-.6-.2-3.6 2.7-6.7 6.5-3 3.8-7.8 8.7-10.5 11l-5 4.2-2.3-4.6c-1.3-2.5-5.4-7.5-9.1-11L366 234l-.3-6.1c-.4-6.6-.4-6.5 5.7-7.4 4.9-.7 10.3-3.2 12-5.6 1.2-1.7 1.5-1.6 4.7 1.7 3.9 4.2 8.3 6.4 19.3 9.8 4.3 1.4 8.9 3.2 10.2 4.1 3 2 3.9.6 3.8-6.2-.1-3.5-1-7-2.6-10.3-1.5-2.9-2-5.1-1.4-5.2.6 0 2.2-.2 3.6-.4 6.8-.8 9.5-1.5 13.8-3.9 7.9-4.3 13.7-10 20.8-20.6 6.6-9.9 13.8-16.8 17.5-16.9 2.8 0 4.4-2.7 2.8-4.8-5.2-6.9-9.1-9.7-15-10.8-1.9-.3-4.1-.7-4.9-.9-.8-.2-3.6-.4-6.2-.4l-4.6-.1.8-3.3c1.4-5.3 1.9-13.8 1.1-20.9-.5-4.4-.3-8.2.5-10.9.7-2.4 1-4.7.7-5.2-.9-1.5-12 .2-17.6 2.7-2.8 1.3-7.2 3.7-9.7 5.4l-4.5 3.1-4.7-4.9c-2.6-2.8-5.7-6.8-6.8-9-1.9-3.7-2.3-3.9-5.3-3.3-5.6 1-9.4 3-14.2 7.4-4.2 3.9-4.7 4.1-6.3 2.6-2.7-2.4-10.3-5.4-15.9-6.2-4.6-.6-5.3-.4-6.3 1.5-.6 1.2-.9 2.8-.6 3.6.3.8-.8 4.6-2.5 8.3l-3.1 6.9-3.5-1c-3.4-.9-8.5-.7-14.3.6-1.4.3-3.4 1.6-4.5 2.8-3.6 4.1-7.8 2.9-15.4-4.5-10.7-10.4-17.7-13.3-29.8-12.4-8.6.6-11.5 1.3-16 3.7-2.3 1.2-4.2 1.6-5.1 1.1-1-.5-3.1-.4-5.3.4l-3.7 1.3.1-7.6c0-9.6-.4-11.7-4.1-18.9-4.2-8.2-4.9-10.8-5.6-20.8-.1-2.5-4-2.6-15.6-.1-7.6 1.5-16 5.6-20.8 9.9l-2.2 2.1-5.1-5c-6.1-5.9-13.5-15.6-15.4-20-.7-1.7-1.7-3.4-2.3-3.8-.5-.3-2.9 2.1-5.3 5.3zm1.6 13.8c-.1 3.2.2 7.1.5 8.8.6 2.8.7 2.7 1.5-1.8.4-2.6.9-4.6 1.1-4.4.3.2 1.3 3.4 2.3 7.1 1.8 6.6 1.8 6.7-.2 7.8-2 1-23.3.5-24.5-.6-.7-.8 4.6-8.6 5.9-8.6.5 0 .3 1-.5 2.2-1.7 2.4-2.1 5.8-.7 5.8.5 0 1.5-1.3 2.3-2.9 1-2.1 11.8-18.8 12.4-19.1 0 0 0 2.6-.1 5.7zm12 12.8c.8 3.3 4.6 14.9 5.5 16.3 1.8 2.8.5-7.3-1.9-15.2-1.1-3.8-1.9-7.1-1.8-7.2.2-.2 3 2.2 6.4 5.2 10.1 8.9 14.8 21.8 12.9 34.7-.6 3.7-1.3 4.8-5.1 7.5-6.6 4.7-14.8 4.9-15.1.5-.1-1-1.2-4.9-2.4-8.7-2.7-8.3-2.9-17.4-.4-27.1.4-1.7.2-2.7-.8-3-.9-.4-1.4-2.1-1.4-4.8-.1-2.3-.4-5.6-.8-7.2-.4-1.9.3-1.1 2.1 2.5 1.4 3 2.7 5.9 2.8 6.5zm-40.9 0l2.1 5.1-2.4.2c-1.3.1-4 .9-6 1.7-2 .8-3.8 1.3-4 1.1-.3-.2 0-2 .5-3.9.6-2 .9-5.6.9-8-.2-5.1.7-5.3 1.7-.5.8 4.2 2.6 2 2-2.6l-.4-3.1 1.7 2.4c1 1.4 2.7 4.8 3.9 7.6zm76.7-6.3c-4.1 4.3-9.3 13.9-9.3 17.2 0 4.1-1.2 3-4.7-4l-3.2-6.4 3.5-2.6c3.1-2.4 13.7-7.3 15.8-7.4.6 0-.4 1.5-2.1 3.2zm13.1 2c.4 2.6 2.4 8.3 4.5 12.6 2.9 6.1 3.8 9.2 3.9 13.8.3 8.9-1.1 10.5-8.9 10.9-5.7.2-16.9 1.9-20.9 3-1.3.4-1.5-1.2-1.3-10.5.2-11 .2-11.1 4.4-18.3 5.6-9.7 10.7-14.8 6.8-6.8-3.4 7-6 21.1-4 21.1 1.1 0 1.3-.6 1.5-3.3 0-.6.9-3.5 1.9-6.2 1-2.8 1.8-5 1.7-5 0 0 .4-1.5 1.1-3.3 1.3-3.7 2.8-4.3 2.3-1-.2 1.3-.5 4-.8 6-.8 5.5 1.7 4.4 2.9-1.2.1-.3.4-1.9.8-3.5.4-1.7.9-5 1.2-7.4.5-4.1 1.3-6.6 2-5.9.2.2.6 2.4.9 5zm-108.7 3.9c-.8 1.9-1.7 5.1-2.1 7.2-.4 2.1-1 4.6-1.3 5.5-.3.9.6.1 2-1.9 1.5-2 3.1-5.7 3.8-8.3.6-2.5 1.6-4.9 2.2-5.3.5-.3.7-.1.4.4-.4.6-1 3.2-1.3 5.9-.4 2.7-.8 5.8-.9 6.9-.2 1.1-.4 2.5-.4 3.2-.1.6-.8 1.9-1.7 2.7-.8.9-1.3 1.6-1 1.6.3 0-.3 1.6-1.4 3.7-1 2-1.7 3.9-1.5 4.3.8 1.2-1.7 2.6-7.5 4.2-3 .9-6.3 1.9-7.3 2.3-1.5.6-1.7.3-1.2-2.2.2-1.7 1.1-4.6 1.9-6.5.9-2 1.3-3.8 1-4.1-.3-.3 1.5-2.5 3.9-4.9 2.4-2.3 6.3-7.6 8.7-11.6 4.3-7.5 6.2-9.1 3.7-3.1zm-30.7-.7c4.5.9 12.9 3.8 14.6 5 1.7 1.3 1.7 1.6.3 3.3-3.8 4.3-9.9 20.9-9.9 26.8 0 2.3-1.1 4.6-3.3 7.3-1.9 2.2-4 5.4-4.7 7.1-.7 1.7-1.6 3.1-2 3.1-1.3 0-3.7-6.8-4.6-12.9-.6-4.1-1.2-5.3-2.5-4.5-1.4.8-.1 9.9 2.6 17.7 1.5 4.2 2 6.7 1.3 6.5-1.2-.4-7.3-11.4-7.3-13.3-.1-.6-.6-4.2-1.3-8-.7-3.9-1.4-10.2-1.7-14l-.5-7 5.1 7.7c2.9 4.3 5.6 7.8 6 7.8 2.7 0-1.2-7.4-10.3-19.8l-4.1-5.5 4.9 3.3c2.7 1.8 7.6 5.6 10.9 8.3 3.3 2.8 6.9 5.8 8 6.6 1.9 1.6 2 1.5.3-.5-1-1.1-1.8-2.5-1.8-3.1 0-1.3-11.8-11.9-17.4-15.7-3.7-2.5-3.6-2.9.9-2.8 3.2 0 11.8 1.3 12.7 1.8.4.3.8.3.8 0 0-1-7.9-4.6-10.2-4.6-1.7 0-1.9-.3-.9-.9 1.2-.8 9.9-.6 14.1.3zm64 11.5c1.9.1.9 1-4.5 3.7-3.8 2-8.3 4.6-10 5.8-5.2 3.7-.4 3.1 7.7-1 9-4.5 18.2-7.8 17.1-6.1-.3.7-2.5 3.7-4.6 6.7-2.2 3-4.1 5.6-4.1 5.7-.7 1.1-25.1 2.1-31.9 1.4-1.1-.1 2.1-7.3 4.5-9.8 3-3.2 8.5-5.5 14.2-6 2.8-.3 5.2-.6 5.4-.8.2-.2 1.1-.2 2 0 .9.2 2.8.4 4.2.4zm15.5 6.2c-1.8 2.9-3.1 18.4-1.6 19.4.6.3 1.1.3 1.2-.2 0-.4.2-2.6.5-4.7.2-2.2.8-4.4 1.4-5 .7-.7 1-.4.8.9-.2 1.1.8 5.3 2.1 9.3 1.2 4 2.1 7.6 1.8 7.9-.3.3-6 .6-12.6.7l-12 .1.6-2.5c1.9-8.3 15-28.9 17.4-27.4.5.3.7 1 .4 1.5zm216 11.6c-1.5 4.4-1.5 9.3 0 9.4.6 0 1.5-2.4 2.1-5.3l1-5.3.9 4c.5 2.2.9 4.3 1 4.7.2.5.3 1.7.4 2.7 0 1.1 1.2 3.3 2.5 4.8l2.5 2.8-.5-2.5c-.3-1.4-.8-3.2-1.1-4-.3-.8-.7-3.1-1-5-.2-1.9-.6-4.1-.8-4.8-.3-.7-.1-1.1.3-.8.7.4 2.5 3.9 5.6 10.6.9 1.9 2.5 4.6 3.7 6 1.6 2 1.8 2.1 1 .4-.6-1.2-1.3-3.6-1.6-5.4-.3-1.8-1-4.2-1.6-5.2-.6-1.1-.9-2.2-.6-2.4 1-1.1 5.9 12.2 5.9 16 0 5.5-.5 7.1-3.7 13.7l-2.7 5.6-4.3-4.6c-3.1-3.4-4.5-5.8-5-9-.6-3.4-1.8-5.4-5.3-8.8-2.5-2.4-6.2-5.3-8.3-6.4-2.2-1.1-3.9-2.3-3.9-2.7.1-1.9 5.5-9.2 7.8-10.6 1-.6 1.1-.1.6 1.8-.7 3 1.3 3.7 2.3.8 1.8-5.1 4.5-5.6 2.8-.5zm-23.5 5.2c0-.8-.7-2.4-1.5-3.5-1.9-2.6-1.9-3.3.3-2.7 3.2.8 7.6 4.9 6.7 6.2-.5.9-1 1-1.8.2-1.2-1.2-4.7 1.3-4.7 3.3-.1 1.1-5.9 9.4-6.1 8.5 0-.2-.1-4.5-.2-9.6l-.2-9.2 3.7 4.2c2.3 2.6 3.7 3.6 3.8 2.6zm64-.9c-2.4 3.4-2.7 6.5-.5 5.6 1.8-.6 1.8-.5.5 2.8-.5 1.4-1 4.2-1.1 6.3l-.3 3.9-5.3-5.5c-5.5-5.8-7.1-5.9-7.5-.8-.3 3.7-1.7 2-2.4-3-.5-3.9-.4-4.1 4.3-7 7.4-4.7 10.5-6.1 12.5-5.6 1.7.5 1.7.7-.2 3.3zm-138.2.9c2 1.1 4.6 2.7 5.7 3.6 1.1.9 1.4 1.4.8 1-2.4-1.1-17.3-1.8-17.3-.7 0 1 3.7 1.9 11.1 2.8 3.1.4 12.9 3.9 12.9 4.7 0 .2-47.7 0-49.1-.2-1-.2.2-4.9 1.5-5.9 2.9-2.4 11.4-6.5 14.1-6.9 1.7-.3 3.1-.6 3.3-.8 1.1-1 13.9.8 17 2.4zm64.7 4.8l.4 6.9-3.6-.3c-4.5-.3-4.6-.4-3.3-3.9 1.1-2.8 1.2-2.8 2.6-1 1 1.5 1.4 1.6 1.6.5 0-.8.2-1.9.3-2.4.2-.6.3-2.5.4-4.4.2-5.7 1.2-2.8 1.6 4.6zM130 120.9c0 .5-1.3 1.4-2.8 2-1.6.7-4.9 3.3-7.3 5.9-2.4 2.6-3.3 3.7-1.9 2.6 2.4-2 16-8.7 16-7.9 0 .2 1.5-.1 3.3-.6 1.7-.6 4.5-1.2 6-1.4l2.9-.4-2.9 2.1c-1.5 1.2-4.5 3.7-6.6 5.7-3.4 3.2-4.2 3.5-10 3.6h-6.2l-.2 30.5c-.1 16.8-.2 31.1-.2 31.8-.1.9-1.1.7-3.2-.9-4.5-3.2-7.1-9.7-7.2-18.1-.1-6.5-.2-6.8-1.4-4.4-.8 1.5-1.5 4-1.6 5.6-.2 2.8-.3 2.9-1.5 1.3-2.4-3.1-6.5-11.7-6.9-14.3-2.3-14.1 3.6-30 13.6-36.8 2.6-1.8 7.6-4.1 11.2-5.1 3.5-1.1 6.5-2 6.7-2 .1-.1.2.3.2.8zm20.1 3.8c-2.4 4.4-6.9 8.2-9 7.6-1.8-.5-1.9-.8-.9-2.1 1.2-1.4 9.7-7.2 10.5-7.2.2 0-.1.8-.6 1.7zm96.3 4.5c-2.9 2.6-4.5 3.2-8.5 3.2-4.5.1-6.6-1-3.6-1.8.6-.2 2.1-.7 3.2-1.2 12.7-4.8 14.2-4.8 8.9-.2zm-11.4-2.8c0 .2-2.1 1.6-4.7 3.1-3.5 1.9-6.4 2.7-11 2.8-3.5.1-6.3 0-6.3-.4 0-1 9-3.6 15.5-4.5 2.2-.3 4.2-.7 4.4-1 .6-.5 2.1-.5 2.1 0zm207.3 7.8c-.1 4-.5 8.2-.7 9.3-.2 1.1-.5 2.6-.5 3.2-.1.7-.5 1.3-1.1 1.3-1.2 0-.5-14.6.9-18.3.6-1.5 1.2-2.7 1.4-2.7.2 0 .2 3.3 0 7.2zM156 129.9c0 1-.7 2.2-1.6 2.5-.8.3-1.3.2-1.1-.2.2-.4.7-1.5 1-2.5.8-2.3 1.7-2.2 1.7.2zm95 1.6c-.7.9-1.5 1.3-1.9 1-.3-.3.1-1 .9-1.5 2.1-1.4 2.4-1.2 1 .5zm131.3 6.7c-.6.7-1.3 2.9-1.7 4.9-1.2 6.6-2.3 7-9.2 3.4l-6.1-3.2 1.8-3.4c1-1.9 1.9-2.7 1.9-1.9 0 1.1.6.8 2-.9 1.1-1.2 1.7-2.8 1.3-3.5-.4-.7-.2-.8.5-.1.6.5 1.2 3.7 1.4 7 .6 8.8 2.3 6.8 2.3-2.5l-.1-8 3.5 3.4c2.6 2.6 3.2 3.8 2.4 4.8zm6.5-3.4c1.8 1.4 4 3.8 4.8 5.4l1.5 2.8-4.8-2.3c-5-2.3-7.4-4.6-8.5-8.4-.6-2.1-.4-2.2 1.5-1.1 1.2.6 3.7 2.2 5.5 3.6zm-43.4-3c.6.9-6.1.9-7-.1-.4-.4.9-.7 2.9-.7s3.8.3 4.1.8zm13.1 8.3c.8.8.9 229.9.1 230.7-.8.7-230.5.7-231.2-.1-1.2-1.2-.7-229.9.4-230.6 1.5-.9 229.8-.8 230.7 0zm72.1 3.3c.2 1.4.8 3.6 1.3 4.9.5 1.3.5 3 0 3.9-.4.8-.6 2.6-.3 3.9.3 1.3.6 4.8.8 7.7.2 6.2-3.2 14.3-7 16.9-3 1.9-4 1.2-2.4-1.7.6-1.1 1-2.9.8-3.8-.2-1.2-1.1-.5-3.3 2.5-1.7 2.4-3.3 4.3-3.6 4.3-.4 0-.3-1.7.2-3.8 1.2-5.3 1.1-7.2-.4-6.6-1.4.5-5.1-11.3-3.7-12.1.4-.2 1-1.7 1.4-3.2.3-1.6 1.9-4.4 3.6-6.3l3-3.4-.6 4.3c-.5 3.3-.3 4.2.7 3.9.7-.2 1.4-1.1 1.5-1.9.2-.7 1-3.9 1.8-6.9 1.3-5.2 1.4-5.3 1.6-2 .1 1.9.2 6.4.2 10-.1 7.5.5 11.3 1.7 10.6.9-.6 1.6-11.1 1.2-19.6-.2-5.5.6-6.4 1.5-1.6zm-345.1 3.9c1.7 1.9 3.8 3.8 4.7 4.3 1.7.9 2.1 2.3 1.9 6.3-.1 1.8-.4 2.1-1.4 1.3-1.9-1.7-6.3-2.3-17.1-2.8-6.5-.2-10.7.1-12.2.9-2.1 1.1-1.5 1.3 5 1.4 14.7.3 24.9 2.9 26.1 6.8.4 1.1.9 2.4 1.1 3 1.7 5 1.7 5.8 0 5.2-2.3-.9-8.9-1.9-12.8-2.1-3.6-.1-5.2 2.3-1.6 2.5 3.8.2 18.7 3.4 19.2 4.1.1.2.9 1.4 1.8 2.8l1.5 2.5-10.6.1c-8.9.1-21.8.8-25.6 1.3-.5.1-.3.5.5 1 .8.4 9.7.8 19.7.9 19.8.1 21.2.4 24.6 6.2.9 1.4 3.4 3.8 5.6 5.5 2.2 1.6 4.1 3.3 4.1 3.7 0 1.4-4.7 2.1-15 2.3-5.8.1-10.5.6-10.5 1.1 0 1.2 10.3 2.1 18.8 1.7 6.1-.4 6.7-.2 6.7 1.6 0 2.8-4.6 3.9-19 4.5-7.6.4-7.8.2-24.9-14.5-4.2-3.6-9.1-7.6-10.9-8.8-2-1.4-3.1-2.9-2.8-3.7.3-.8.1-1.4-.4-1.4-.6 0-1 .5-1 1.1 0 .8-.4.8-1.3.1-2.5-2.1-11.9-5.2-16.5-5.4-5.6-.2-13 1-13.8 2.3-.3.5-1.1.9-1.7.9-1.5 0 13.5-10.3 18.1-12.4 5.3-2.5 3.7-2.5-3.2-.1-7.5 2.6-12 5.2-19.4 11.3l-5.3 4.3 1.7-3.3c4.5-8.8 12.2-19.4 17.9-24.6 11.1-10.1 27.4-16.4 40.5-15.5 3.6.2 5.1.9 7.5 3.6zm288 6.3c1.9 1.4 1.9 1.5-.8 9.2-1.5 4.2-3 9.5-3.3 11.7-.3 2.2-.8 4.7-.9 5.5-.2.8-.4 2.2-.4 3-.1 1-.4 1.1-1.2.3-.9-.9-1.6-10.8-.9-13.8.1-.6.1-1.2 0-1.5-.5-1.4-.4-14.2.2-14.6.3-.2.4-1.4.1-2.5-.6-2.2-.6-2.2 2.3-.5 1.6 1 3.8 2.4 4.9 3.2zm17.1 6.9c.3 1.6 1.2 3.8 2 4.9 1.3 1.9 1.4 1.8 1.4-1.9 0-2.2-.7-6.2-1.5-8.9s-1.3-5.1-1.2-5.3c.6-.5 6.7 9.7 6.7 11.1 0 .6.5 1.7 1.2 2.4s.8 1.2.4 1.2c-.5 0-.3.6.3 1.4.7.8 1.7 2.7 2.2 4.3.7 2.3.8 1.9.6-2.2-.2-2.8-1.6-7.8-3-11l-2.7-6 4.8 5.1c9.6 10.3 12.5 29.9 5.5 37.6-2.1 2.3-3.7 2.3-2.8 0 .9-2.2 1.5-4.8 2.1-9 .5-2.5.2-3.2-1.1-3.2-1 0-1.5.6-1.3 1.2.3.7-.7 4.2-2.1 7.8-1.9 4.8-3.2 6.6-4.7 6.8-1.8.3-2-.1-1.6-2.7.2-1.6-.1-3.7-.6-4.8-1-1.6-1.2-1.4-2.6 1.9-.9 2.1-2.5 4.2-3.6 4.8-1.9 1-2 1-.8-.9.7-1.2 1.5-2.1 1.9-2.1.3 0 .6-.6.7-1.3 0-.6.3-3.4.6-6 .5-3.5.3-4.8-.5-4.5-.7.2-1.4 1.5-1.6 2.7-.5 3.4-4 11.1-5 11.1-.5 0-.9-2.1-.8-4.8 0-2.6-.4-4.8-1-5-.5-.1-1 .6-1.1 1.5-.1 3.1-1.5 8.3-2.3 8.3-1.3 0-3.8-3.3-4.7-6-.8-2.7-.9-10.1-.1-14 1.1-5.3 5.9-18.6 7.5-20.7 1.7-2.2 1.7-2.1 1.5 4.3-.1 5 .1 6.4 1 5.5.6-.6 1.3-2.4 1.4-3.9.1-1.5.4-4.1.7-5.7.2-1.7.5-3.7.6-4.5.2-1.7 2.8 5.9 3.6 10.5zm45.6-1.8c-.7 3.6-1.2 2.7-1.1-2 0-3 .3-3.6.8-2.3.4 1.1.6 3 .3 4.3zm17.8-2.8c0 .5-1 1.2-2.2 1.5-1.3.2-.2.4 2.4.3 5.2-.2 5.6.8.5 1.6-2.9.4-12.7 6.1-12.7 7.3 0 .2 1.1-.3 2.5-1.2 2.9-1.9 12.5-4.4 16.9-4.4 3.5 0 3 .9-.9 1.6-5.1.9-11 4.7-16.7 10.7-3.2 3.2-5.8 6.2-5.8 6.6 0 .4-1.3.8-3 .9-1.6.1-3 .1-3-.1 0-.6 4.1-9.2 5.1-10.7 2.3-3.5 3.9-8.2 3.9-11.2v-3.3l6.5-.3c3.8-.2 6.5.1 6.5.7zm7.5 11.1c-2.3 1.1-5.6 3.3-7.5 5-3 2.5-3.3 3.1-2 4.1 1.3.9 1.3 1-.1.6-.9-.3-2.5 0-3.5.7-1.1.7-3.7 1.6-5.9 2l-4 .8 3.4-3.6c1.9-2 3.9-3.6 4.4-3.6.5 0 2.2-1 3.9-2.1 3.2-2.3 11.4-5.8 13.8-5.9.8 0-.3.9-2.5 2zM449 185c-1.4 2.7-10.5 11.7-13.3 13.1-2.1 1.2-2.1 1.1-.7-.7 1.4-1.8 1.4-1.8-.4-.4-1.1.8-3.8 1.5-6 1.6-3.6 0-9.9.8-16.1 2-5 1-5.2-.5-.6-5.4 7.4-7.8 8.9-8.4 22.6-9.7 7.3-.7 12.9-1.5 13.4-2.1 1.3-1.2 2-.1 1.1 1.6zm-394.3 5.4c6.5 3.4 30.6 21.6 28.6 21.6-4.7 0-23.4-6.3-35-11.7-2.8-1.4-5.7-2.6-6.5-2.7-.7-.2-2-.6-2.9-1-.9-.4-2.8-.8-4.3-1-1.4-.1-2.9-.5-3.2-.9-.3-.3 1.1-.4 3.2-.1 5.7.7 7.6 1.1 10.7 2.3 1.6.6 3.8 1.1 4.9 1.1 3 0 .6-2.6-3.6-4-6.7-2.2-17.2-2.9-21.6-1.5-3.1 1-2.4-.1 1.5-2.4 8.9-5.2 17.8-5.2 28.2.3zm313.8-.6c-.6.7-3.4-1.1-2.9-1.9.3-.5 1.1-.3 1.9.4.7.6 1.2 1.3 1 1.5zm1.8 2.1c.4 0 .7.8.7 1.6 0 2.6-5.9 1-6-1.6 0-.5 2.3-.5 5.3 0zm-1.3 5.5c0 .2-.7.7-1.6 1-.8.3-1.2.2-.9-.4.6-1 2.5-1.4 2.5-.6zm9.4 5.4c-1.2.9-3 2.2-4 2.8-1.1.7-1.6 1.5-1.3 1.8 1.1 1.2 5.7-.5 8.4-3s3.1-2 1.6 1.9c-1.2 3-5 4.4-11.6 4.3-4.3-.1-5-.4-5-2.1 0-1.4.9-2.1 3.4-2.6 1.8-.4 4.3-1.6 5.4-2.8 1.2-1.2 2.8-2.1 3.7-2.1 1.1.1 1 .5-.6 1.8zm-9.3 1.2c-1.2 1.1-2.8 1.7-3.3 1.4-.6-.4 0-1.3 1.3-2 3.6-2 4.7-1.6 2 .6zm31.4.4c5.3 1.9 7.9 3.5 10.8 6.7 4.5 5.1 5.1 8 1 5.1-5.1-3.4-8.8-3.7-6-.4 1 1.3.8 1.4-1.2.7-1.3-.4-2.9-.8-3.5-.9-5.2-1-11.5-5.8-12.9-9.9-.9-2.5 0-2.1 4.6 1.8 2.2 1.9 4.9 3.5 5.9 3.5s1.8.5 1.8 1.2c0 .6.3.8.7.4.4-.3-1.5-2.9-4.2-5.6-2.7-2.8-4.7-5-4.5-5 .3 0 3.7 1.1 7.5 2.4zm17.2-.8c-.3.3-1.2.4-1.9.1-.8-.3-.5-.6.6-.6 1.1-.1 1.7.2 1.3.5zm-331 14.9c1.8.4 7.3.7 12.3.7 7.4 0 8.9.2 8 1.3-2.3 2.7 1 2.5 5.6-.5 2.6-1.6 5.4-3 6.1-3 1.2 0 1.8 2 1.4 4.3-.1.5-.1 3.4-.1 6.5.1 11.7.1 32.7.1 33.4-.1.5-8.1 4.8-17.9 9.7-9.8 4.9-21.4 11.3-25.8 14.3l-8.1 5.4 2.9-4.9c1.6-2.8 5.9-8.9 9.6-13.6 3.6-4.7 5.7-7.8 4.6-6.9-1.1 1-2.5 1.8-3 1.8-1.1 0-9.1 9-11.5 12.7-.8 1.3-1.7 2.3-2.1 2.3-.4 0-.4-1 .1-2.3.5-1.2 2-5.6 3.2-9.7 1.3-4.1 2.9-8.6 3.6-10 .7-1.4 1.3-3 1.3-3.6 0-1.2 3.8-8.2 6.7-12.2.8-1.2 1.3-2.2 1-2.2-.2 0-3 3.8-6.1 8.3-5.8 8.7-10.2 17.7-11.1 22.5-.2 1.6-1.2 4.6-2 6.6-.9 2-1.3 4.1-1 4.6.4.6.1 1-.4 1-.6 0-1.1-1.7-1.2-3.8 0-2-.3-5.7-.5-8.2-.5-5-.7-11.2-.4-12 .1-.3.4-2.4.5-4.7.8-9.6 3-17.5 7.5-26.2 3-5.9 9.9-13.3 11.9-12.7.9.2 3.1.7 4.8 1.1zm285 28.7c3.7 3.9 8.4 11.5 8.3 13.5 0 .4-.7 1.6-1.5 2.6-1.3 1.8-1.5 1.7-4.3-1.4l-2.9-3.3-2.7 2.9c-2.9 3.1-2.8 3.1-2.8-4.8 0-5.1.8-5.7 1.6-1.2.4 1.9 1.1 3.3 1.7 3 1.4-1 1.1-5-1-10.5-1.1-2.7-1.6-5-1.2-5 .4 0 2.5 1.9 4.8 4.2zm32.6 10.5c0 4.8-.4 11.7-.7 15.3-.4 3.6-.9 9.2-1.1 12.5-.5 5.9-.5 5.9 1 3.1.9-1.6 1.3-3.1 1.1-3.4-.3-.2-.1-1.2.4-2.1.5-.9 1.1-4.4 1.5-7.6.4-3.3.8-7.1 1-8.4.4-2.5 1.4-4.1 1.6-2.5.5 4.4.7 6.3 1.3 8.9 1 5.4 2 16.8 2 25.2.1 5.8.4 7.5 1 6 1.2-2.8 1.3-25.9.3-31.7-.5-2.5-.9-5.2-.9-6 0-1.4-1.1-7.3-2.2-12.8-.3-1.2-.3-2.2-.1-2.2.2 0 2.4 3.3 4.9 7.2 10.3 16.7 12.9 25.9 12.8 45.3-.1 5.5-.3 10.7-.5 11.5-1.4 5.4-2 7-2.6 7-.3 0-4.2 2.9-8.6 6.5l-7.9 6.4-2.2-5.9c-1.2-3.3-2.9-7.1-3.8-8.5-2-3.1-2.6-7.1-1.5-10.2.5-1.2.4-2.5-.1-2.8-.5-.3-.7-1.2-.4-1.9 1.3-3.3-4.4-17-9.5-22.8-1.5-1.8-4.4-5.5-6.4-8.1l-3.7-4.8 2.9-4.2c1.6-2.3 4-5.3 5.4-6.5l2.5-2.4-.8 3.4c-.5 1.8-1.2 4.4-1.5 5.8-.6 2.1-.4 2 1.2-.6 5.1-8.8 12.3-18.5 13.2-18 .3.2.5 4.4.4 9.3zm-284.1 21.4c-.6 2.7-14.3 6.8-24.7 7.4-2.2.1-6 .5-8.5.9l-4.5.6 3-1.7c1.6-1 9.9-5.4 18.5-9.8l15.5-8 .5 4.5c.3 2.5.4 5.2.2 6.1zm247.2-2.4c-.3 6.1-.4 6.3-1.2 6.3-.4 0-.7-1.2-.6-2.8.1-1.5.3-4 .3-5.5.1-1.6.5-2.6.9-2.3.4.2.7 2.2.6 4.3zm17 8.7c4.3 5.4 8.6 13 9.2 16.2.1.6.5 2.7.8 4.5l.7 3.4-2.2-3c-1.3-1.7-4.4-5.2-7-7.8-3-3-5-6-5.3-8-.9-5.5-2.2-10.1-4-13.7l-1.6-3.5 2.2 2.9c1.3 1.6 4.5 5.6 7.2 9zm-7.9 1.3c1.2 3.5 2.7 6.8 3.3 7.5 1.3 1.6-3 7.5-9.5 13.3-4.2 3.6-4.3 3.7-4.4 1.4-.3-6.7.3-12.4 1.7-15.1.8-1.6 1.3-3.2 1-3.5-.3-.3-.1-1.3.4-2.3.5-.9 1-3.7 1.1-6.1.5-9 2-7.9 6.4 4.8zm105-2.8c.3.5-1.6 2-4.2 3.3-4.2 2.1-18.3 14.8-18.3 16.5 0 .4 1.3-.5 2.8-2 1.5-1.5 3.2-2.7 3.6-2.7.5 0 2.5-1.3 4.5-2.8 3.7-3 15.1-9.4 15.1-8.6 0 .3-2 3.6-4.4 7.3-5.7 8.7-10.4 18.4-11.1 23l-.6 3.6 2-2.4c1.2-1.3 2.1-2.9 2.1-3.7 0-1.5 11.1-20.6 11.7-20 .2.1-.4 1.9-1.2 3.9-.8 2.1-1.3 3.7-1 3.7.3 0 .1.8-.4 1.7-.5 1-1.1 3.1-1.4 4.8-1.3 7.1-5.7 20.7-8.2 25.3-3.2 5.8-8.2 11.1-11.2 11.6-1.9.4-2 .2-1.2-2.6.4-1.7.6-3.4.4-3.9-.3-.4-.1-1 .4-1.4 1-.6.8-9.4-.3-16.3-.6-4.1-6.7-16.7-9.9-20.6-2.7-3.4-1.5-4.2-10.2 6.7-2.6 3.2-4.9 5.6-5.2 5.3-.3-.3-.5-4.4-.5-9.1 0-9.8 0-9.9 9.7-14.4 7.3-3.5 9.8-4.5 10.7-4.3.4.1 1.9-.3 3.3-.8 3.4-1.3 3.2.1-.4 2.2-3.5 1.9-6.3 6.2-3.4 5.1 1-.3 2.9-1.4 4.3-2.3 7.3-4.7 21-8.5 22.5-6.1zM120 288.4c0 .8-.8 1.3-1.7 1.1-1-.2-2.2-.4-2.8-.5-.5-.1.1-.6 1.5-1s2.6-.8 2.8-.9c.1-.1.2.5.2 1.3zm.3 21.8c-.1 9.8-.2 10.6-3.2 15.3-1.7 2.7-3.1 5.5-3.1 6.2 0 2.1-1.4 1.5-4.5-1.7-2.6-2.7-3-2.8-4.5-1.5-1.6 1.5-1.7 1.3-1.3-2.2.5-4.4 5.1-15.3 6.5-15.3.5 0 .7.9.3 2-.3 1.1-.2 2.7.4 3.7.8 1.5 1 1.4 1.7-1.1.8-3.4 1.1-5.8 1.3-11 .1-4 1.4-4.3 1.7-.3.2 3.8 1.5 12.1 1.9 12.5.9.9 1.7-7.5 1.2-13-.4-4.3-.2-5.7.5-5 .6.6 1.1 5.4 1.1 11.4zm262.2 7.6c-.2 5.4-.5 10.7-.8 11.8-.4 1-.9 3.5-1.2 5.4-.3 1.9-1 4.9-1.6 6.6-.5 1.7-1.2 4.1-1.4 5.3-.2 1.3-.7 3.2-1.1 4.4-.6 2-.5 2 1.3-.3 2.1-2.7 4-6.9 4.9-11 2.5-11.2 3.1-14.4 3.3-20.8.1-2.3 1.7-3.2 1.8-1 .1.7.4 3.1.8 5.3.9 4.9 1 32.1.2 35.5-.4 1.6-.1 1.2 1-1 2.4-5.1 2.6-7.1 2.7-21.5 0-11.7-.7-19.2-2.1-22-.3-.6.5.1 1.6 1.5 2.5 2.9 9.5 17.2 10.5 21.3 1.4 6 2.6 24.4 1.6 25.9-.1.2-.3 1.4-.6 2.8-1.6 9.2-8.4 23.1-14.2 29.4-2.8 2.9-8.3 6.7-11.5 7.9-1.4.5-1.2-.2 1.1-3 4.7-6 7.4-12.2 6.7-15.1-.6-2.3-.8-2-3.5 3.4-3 6.4-11.6 16.7-13.3 16.1-1.2-.4-1.6-3.1-1.7-10.7 0-5 .5-11.5 1-11.5.1 0 .4-1.2.6-2.8.6-3.4-1.3-3.6-2.6-.1-1.6 4-2.3 9.3-2.3 17.1 0 4-.4 7.3-.7 7.3-.9 0-6-11.5-6.7-15-.3-1.4-.6-4.2-.7-6.3-.3-4.3.5-5 6.3-5.1l3.6-.1.1-24.2.1-24.1 5-6.9c2.8-3.7 6.3-8.7 7.8-11 1.5-2.4 3.1-4.1 3.5-3.8.4.2.6 4.9.5 10.3zm-11.5-2.5c0 1.1-4.8 6.5-5.4 6-.3-.4.6-1.9 2.1-3.5 2.5-2.6 3.3-3.2 3.3-2.5zm70.1 3.4c-2.7 5.2-12.2 16.9-20.3 25.2-7.5 7.7-9.9 11-4 5.3.7-.6 1.9-1.2 2.6-1.2 1.8 0 18.9-17.9 22.7-23.7l3.1-4.8-.6 4.1c-.8 5.8-4 12.5-12.7 26.8-.6 1 .9-.1 3.4-2.5 4.5-4.3 11.4-15.9 12.1-20.1.1-1.2.8-2.4 1.4-2.6.6-.2.9.5.7 1.5-.3 1-.7 3.4-.9 5.3-.7 4.9-1 5.9-3.1 11.5-2.5 6.8-9.2 18.3-12.9 22.2-5.1 5.6-1.9 3.6 4.3-2.5 8.4-8.4 15.7-24.4 16.4-35.9.3-6.6 2-3.2 1.9 3.9-.2 9.9-.7 12.1-5.3 20.9-3 5.8-6.5 10.4-11.4 15.4-7.6 7.5-19.5 16-24.2 17.1l-2.8.7 2.6-2.9c3.9-4.3 7.2-9.4 6.5-10.1-.3-.3-.1-1.5.5-2.7.6-1.1-.2-.5-1.7 1.4-3.7 4.7-14.3 15-15.5 15-.5 0 0-1.8 1.1-3.9 3.3-6.5 5.7-19.8 5.5-30l-.2-9.1 6.6-5.8c3.6-3.2 9.8-8.1 13.6-10.9 3.9-2.9 7.9-6.1 8.9-7.2 2.3-2.6 3-2.7 1.7-.4zm-344.9 1.1c2.4 1 2.6 1.3 1.8 4.9-.5 2.1-.7 5.6-.6 7.8.3 2.7-.3 5.2-1.7 7.7l-2.1 3.6-4-7.1c-2.2-4-3.9-7.6-3.8-8.1.2-.5-.5-1.8-1.5-2.9-1.4-1.6-.9-1.4 2.2.6 3.9 2.7 6.5 3.4 6.5 1.9 0-.4-2.4-2.6-5.2-4.7l-5.3-4 3.5-.5c4.3-.7 6.7-.5 10.2.8zm353.1 3.3c-.6.6-.7-.3-.4-2.3.4-2.8.6-2.9.9-.9.2 1.3 0 2.7-.5 3.2zM120.5 335c.3.5.2 1-.4 1-.5 0-1.3-.5-1.6-1-.3-.6-.2-1 .4-1 .5 0 1.3.4 1.6 1zm-12.8 2.2c0 .7.4 2.6.7 4.3.4 1.6.9 4.1 1.2 5.4.8 3.9 6.6 17 8 18.2 1.1.9 1.4.6 1.4-1.4 0-1.4-.4-2.9-1-3.2-.5-.3-1-1.2-1-1.9 0-.8-.7-3.1-1.7-5.2-.9-2.2-1.7-4.6-1.9-5.4-.1-.8-.5-3-.9-4.9l-.8-3.4 4.3 4.7c4.2 4.6 4.3 4.8 4.2 11.4-.1 3.7-.1 8.9-.1 11.7v7.2c0 1.3.7 2.4 1.8 2.8 1.5.4 1.9 1.5 1.8 4.5-.2 4.3-.4 4.5-4.1 3.1-1.3-.6-4.4-1.2-6.8-1.5-3.2-.4-4.9-1.2-6.5-3.3-4.9-6-9.9-17.6-9.6-22.1.3-5.8.3-5.8 1.8-2.7l1.3 3 .3-4c.4-7.7.6-9.2 1.3-12.1l.8-2.9 1.3 3c1 2.5 1.4 2.7 2 1.3.4-.9.5-2.1.2-2.5-.5-.8.9-5.3 1.6-5.3.2 0 .4.6.4 1.2zm-18.2 13c.9 2.6 1.8 7 1.9 9.6.2 2.7.6 5.4 1 6.1.4.6.9 2.2 1.2 3.6.2 1.3 1.4 4.1 2.6 6.2l2.2 3.8-2.4-2c-3.8-3.1-4.9-4.6-7.6-10.2-4.2-8.8-6.9-24-4.8-27.4.8-1.4 3.5 3.3 5.9 10.3zM120 343c0 .5-.2 1-.4 1-.3 0-.8-.5-1.1-1-.3-.6-.1-1 .4-1 .6 0 1.1.4 1.1 1zm359.1 12.8c3.5 1.8 8.2 4.8 10.4 6.7 2.2 2 3.5 3.4 2.9 3.1-3.8-1.9-21.8-2.7-28.9-1.3-1.6.3-3.3.6-3.7.6-.5.1-.8.5-.8 1s4.5.7 10.3.5c8.1-.3 11.9.1 17.4 1.6 6.2 1.7 15 5.8 14.1 6.5-.2.1-5.2.5-11.3.8-6 .4-12.3.9-14 1.2-3.7.6-8.8 1.5-9.5 1.5-.3.1-2.3.5-4.5 1.1-2.2.5-5.1 1.2-6.5 1.5-4.5.9-15 5.1-15 6 0 .3.4.3.9 0 .5-.4 3.3-.8 6.2-1.1 2.8-.3 5.7-.9 6.3-1.2.6-.4 1.7-.8 2.6-.9 1.5-.1 3.8-.6 9-1.9 6.6-1.6 23.4-3.1 29.9-2.7 3.5.3 1.9 1.3-3.6 2.4-4.5.9-7.7 1.5-11.3 2.3-.8.2-1.5.4-1.5.5 0 .1-1 .3-2.3.6-2.5.4-13.4 5.5-12.9 6 .2.3 10.6-1.9 15.2-3.1 1.1-.3 3.6-.9 5.5-1.2l3.5-.6-4.6 4.9c-2.5 2.7-6.9 7.7-9.9 11.2-2.9 3.5-7.2 7.6-9.5 9.2-4 2.8-13.9 6.6-20 7.8-4.4.8-24.3.8-29 0-11-1.9-22.9-5.9-25.5-8.6-1.3-1.4-1.3-1.5 0-.5 5 3.6 33.3 6.3 39.4 3.8 2.7-1.2 2.5-1.3-4-1.4-11.9-.3-16.8-.9-24.9-3.1-9.6-2.6-12.4-3.9-10.4-5 2.2-1.2 13.5-2.2 25.4-2.2 7.9 0 10.5-.2 9.2-.9-1-.6-3-1.3-4.5-1.6-4.9-.9-20.7-1-22.4-.1-2.9 1.4-2.1-.8 1-3 8.9-6.3 22-7.8 35.7-4.3 4.4 1.2 8.8 2.3 9.8 2.6.9.2 2.1.6 2.5.9.8.5 3.3 1.1 9.7 2.3 6.1 1.2 17.8.9 18.3-.5.3-1-.5-1.2-3.3-.8-2.2.4-6.7-.2-11.8-1.5-4.5-1.2-8.6-2.2-9.2-2.3-.5-.1-1.4-.4-2-.7-.5-.4-3.1-1.2-5.7-2-2.7-.7-4.8-1.7-4.8-2.2 0-.4-.4-.6-.9-.3s-2.6 0-4.7-.8c-2.2-.7-4.5-1.1-5.1-.9-3.2 1.1-.6-1.6 5.3-5.6 7.6-5.1 18.1-15.6 22.3-22.3 1.8-2.7 3.9-4.8 5.3-5.1 5.5-1.2 13.6.1 19.9 3.1zM80.3 363c.3 1.1.5 2.3.6 2.5.1 2.2 6.4 11.6 9.9 14.9l4.3 4.1-8.8-.1c-4.8-.1-9.2-.2-9.8-.4-.5-.1-1.3-.2-1.7-.1-.5 0-.8-.3-.8-.9 0-.5-2.2-2.1-5-3.5-2.7-1.4-5-2.7-5-3 0-.2 2.1.2 4.8 1 5.4 1.7 13.8 2 14.7.5.3-.6.3-1-.2-1.1-.4 0-2.6-.2-4.8-.4-2.2-.2-5.5-.8-7.3-1.4-3.6-1.1-12.2-5.8-12.2-6.7 0-.3.4-.2 1 .1.5.3 4.5-1.2 8.7-3.4 8.8-4.6 10.8-5 11.6-2.1zm97.5 15.4c1.2 1.3.3 10.6-1.6 14.8-2.2 5-5.7 8.8-8.1 8.8-1.1 0-1.2-.3-.5-.8 1.2-.7 2.6-4.3 3-7.7.1-1.1.3-2 .4-2 .2 0 .4-1.9.5-4.3.2-3.5 0-4.1-1.1-3.1-.8.7-1.3 1.4-1 1.6.2.3-.2 2-1 3.9s-1.5 3.7-1.5 4.1c-.6 4.1-6.3 11.5-8.3 10.7-.9-.3-1.2-1.9-.8-5.3.6-6.3-1.1-7.3-3.7-2.2-1.9 3.7-5.5 7.1-7.4 7.1-.5 0 .3-1.4 1.7-3.1 1.4-1.7 2.6-3.8 2.7-4.7 0-.9.3-2.6.5-3.7 1.5-6.1 1.6-9.7.3-9.3-.8.3-1.5 1.3-1.6 2.4-.4 5.8-5 15.4-7.2 15.4-.4 0-.5-3.2-.3-7.1.4-5.7.2-7.1-.9-6.7-.7.2-1.4 1.8-1.4 3.4-.1 3.8-2.4 10.4-3.6 10.4-1.8 0-5.6-5-6.4-8.3-1.4-5.8-1.3-13.7.1-14.5 1.5-.8 46.3-.6 47.2.2zm9.5 4c-2.6 4.1-4.8 5.4-3.8 2.3.2-.7.6-2.4.9-3.9.4-1.8 1.4-2.8 2.9-3 1.2-.2 2.3-.3 2.5-.2.2.1-1 2.3-2.5 4.8zm11.1-1.8c-2.2 3.3-8.5 5.4-7.7 2.5 1-3.9 4.2-6.2 7.5-5.3 1.6.4 1.6.6.2 2.8zm14.6-1l-1 2.5 2.9-2c2.9-2.1 10.1-2.9 10.1-1.2 0 .9-6.6 2.6-14 3.7-1.9.3-4 .7-4.7.9-1.9.6-2.5-1.2-1.1-3.4.7-1.2 2.6-2.2 4.8-2.4 1.9-.2 3.6-.4 3.7-.5.1-.1-.2 1-.7 2.4zm75.9 3.2c7 4.5 19.4 10.2 22 10.2 1.2 0 2.1.5 2.1 1 0 .6-.8 1-1.7.8-1-.2-1.8.3-1.8 1.1 0 1.1 2.2 1.5 9.4 1.7 5.2.2 9.6.6 9.9.9 1.2 1.2-14.6 7.5-30.5 12.1-.7.2-1.3.9-1.3 1.5 0 .7 1.1.9 3.3.5 1.7-.3 4.3-.8 5.7-1 3.5-.6 18-5.5 21.3-7.2 1.5-.8 2.7-1.1 2.8-.7 0 .5.2 1.7.4 2.7.7 3.5-2.3 7.2-8.2 10.4-3.2 1.7-7.1 3.3-8.6 3.6-1.5.2-3.7.8-4.8 1.1-1.2.4-3.4.8-5 .9-3.2.2-4.4 1-3.5 2.4.3.5 2.5.6 5.3.1 2.6-.4 6.6-1.1 8.8-1.4 4.7-.8 13.8-4.9 15.6-7.1 1.1-1.3 1.4-1.1 2.5 1.6.7 1.7 1.1 3.6.8 4.4-.7 1.9-12.6 7.2-21.8 9.7-10.2 2.7-21.9 2.7-35.1-.1-18-3.8-22.9-4.6-28.2-4.5l-5.3.1 4-3.6c2.2-2 4-4 4-4.4 0-1.2-7.5 3.2-14 8.2-3.5 2.8-6.6 4.9-6.8 4.7-.9-.8 10.2-16.3 16.8-23.4 1.7-1.8 2.9-3.5 2.7-3.7-.2-.3-1 .2-1.7 1.1-.7.8-1.8 1.5-2.6 1.5-1.2 0-10.7 10.3-14.6 16l-1.8 2.5 1.1-3c.6-1.7 1.1-3.2 1.1-3.5.1-2.4 8-16.1 12.3-21.2 8.2-10 23.3-20.1 31-20.7 2.2-.1 4.2-.5 4.4-.7.5-.4 3.1 1 10 5.4zm38.8-4.4c.2.2.6 1.6.9 3.2.3 1.6 1.4 4.3 2.5 6 1 1.7 1.9 3.4 1.9 3.6 0 1.2-14.2-1.7-21.5-4.4-7.1-2.5-18.5-8.2-17.6-8.7 1-.7 33.1-.4 33.8.3zm24.4.1c.3 3 0 9.4-.5 12.2-.8 4.3 1.4 9.5 6.3 14.9 4.1 4.3 6.4 10.4 6.4 16.1 0 1.8.3 3.3.8 3.3 1.4 0 2.1-4.5 1.6-9.9-.5-4.8-.4-5.1 1.9-5.1 3.6 0 4.6 3.3 4.8 14.8.1 10 0 10.5-2.6 13.5l-2.8 3.2 1-2.7c1.2-3.5-.1-7.6-1.7-5.6-1.1 1.3-1.3 1.8-1.3 4 0 .7-1.3-.8-2.8-3.3-1.6-2.4-3.7-5.1-4.6-5.9-2.6-2.1-7.8-13.6-7.8-17.3-.1-6.2 0-6.5 3-5.9l2.7.5-3.6-3.5c-4.7-4.7-10.4-20.5-8.6-23.5.7-1.2 7.7-1 7.8.2zm-11.1 3.3c0 2.2.7 6.1 1.5 8.7.8 2.7 1.3 5.1 1.1 5.3-1.4 1.4-10.2-15-9-16.9.3-.5 1.8-.9 3.5-.9 2.7 0 2.9.3 2.9 3.8zm-114.9 6.4c-4.5 6.1-12.8 14.4-16.7 16.7-3.6 2.1-4.6 1.8-1.6-.5 1.2-1 .6-1-2.1.2-2.2.8-3.6 1-3.2.5.7-1.3-3.7-1.5-4.9-.4-.4.5-1.1.8-1.4.9-.4 0-2.5.3-4.7.8-9.3 1.7-18.1 2.3-19.1 1.3-.2-.2 2.5-3.3 5.9-6.9 8.1-8.7 14.8-11.9 25.5-12.3 9.9-.3 17.6-1.5 22.4-3.4 1.3-.6 2.5-1 2.6-1 .2-.1-1 1.8-2.7 4.1zM118.8 391c4.8 1.9 4.8 2.1-.1 2.4-1.5 0-2.7.5-2.7 1.1 0 1.2 3.8 2.3 6.7 1.9 2.2-.4 4.8 1.9 3.9 3.4-.3.5-2.4.8-4.6.7-4.9-.3-6.1 1.1-2.3 2.6l2.8 1.1-3.5 1.5c-5.5 2.4-14.7 2.2-22.6-.3-3.8-1.3-6.3-2.3-5.6-2.3 2.7-.2 1-2-3.4-3.7-3.7-1.4-4.3-1.9-2.8-2.5 1.1-.3 2.5-.4 3.3-.1.8.3 1.2.1.8-.5-.4-.5-3.4-2-6.7-3.2-3.3-1.2-6-2.4-6-2.6 0-.2 2.6-.4 5.8-.3 5.6.1 20.3-1 20.9-1.6.9-.9 12.1.8 16.1 2.4zm224.2 9.2c4.1 2.4 4.4 3.3 4 13.3 0 .3.7 1.9 1.5 3.5.9 1.7 1.1 3 .6 3-2 0-7-7.5-8.1-12.2-.7-2.7-1.4-4.7-1.7-4.4-.9.9-1 7.2 0 8.3.5.7.7 1.3.3 1.3-1.9 0 3.1 6.5 8.9 11.6 6.3 5.5 11.5 12.5 11.5 15.5 0 2.2-16.6-15-19.4-20.1-2.2-4.1-4.4-13.3-4-16.8.1-.6.2-2.1.3-3.2.1-2.6 1.3-2.5 6.1.2zm-212 7.3c0 .2-2.4 2-5.2 4-5 3.3-5.1 3.5-2.4 3.5 1.7 0 4.9-1.4 7.7-3.5 4.7-3.4 6.9-4.3 6.9-2.8 0 1.1-3.2 4.3-4.4 4.3-.6 0-2.4.9-4.1 2l-3 2 4.4-.4c2.9-.3 5.5-1.4 8.1-3.5 2.2-1.7 4.1-3.1 4.3-3.1.3 0 0 1.6-.6 3.6-1.9 6.2-4.1 6.9-20.8 6.9-11 0-15 .4-16.3 1.4-2 1.7-3.3.7-1.7-1.3 1-1.2.9-1.3-.9-.9-1.2.3-2.4 1.2-2.7 1.9-.3.8-.9 1.4-1.4 1.4-.4 0 .4-2.3 1.8-5 2.6-5 2.6-5 7.7-5.1 8.2-.1 11.7-.8 17-3.4 5.7-2.7 5.6-2.7 5.6-2zm65.6 1.2c-1.2 1.2-11.1 4-12.6 3.5-.8-.3 1.5-1.3 5-2.2 7.9-2.1 8.5-2.2 7.6-1.3zm-26.1 6c3.1.9 8.5 6.4 11.1 11.5l2.3 4.6-5.6-2.8c-6.4-3.3-8.3-3-3.9.5 3.3 2.6 2 2.7-3.7.2-2.1-.9-4.1-1.6-4.5-1.5-5.7.9-16.5-7.8-17.7-14.3-.5-2.7 0-2.5 5.8 2.5 4.8 4 11.9 8.6 13.4 8.6.3 0-2.4-2.8-6-6.3-3.7-3.5-6.7-6.9-6.7-7.5 0-.8 2.4-.3 6.8 1.4 3.7 1.4 7.6 2.8 8.7 3.1zm209.2 3.4c-.3 3.1-1.1 6.8-1.9 8.2-1.2 2.4-1.3 1.9-1.4-6.7-.1-9.1 0-9.4 1.9-8.3 1.6 1 1.8 2 1.4 6.8zm-251.1 9c-1.5.4-5.9 1.1-9.7 1.4-3.9.4-8.3 1-9.9 1.5-3.9 1.1-3.8.5.3-1.7 4.4-2.5 6.8-2.9 15.1-2.4 5.7.3 6.5.5 4.2 1.2zm246.6 5.1c-.7.7-1.2.8-1.2.2 0-1.4 1.2-2.6 1.9-1.9.2.3-.1 1.1-.7 1.7zm-110.3 3.9c5.8 1.2 11.7 2.4 13.1 2.6 5.1 1 29 1.2 31.5.3 1.4-.5 2.5-.6 2.5-.2 0 1-9.3 4.9-13.8 5.8-1.8.4-3.5 1.1-3.8 1.5-.3.5-.8.7-1.2.5-.4-.2-3.7.2-7.4.9-8.9 1.7-26.8 1.2-33.9-.8-3-.9-8-1.9-11-2.3-2.9-.3-5.6-.8-5.8-1-.2-.2 5.6-2.1 8.9-2.9 5.2-1.2 9.1-1.8 11.8-2 4.2-.3 6.8-2.4 3.2-2.6-6.8-.3-21.4 2-24.5 3.9-1.2.8-4.5 1.3-4.5.8 0-1.1 7.3-4.7 12.1-5.9 6.3-1.7 8.5-1.5 22.8 1.4z"/><path d="M196.6 107.3c.3 1 .9 1.5 1.2 1.2.3-.3 0-1.1-.7-1.8-1-.9-1.1-.8-.5.6zM93.2 122.2c.7 1.5 1.5 2.3 1.7 1.7.2-.6-.4-1.8-1.3-2.7-1.5-1.5-1.5-1.5-.4 1zM394 128c0 .5.5 1 1 1 .6 0 1-.5 1-1 0-.6-.4-1-1-1-.5 0-1 .4-1 1zm-236.7 77.5c-.8 2.2-.1 2.6 5.2 3 3.1.2 5.4 1 6.8 2.3 2 2 2 3.1 2 51 0 52-.2 54.4-4.6 55.6-1.2.3-3.6.6-5.3.6-3.2 0-5.5 2.6-3.1 3.5.6.3 19.2.4 41.2.3l40-.3.1-3c.2-3.7 1.3-23.5 1.9-33 .5-7.9 0-10.5-2-10.5-1.5 0-1.7.6-3.6 11.5-1.5 9.3-6.2 20.4-10.2 24.3-4.8 4.7-10 6.4-20.8 7-9.4.4-17.6-.9-16.4-2.8.3-.5 0-1-.6-1.2-.9-.3-1.2-6.9-1.1-23.3 0-12.7.1-24.1.1-25.4.1-2.3.3-2.3 6.5-1.9 8.6.7 12.7 3.3 15.5 9.8 1.2 2.8 2.4 7.1 2.6 9.7.4 4.9 1.6 7 3.4 5.9 1.5-1 1.5-53.2 0-54.2-1.8-1.1-3.2 1.2-3.5 6-.9 11.5-7.3 17.6-18.6 18l-5.8.2-.1-3.1c-.4-11.8-.1-38.7.5-41.7.9-4.8 4.1-5.8 16.1-5.3 9.4.4 10.4.5 14.6 2.2 5.9 2.5 11.9 10.2 13.5 17.5.2 1 .6 2.8.9 4 .3 1.3.8 4 1.1 6.1 1 6.5 2 9.2 3.5 9.2 1.1 0 1.4-2.1 1.3-11-.1-16.6-.6-29.8-1.1-31.3-.4-.9-9.3-1.2-39.9-1.2-34.6 0-39.5.2-40.1 1.5zm93 .1c-.6 1.6 1.5 3.7 2.9 2.8.4-.3 2.4-.2 4.4.2 2.8.5 3.9 1.3 4.8 3.8 1.7 4.4 1.5 99.1-.2 102.3-1.1 2-3 2.7-10.2 3.6-.8.1-1.5.9-1.5 1.7 0 1.3 3.3 1.5 21.9 1.8 12.1.1 22.3-.1 22.7-.5 1.7-1.7-.8-3.1-6.5-3.6-9.3-.9-9.1-.2-9.1-26v-22.2l7-.1c9.9-.1 18.7-1.2 23.3-2.8 9.4-3.3 17.3-10.7 20.3-18.8 1.9-5.1 2.2-17 .7-22.6-1.4-5-6.3-11.6-10.9-14.7-4.2-2.7-11.8-5.7-13-4.9-.4.2-1 0-1.3-.5-.3-.5-12.6-1-27.6-1-24.3-.2-27.1 0-27.7 1.5zm53 5.2c5.4 2.4 7.3 4.7 9.7 11.3 1.5 4.2 1.8 7.5 1.6 14.9-.4 11-.7 12.7-3.7 17.9-3.5 6.4-10 9.2-22.1 9.9l-9.9.5.2-25.9c0-14.3.5-26.7 1.1-27.7.5-1 1.9-2.2 3.1-2.7 3.3-1.4 15.2-.3 20 1.8zm151.3 156.1c-.4.5.3.7 1.4.4 2.3-.6 2.6-1.3.6-1.3-.8 0-1.7.4-2 .9zM141.5 384c-.3.5-.1 1 .4 1 .6 0 1.1-.5 1.1-1 0-.6-.2-1-.4-1-.3 0-.8.4-1.1 1zm154.3 40.7c.6.2 1.8.2 2.5 0 .6-.3.1-.5-1.3-.5-1.4 0-1.9.2-1.2.5z"/></svg>